<?xml version="1.0" encoding="utf-8" standalone="no"?>
<!DOCTYPE svg PUBLIC "-//W3C//DTD SVG 1.1//EN"
  "http://www.w3.org/Graphics/SVG/1.1/DTD/svg11.dtd">
<svg xmlns:xlink="http://www.w3.org/1999/xlink" width="460.8pt" height="345.6pt" viewBox="0 0 460.8 345.6" xmlns="http://www.w3.org/2000/svg" version="1.1">
 <metadata>
  <rdf:RDF xmlns:dc="http://purl.org/dc/elements/1.1/" xmlns:cc="http://creativecommons.org/ns#" xmlns:rdf="http://www.w3.org/1999/02/22-rdf-syntax-ns#">
   <cc:Work>
    <dc:type rdf:resource="http://purl.org/dc/dcmitype/StillImage"/>
    <dc:date>2023-08-23T17:01:00.855443</dc:date>
    <dc:format>image/svg+xml</dc:format>
    <dc:creator>
     <cc:Agent>
      <dc:title>Matplotlib v3.7.2, https://matplotlib.org/</dc:title>
     </cc:Agent>
    </dc:creator>
   </cc:Work>
  </rdf:RDF>
 </metadata>
 <defs>
  <style type="text/css">*{stroke-linejoin: round; stroke-linecap: butt}</style>
 </defs>
 <g id="figure_1">
  <g id="patch_1">
   <path d="M 0 345.6 
L 460.8 345.6 
L 460.8 0 
L 0 0 
z
" style="fill: #ffffff"/>
  </g>
  <g id="axes_1">
   <g id="patch_2">
    <path d="M 57.6 307.584 
L 414.72 307.584 
L 414.72 41.472 
L 57.6 41.472 
z
" style="fill: #ffffff"/>
   </g>
   <g id="matplotlib.axis_1">
    <g id="xtick_1">
     <g id="line2d_1">
      <defs>
       <path id="m77728a30f4" d="M 0 0 
L 0 3.5 
" style="stroke: #000000; stroke-width: 0.8"/>
      </defs>
      <g>
       <use xlink:href="#m77728a30f4" x="73.832727" y="307.584" style="stroke: #000000; stroke-width: 0.8"/>
      </g>
     </g>
     <g id="text_1">
      <text style="font: 10px 'DejaVu Sans', 'Bitstream Vera Sans', 'Computer Modern Sans Serif', 'Lucida Grande', 'Verdana', 'Geneva', 'Lucid', 'Arial', 'Helvetica', 'Avant Garde', sans-serif; text-anchor: middle" x="73.832727" y="322.182437" transform="rotate(-0 73.832727 322.182437)">0</text>
     </g>
    </g>
    <g id="xtick_2">
     <g id="line2d_2">
      <g>
       <use xlink:href="#m77728a30f4" x="138.893758" y="307.584" style="stroke: #000000; stroke-width: 0.8"/>
      </g>
     </g>
     <g id="text_2">
      <text style="font: 10px 'DejaVu Sans', 'Bitstream Vera Sans', 'Computer Modern Sans Serif', 'Lucida Grande', 'Verdana', 'Geneva', 'Lucid', 'Arial', 'Helvetica', 'Avant Garde', sans-serif; text-anchor: middle" x="138.893758" y="322.182437" transform="rotate(-0 138.893758 322.182437)">2000</text>
     </g>
    </g>
    <g id="xtick_3">
     <g id="line2d_3">
      <g>
       <use xlink:href="#m77728a30f4" x="203.95479" y="307.584" style="stroke: #000000; stroke-width: 0.8"/>
      </g>
     </g>
     <g id="text_3">
      <text style="font: 10px 'DejaVu Sans', 'Bitstream Vera Sans', 'Computer Modern Sans Serif', 'Lucida Grande', 'Verdana', 'Geneva', 'Lucid', 'Arial', 'Helvetica', 'Avant Garde', sans-serif; text-anchor: middle" x="203.95479" y="322.182437" transform="rotate(-0 203.95479 322.182437)">4000</text>
     </g>
    </g>
    <g id="xtick_4">
     <g id="line2d_4">
      <g>
       <use xlink:href="#m77728a30f4" x="269.015821" y="307.584" style="stroke: #000000; stroke-width: 0.8"/>
      </g>
     </g>
     <g id="text_4">
      <text style="font: 10px 'DejaVu Sans', 'Bitstream Vera Sans', 'Computer Modern Sans Serif', 'Lucida Grande', 'Verdana', 'Geneva', 'Lucid', 'Arial', 'Helvetica', 'Avant Garde', sans-serif; text-anchor: middle" x="269.015821" y="322.182437" transform="rotate(-0 269.015821 322.182437)">6000</text>
     </g>
    </g>
    <g id="xtick_5">
     <g id="line2d_5">
      <g>
       <use xlink:href="#m77728a30f4" x="334.076852" y="307.584" style="stroke: #000000; stroke-width: 0.8"/>
      </g>
     </g>
     <g id="text_5">
      <text style="font: 10px 'DejaVu Sans', 'Bitstream Vera Sans', 'Computer Modern Sans Serif', 'Lucida Grande', 'Verdana', 'Geneva', 'Lucid', 'Arial', 'Helvetica', 'Avant Garde', sans-serif; text-anchor: middle" x="334.076852" y="322.182437" transform="rotate(-0 334.076852 322.182437)">8000</text>
     </g>
    </g>
    <g id="xtick_6">
     <g id="line2d_6">
      <g>
       <use xlink:href="#m77728a30f4" x="399.137883" y="307.584" style="stroke: #000000; stroke-width: 0.8"/>
      </g>
     </g>
     <g id="text_6">
      <text style="font: 10px 'DejaVu Sans', 'Bitstream Vera Sans', 'Computer Modern Sans Serif', 'Lucida Grande', 'Verdana', 'Geneva', 'Lucid', 'Arial', 'Helvetica', 'Avant Garde', sans-serif; text-anchor: middle" x="399.137883" y="322.182437" transform="rotate(-0 399.137883 322.182437)">10000</text>
     </g>
    </g>
    <g id="text_7">
     <text style="font: 10px 'DejaVu Sans', 'Bitstream Vera Sans', 'Computer Modern Sans Serif', 'Lucida Grande', 'Verdana', 'Geneva', 'Lucid', 'Arial', 'Helvetica', 'Avant Garde', sans-serif; text-anchor: middle" x="236.16" y="335.860562" transform="rotate(-0 236.16 335.860562)">Steps / Batch Count</text>
    </g>
   </g>
   <g id="matplotlib.axis_2">
    <g id="ytick_1">
     <g id="line2d_7">
      <defs>
       <path id="m95ec11acec" d="M 0 0 
L -3.5 0 
" style="stroke: #000000; stroke-width: 0.8"/>
      </defs>
      <g>
       <use xlink:href="#m95ec11acec" x="57.6" y="295.517307" style="stroke: #000000; stroke-width: 0.8"/>
      </g>
     </g>
     <g id="text_8">
      <text style="font: 10px 'DejaVu Sans', 'Bitstream Vera Sans', 'Computer Modern Sans Serif', 'Lucida Grande', 'Verdana', 'Geneva', 'Lucid', 'Arial', 'Helvetica', 'Avant Garde', sans-serif; text-anchor: end" x="50.6" y="299.316526" transform="rotate(-0 50.6 299.316526)">0.0</text>
     </g>
    </g>
    <g id="ytick_2">
     <g id="line2d_8">
      <g>
       <use xlink:href="#m95ec11acec" x="57.6" y="243.395881" style="stroke: #000000; stroke-width: 0.8"/>
      </g>
     </g>
     <g id="text_9">
      <text style="font: 10px 'DejaVu Sans', 'Bitstream Vera Sans', 'Computer Modern Sans Serif', 'Lucida Grande', 'Verdana', 'Geneva', 'Lucid', 'Arial', 'Helvetica', 'Avant Garde', sans-serif; text-anchor: end" x="50.6" y="247.1951" transform="rotate(-0 50.6 247.1951)">0.5</text>
     </g>
    </g>
    <g id="ytick_3">
     <g id="line2d_9">
      <g>
       <use xlink:href="#m95ec11acec" x="57.6" y="191.274455" style="stroke: #000000; stroke-width: 0.8"/>
      </g>
     </g>
     <g id="text_10">
      <text style="font: 10px 'DejaVu Sans', 'Bitstream Vera Sans', 'Computer Modern Sans Serif', 'Lucida Grande', 'Verdana', 'Geneva', 'Lucid', 'Arial', 'Helvetica', 'Avant Garde', sans-serif; text-anchor: end" x="50.6" y="195.073674" transform="rotate(-0 50.6 195.073674)">1.0</text>
     </g>
    </g>
    <g id="ytick_4">
     <g id="line2d_10">
      <g>
       <use xlink:href="#m95ec11acec" x="57.6" y="139.153029" style="stroke: #000000; stroke-width: 0.8"/>
      </g>
     </g>
     <g id="text_11">
      <text style="font: 10px 'DejaVu Sans', 'Bitstream Vera Sans', 'Computer Modern Sans Serif', 'Lucida Grande', 'Verdana', 'Geneva', 'Lucid', 'Arial', 'Helvetica', 'Avant Garde', sans-serif; text-anchor: end" x="50.6" y="142.952248" transform="rotate(-0 50.6 142.952248)">1.5</text>
     </g>
    </g>
    <g id="ytick_5">
     <g id="line2d_11">
      <g>
       <use xlink:href="#m95ec11acec" x="57.6" y="87.031603" style="stroke: #000000; stroke-width: 0.8"/>
      </g>
     </g>
     <g id="text_12">
      <text style="font: 10px 'DejaVu Sans', 'Bitstream Vera Sans', 'Computer Modern Sans Serif', 'Lucida Grande', 'Verdana', 'Geneva', 'Lucid', 'Arial', 'Helvetica', 'Avant Garde', sans-serif; text-anchor: end" x="50.6" y="90.830821" transform="rotate(-0 50.6 90.830821)">2.0</text>
     </g>
    </g>
    <g id="text_13">
     <text style="font: 10px 'DejaVu Sans', 'Bitstream Vera Sans', 'Computer Modern Sans Serif', 'Lucida Grande', 'Verdana', 'Geneva', 'Lucid', 'Arial', 'Helvetica', 'Avant Garde', sans-serif; text-anchor: middle" x="28.617188" y="174.528" transform="rotate(-90 28.617188 174.528)">Loss</text>
    </g>
   </g>
   <g id="line2d_12">
    <path d="M 73.832727 54.554878 
L 74.483338 205.598809 
L 75.133948 220.327011 
L 75.784558 246.146683 
L 76.435169 261.758255 
L 77.085779 253.853709 
L 77.736389 269.348302 
L 78.386999 264.652537 
L 79.03761 272.198701 
L 79.68822 269.715837 
L 80.33883 279.736587 
L 80.989441 281.736123 
L 81.640051 281.843476 
L 82.290661 285.321809 
L 82.941272 278.388 
L 83.591882 281.268075 
L 84.242492 281.459778 
L 84.893103 286.489208 
L 85.543713 281.662487 
L 86.194323 287.086084 
L 86.844934 283.625947 
L 87.495544 287.543898 
L 88.146154 280.29987 
L 88.796764 284.096709 
L 89.447375 288.689056 
L 90.097985 284.449899 
L 90.748595 288.870099 
L 91.399206 279.521383 
L 92.049816 277.676818 
L 92.700426 278.613197 
L 93.351037 282.828866 
L 94.001647 274.334832 
L 94.652257 281.363282 
L 95.302868 284.489752 
L 96.604088 288.051203 
L 97.254698 279.607112 
L 97.905309 281.382382 
L 98.555919 289.993274 
L 99.206529 286.773575 
L 99.85714 287.934433 
L 100.50775 285.986433 
L 101.15836 291.423042 
L 101.808971 290.377704 
L 102.459581 282.95187 
L 103.110191 287.089664 
L 103.760802 285.124654 
L 104.411412 291.876942 
L 105.062022 287.188519 
L 105.712633 285.614205 
L 106.363243 279.918704 
L 107.013853 289.256134 
L 107.664463 289.945388 
L 108.315074 288.446829 
L 108.965684 289.948298 
L 109.616294 294.538848 
L 110.266905 292.556025 
L 110.917515 281.947557 
L 111.568125 290.793634 
L 112.218736 288.25032 
L 112.869346 288.468057 
L 113.519956 290.337567 
L 114.170567 285.776578 
L 114.821177 291.270951 
L 115.471787 285.589937 
L 116.122398 287.578449 
L 116.773008 282.52519 
L 117.423618 290.672769 
L 118.074228 287.163344 
L 118.724839 282.574183 
L 119.375449 289.659913 
L 120.026059 288.56466 
L 120.67667 293.964179 
L 121.32728 287.652376 
L 121.97789 288.593485 
L 122.628501 285.984464 
L 123.279111 285.349294 
L 123.929721 290.120951 
L 124.580332 286.064436 
L 125.230942 290.457675 
L 125.881552 287.065442 
L 126.532163 282.069963 
L 127.182773 289.957177 
L 127.833383 294.621894 
L 128.483993 292.255709 
L 129.134604 293.505189 
L 130.435824 291.481161 
L 131.086435 291.042303 
L 131.737045 291.024667 
L 132.387655 291.871767 
L 133.038266 287.845267 
L 133.688876 292.496571 
L 134.339486 292.603099 
L 134.990097 289.286584 
L 135.640707 293.032708 
L 136.291317 294.676398 
L 136.941927 290.138663 
L 137.592538 292.335583 
L 138.243148 293.508073 
L 138.893758 288.389924 
L 139.544369 294.381284 
L 140.194979 293.128012 
L 140.845589 290.390428 
L 141.4962 294.354471 
L 142.14681 289.978201 
L 142.79742 290.996058 
L 143.448031 289.248558 
L 144.098641 294.011765 
L 144.749251 288.967418 
L 145.399862 294.075317 
L 146.050472 283.308682 
L 146.701082 288.117878 
L 147.351692 294.510843 
L 148.002303 291.294121 
L 148.652913 290.065626 
L 149.954134 289.448602 
L 150.604744 286.690177 
L 151.255354 290.218507 
L 151.905965 287.982812 
L 152.556575 282.982718 
L 153.207185 291.80655 
L 153.857796 284.289041 
L 154.508406 294.152618 
L 155.809627 289.866752 
L 157.110847 290.625395 
L 158.412068 290.889663 
L 159.062678 290.468987 
L 159.713288 292.811957 
L 160.363899 286.954288 
L 161.014509 293.399559 
L 161.665119 293.279971 
L 162.31573 289.606074 
L 162.96634 289.762234 
L 163.61695 294.797149 
L 164.267561 293.863633 
L 164.918171 293.875394 
L 165.568781 291.446291 
L 166.219392 284.842598 
L 166.870002 287.833775 
L 167.520612 290.01014 
L 168.171222 289.323035 
L 168.821833 293.697935 
L 169.472443 286.425372 
L 170.123053 292.11514 
L 170.773664 294.714034 
L 172.074884 294.303395 
L 172.725495 285.853674 
L 173.376105 294.163738 
L 174.026715 292.139506 
L 174.677326 292.596631 
L 175.327936 287.483222 
L 175.978546 288.410371 
L 176.629156 294.318302 
L 177.279767 282.249923 
L 177.930377 279.158574 
L 178.580987 288.731839 
L 179.231598 289.898158 
L 179.882208 284.0947 
L 180.532818 293.777961 
L 181.183429 285.454673 
L 181.834039 294.49878 
L 182.484649 290.69323 
L 183.13526 292.156159 
L 183.78587 289.480454 
L 184.43648 291.189517 
L 185.087091 289.135938 
L 186.388311 293.804447 
L 187.038921 294.278966 
L 187.689532 289.344847 
L 188.340142 291.31959 
L 188.990752 281.916052 
L 189.641363 293.341402 
L 190.291973 294.09079 
L 190.942583 285.50671 
L 191.593194 293.883221 
L 192.243804 290.428647 
L 192.894414 292.222732 
L 194.195635 294.812645 
L 194.846245 291.751064 
L 195.496856 292.709104 
L 196.147466 290.016881 
L 196.798076 288.764774 
L 197.448686 293.948158 
L 198.099297 286.906509 
L 198.749907 293.41934 
L 199.400517 294.634156 
L 200.051128 288.648489 
L 200.701738 289.515348 
L 201.352348 294.28321 
L 202.002959 294.059759 
L 202.653569 290.588183 
L 203.304179 292.452199 
L 203.95479 294.924501 
L 204.6054 293.088724 
L 205.25601 294.289222 
L 205.906621 292.311338 
L 206.557231 293.730243 
L 207.207841 294.454526 
L 207.858451 292.435012 
L 208.509062 292.945864 
L 209.159672 291.257792 
L 210.460893 294.455817 
L 211.111503 293.050113 
L 211.762113 290.040487 
L 212.412724 292.850166 
L 213.063334 294.161575 
L 213.713944 294.70677 
L 214.364555 294.625581 
L 215.015165 290.24309 
L 215.665775 287.572427 
L 216.316385 293.043533 
L 216.966996 293.01842 
L 217.617606 291.648331 
L 218.268216 293.599951 
L 218.918827 293.668247 
L 219.569437 294.190328 
L 220.220047 291.920378 
L 220.870658 291.60127 
L 221.521268 293.272474 
L 222.171878 292.545907 
L 222.822489 294.731748 
L 223.473099 294.454022 
L 224.123709 290.793971 
L 224.77432 292.709711 
L 225.42493 290.637471 
L 226.07554 293.230395 
L 226.72615 294.441805 
L 227.376761 293.553497 
L 228.027371 295.263186 
L 228.677981 295.155371 
L 229.328592 294.763579 
L 229.979202 292.382912 
L 230.629812 292.1092 
L 231.280423 288.069339 
L 231.931033 293.244296 
L 232.581643 293.237012 
L 233.882864 294.373803 
L 234.533474 291.294316 
L 235.184085 295.310472 
L 235.834695 291.717411 
L 236.485305 288.943769 
L 237.135915 294.600288 
L 237.786526 294.582266 
L 238.437136 293.740308 
L 239.087746 289.26119 
L 239.738357 294.482806 
L 240.388967 289.688754 
L 241.039577 291.848752 
L 241.690188 295.105833 
L 242.340798 294.333763 
L 242.991408 286.769318 
L 243.642019 294.646065 
L 244.292629 291.811094 
L 244.943239 293.560522 
L 245.59385 294.188595 
L 246.24446 291.431078 
L 246.89507 286.788992 
L 247.54568 291.465338 
L 248.196291 293.334898 
L 248.846901 294.432817 
L 249.497511 293.828081 
L 250.148122 288.681073 
L 250.798732 289.785475 
L 251.449342 293.298974 
L 252.099953 295.009437 
L 252.750563 289.917831 
L 253.401173 294.743811 
L 254.051784 291.802581 
L 254.702394 294.869325 
L 255.353004 294.076501 
L 256.003615 295.184596 
L 256.654225 288.76608 
L 257.304835 294.949607 
L 257.955445 290.589117 
L 258.606056 292.561046 
L 259.256666 295.242894 
L 259.907276 293.824745 
L 260.557887 293.898544 
L 261.208497 292.496607 
L 261.859107 289.516591 
L 262.509718 293.764737 
L 263.160328 293.914616 
L 263.810938 292.875246 
L 264.461549 294.250793 
L 265.112159 294.685309 
L 265.762769 294.743644 
L 266.413379 292.353891 
L 267.06399 294.851598 
L 267.7146 294.443031 
L 268.36521 294.531477 
L 269.015821 293.881676 
L 269.666431 295.168375 
L 270.317041 295.211094 
L 270.967652 294.848598 
L 271.618262 294.212909 
L 272.268872 293.181657 
L 272.919483 293.706709 
L 273.570093 291.175633 
L 274.220703 294.371177 
L 274.871314 294.841847 
L 275.521924 293.08525 
L 276.172534 295.263887 
L 276.823144 293.644776 
L 277.473755 293.267704 
L 278.124365 294.894304 
L 278.774975 287.773289 
L 279.425586 294.339763 
L 280.076196 291.65568 
L 280.726806 295.099813 
L 281.377417 295.25284 
L 282.028027 288.968187 
L 282.678637 295.118639 
L 283.329248 294.121208 
L 283.979858 295.271819 
L 284.630468 293.418667 
L 285.281079 292.561711 
L 285.931689 294.533033 
L 286.582299 293.159313 
L 287.232909 294.921955 
L 287.88352 294.979887 
L 288.53413 294.706929 
L 289.18474 292.763968 
L 289.835351 295.306384 
L 290.485961 293.582327 
L 291.136571 295.347236 
L 291.787182 293.934741 
L 292.437792 289.980439 
L 293.088402 295.344073 
L 293.739013 289.689636 
L 294.389623 292.889733 
L 295.040233 295.25467 
L 295.690844 295.218208 
L 296.341454 294.581798 
L 296.992064 288.926217 
L 298.293285 293.949684 
L 298.943895 294.340766 
L 299.594505 293.573012 
L 300.245116 294.920239 
L 300.895726 295.233287 
L 301.546336 293.561209 
L 302.196947 289.604783 
L 302.847557 294.017893 
L 303.498167 294.702899 
L 304.148778 292.339171 
L 304.799388 295.336898 
L 305.449998 293.440151 
L 306.100608 292.333856 
L 306.751219 289.792709 
L 307.401829 292.865341 
L 308.052439 295.040261 
L 308.70305 290.91097 
L 309.35366 290.350617 
L 310.00427 294.230514 
L 310.654881 292.417215 
L 311.305491 294.876761 
L 311.956101 294.258655 
L 312.606712 294.193102 
L 313.257322 295.101122 
L 313.907932 294.404963 
L 314.558543 292.781489 
L 315.209153 293.338685 
L 315.859763 292.301468 
L 316.510373 291.571416 
L 317.160984 291.120184 
L 317.811594 292.080719 
L 318.462204 291.783476 
L 319.112815 294.740387 
L 319.763425 287.96218 
L 320.414035 294.731059 
L 321.064646 295.398824 
L 321.715256 295.068374 
L 322.365866 294.128067 
L 323.016477 294.884754 
L 323.667087 294.901929 
L 324.317697 294.501611 
L 324.968308 293.558255 
L 325.618918 293.263591 
L 326.269528 294.798486 
L 326.920138 294.27533 
L 327.570749 295.375013 
L 328.221359 295.172262 
L 328.871969 293.036699 
L 329.52258 295.049735 
L 330.17319 295.128081 
L 330.8238 294.561459 
L 331.474411 293.433564 
L 332.125021 291.897074 
L 332.775631 294.735202 
L 333.426242 293.827569 
L 334.076852 288.223972 
L 334.727462 294.512433 
L 335.378073 295.192116 
L 336.028683 291.728953 
L 336.679293 294.683489 
L 337.980514 295.488 
L 338.631124 290.750825 
L 339.281734 295.420064 
L 339.932345 295.248263 
L 340.582955 290.366105 
L 341.233565 295.279081 
L 341.884176 292.954129 
L 342.534786 293.862083 
L 343.185396 293.020775 
L 343.836007 295.241947 
L 344.486617 294.720441 
L 345.137227 294.993599 
L 345.787837 294.447672 
L 346.438448 295.020476 
L 347.089058 294.89614 
L 347.739668 294.015437 
L 348.390279 291.432428 
L 349.040889 289.461674 
L 349.691499 295.311838 
L 350.34211 291.288639 
L 350.99272 294.562887 
L 351.64333 287.226427 
L 352.293941 294.343594 
L 352.944551 293.681758 
L 353.595161 293.248714 
L 354.245772 290.43697 
L 354.896382 294.604453 
L 355.546992 290.637221 
L 356.197602 295.015314 
L 356.848213 291.078337 
L 358.149433 295.116529 
L 358.800044 295.461445 
L 359.450654 295.021615 
L 360.101264 294.124103 
L 360.751875 287.44342 
L 361.402485 295.068967 
L 362.053095 294.475285 
L 362.703706 294.69874 
L 363.354316 294.747148 
L 364.004926 294.445267 
L 364.655537 295.050387 
L 365.306147 294.695947 
L 365.956757 294.974498 
L 366.607367 294.769913 
L 367.257978 290.802958 
L 367.908588 293.387919 
L 368.559198 292.005156 
L 369.209809 294.09823 
L 369.860419 292.336685 
L 370.511029 289.620523 
L 371.16164 292.850842 
L 371.81225 292.87319 
L 372.46286 294.456674 
L 373.113471 293.922815 
L 373.764081 294.440346 
L 374.414691 295.176507 
L 375.065302 294.277986 
L 375.715912 295.320366 
L 377.017132 288.874814 
L 377.667743 292.932145 
L 378.318353 294.923513 
L 378.968963 294.065579 
L 379.619574 292.486483 
L 380.270184 294.320071 
L 380.920794 295.114222 
L 381.571405 291.271211 
L 382.222015 293.68418 
L 382.872625 295.293723 
L 384.173846 291.96519 
L 384.824456 295.166337 
L 385.475066 295.042687 
L 386.125677 289.649812 
L 386.776287 293.036487 
L 387.426897 295.413789 
L 388.077508 294.845384 
L 388.728118 293.394431 
L 389.378728 295.474963 
L 390.029339 295.261477 
L 390.679949 290.261262 
L 391.330559 294.483173 
L 391.98117 295.321699 
L 392.63178 294.963407 
L 393.28239 291.120112 
L 393.933001 293.834359 
L 394.583611 295.220501 
L 395.234221 295.286752 
L 395.884831 294.972209 
L 396.535442 292.227128 
L 397.186052 295.273495 
L 397.836662 294.365715 
L 398.487273 287.291679 
L 398.487273 287.291679 
" clip-path="url(#pcd238cbe6f)" style="fill: none; stroke: #1f77b4; stroke-width: 1.5; stroke-linecap: square"/>
   </g>
   <g id="line2d_13">
    <path d="M 73.832727 53.568 
L 74.483338 190.650874 
L 75.133948 237.126633 
L 75.784558 256.538518 
L 76.435169 262.591243 
L 77.085779 249.051952 
L 77.736389 256.733989 
L 78.386999 268.312562 
L 79.03761 275.170167 
L 79.68822 273.984871 
L 80.33883 273.910398 
L 80.989441 271.358154 
L 81.640051 272.120695 
L 82.290661 281.809474 
L 82.941272 277.586695 
L 83.591882 275.201069 
L 84.242492 282.332993 
L 84.893103 278.954606 
L 85.543713 280.001631 
L 86.194323 279.836554 
L 86.844934 288.582971 
L 87.495544 279.021345 
L 88.146154 281.54295 
L 88.796764 278.639978 
L 89.447375 281.372689 
L 90.097985 279.893568 
L 90.748595 265.816757 
L 91.399206 279.160395 
L 92.049816 284.517485 
L 92.700426 286.328008 
L 93.351037 286.246335 
L 94.001647 287.592403 
L 94.652257 281.982325 
L 95.302868 286.781604 
L 95.953478 288.331993 
L 96.604088 282.595808 
L 97.254698 288.858912 
L 97.905309 282.984452 
L 98.555919 285.960709 
L 99.206529 290.731109 
L 99.85714 290.572093 
L 101.15836 271.724992 
L 101.808971 282.512334 
L 102.459581 280.153877 
L 103.110191 287.030462 
L 103.760802 291.464491 
L 104.411412 290.153136 
L 105.062022 286.121163 
L 105.712633 285.834359 
L 106.363243 283.525212 
L 107.013853 292.622171 
L 107.664463 288.259858 
L 108.315074 283.02563 
L 108.965684 285.567255 
L 109.616294 281.90061 
L 110.266905 285.861219 
L 110.917515 293.556758 
L 111.568125 292.175325 
L 112.218736 289.825202 
L 112.869346 291.378451 
L 113.519956 286.53112 
L 114.170567 291.851369 
L 114.821177 289.574828 
L 115.471787 292.207435 
L 116.122398 285.722189 
L 116.773008 281.969289 
L 117.423618 282.554858 
L 118.074228 291.202272 
L 118.724839 283.901947 
L 119.375449 292.956573 
L 120.026059 294.1094 
L 120.67667 292.138391 
L 121.32728 293.734469 
L 121.97789 292.27399 
L 122.628501 283.386294 
L 123.279111 292.871006 
L 123.929721 288.883688 
L 124.580332 293.340132 
L 125.230942 290.425426 
L 125.881552 284.460242 
L 127.182773 291.830843 
L 127.833383 290.648742 
L 128.483993 280.38838 
L 129.134604 289.37703 
L 129.785214 293.505859 
L 130.435824 293.084231 
L 131.086435 292.900943 
L 131.737045 287.77697 
L 132.387655 292.320355 
L 133.038266 292.087143 
L 133.688876 293.78018 
L 134.339486 291.971499 
L 135.640707 285.920075 
L 136.291317 288.831607 
L 136.941927 286.067458 
L 137.592538 289.402168 
L 138.243148 293.834306 
L 138.893758 290.922042 
L 139.544369 289.237827 
L 140.194979 291.042148 
L 140.845589 288.386571 
L 141.4962 286.587889 
L 142.14681 287.179602 
L 142.79742 290.288095 
L 143.448031 286.616173 
L 144.098641 291.534187 
L 144.749251 291.494892 
L 145.399862 293.414098 
L 146.050472 288.604615 
L 146.701082 292.915934 
L 147.351692 294.901654 
L 148.002303 285.205541 
L 148.652913 290.968604 
L 149.303523 291.64737 
L 149.954134 292.730156 
L 150.604744 292.151713 
L 151.255354 294.312482 
L 151.905965 286.86074 
L 152.556575 293.327332 
L 153.207185 289.445655 
L 153.857796 291.995459 
L 154.508406 292.875244 
L 155.159016 279.156749 
L 155.809627 291.975734 
L 156.460237 291.953953 
L 157.110847 290.822988 
L 157.761457 292.326725 
L 158.412068 290.79694 
L 159.062678 283.570513 
L 159.713288 294.740401 
L 160.363899 288.356005 
L 161.014509 294.765068 
L 161.665119 290.508711 
L 162.31573 290.001111 
L 162.96634 290.89938 
L 163.61695 287.859294 
L 164.267561 291.929724 
L 164.918171 291.300782 
L 165.568781 288.562844 
L 166.219392 286.863413 
L 166.870002 288.480225 
L 167.520612 293.081031 
L 168.171222 290.677188 
L 168.821833 285.750348 
L 169.472443 286.742115 
L 170.123053 292.750526 
L 170.773664 293.74799 
L 172.725495 294.615931 
L 173.376105 292.299199 
L 174.026715 293.475084 
L 174.677326 293.587199 
L 175.327936 292.33138 
L 175.978546 293.066422 
L 176.629156 286.675139 
L 177.279767 293.374248 
L 177.930377 287.084749 
L 178.580987 291.820796 
L 179.231598 294.63567 
L 179.882208 276.762298 
L 180.532818 293.94872 
L 181.183429 294.507682 
L 181.834039 290.61467 
L 183.13526 294.068677 
L 183.78587 294.221532 
L 184.43648 294.142473 
L 185.087091 291.301165 
L 185.737701 289.421583 
L 186.388311 293.795642 
L 187.038921 293.806556 
L 187.689532 287.725564 
L 188.340142 293.315448 
L 188.990752 290.575197 
L 189.641363 292.822788 
L 190.291973 293.406192 
L 190.942583 287.52554 
L 191.593194 285.622849 
L 192.243804 293.537317 
L 192.894414 290.526517 
L 193.545025 290.889277 
L 194.195635 291.440962 
L 195.496856 293.981791 
L 196.147466 292.851709 
L 196.798076 292.942316 
L 197.448686 294.680704 
L 198.099297 291.107993 
L 198.749907 294.020922 
L 199.400517 291.310881 
L 200.051128 295.023013 
L 200.701738 293.061442 
L 201.352348 290.177039 
L 202.002959 291.087652 
L 202.653569 293.616932 
L 203.304179 290.767933 
L 203.95479 290.17063 
L 204.6054 292.800774 
L 205.25601 292.821771 
L 205.906621 284.589253 
L 206.557231 292.932155 
L 207.207841 292.103519 
L 207.858451 294.700426 
L 208.509062 295.06684 
L 209.159672 292.511904 
L 209.810282 293.787096 
L 210.460893 294.081142 
L 211.111503 290.597575 
L 211.762113 288.540214 
L 212.412724 293.490373 
L 213.063334 294.767434 
L 213.713944 294.060473 
L 214.364555 293.7539 
L 215.665775 291.334826 
L 216.316385 290.420181 
L 216.966996 294.913238 
L 217.617606 288.769395 
L 218.268216 293.428543 
L 218.918827 294.59267 
L 219.569437 294.191422 
L 220.220047 292.886989 
L 220.870658 295.040361 
L 221.521268 294.997936 
L 222.171878 291.590344 
L 222.822489 290.977147 
L 224.123709 294.365865 
L 224.77432 295.188469 
L 225.42493 292.795497 
L 226.07554 292.709058 
L 226.72615 294.693457 
L 228.027371 291.570292 
L 228.677981 293.094692 
L 229.328592 295.099173 
L 229.979202 293.991082 
L 230.629812 291.740205 
L 231.280423 291.780126 
L 231.931033 295.419196 
L 232.581643 291.556917 
L 233.232254 294.474442 
L 233.882864 293.790273 
L 235.184085 289.754608 
L 235.834695 292.029511 
L 236.485305 292.696159 
L 237.135915 290.759178 
L 237.786526 292.523677 
L 238.437136 293.569658 
L 239.087746 288.0537 
L 239.738357 293.209035 
L 240.388967 291.133509 
L 241.039577 294.143783 
L 241.690188 295.205871 
L 242.340798 295.056068 
L 242.991408 294.16573 
L 243.642019 293.713153 
L 244.292629 289.673621 
L 244.943239 293.860475 
L 245.59385 287.345338 
L 246.24446 293.752773 
L 246.89507 289.362196 
L 247.54568 294.761912 
L 248.196291 285.798411 
L 248.846901 294.897311 
L 249.497511 294.658804 
L 250.148122 294.781928 
L 250.798732 289.201004 
L 251.449342 288.459042 
L 252.099953 293.955359 
L 252.750563 294.754694 
L 253.401173 292.866045 
L 254.051784 293.286628 
L 254.702394 292.290146 
L 255.353004 289.78314 
L 256.003615 294.241757 
L 256.654225 294.978999 
L 257.304835 293.443652 
L 257.955445 294.02 
L 258.606056 293.480871 
L 259.256666 294.658748 
L 259.907276 293.908719 
L 260.557887 292.667915 
L 261.208497 294.98455 
L 261.859107 294.117949 
L 262.509718 290.996941 
L 263.160328 292.093253 
L 263.810938 295.199236 
L 264.461549 291.30785 
L 265.112159 290.530192 
L 265.762769 294.033653 
L 266.413379 293.229451 
L 267.06399 294.521247 
L 267.7146 294.174332 
L 268.36521 294.318923 
L 269.015821 291.475206 
L 269.666431 295.248319 
L 270.317041 289.771915 
L 270.967652 293.932259 
L 271.618262 290.211838 
L 272.268872 291.985486 
L 272.919483 295.189315 
L 273.570093 295.318422 
L 274.220703 292.340485 
L 275.521924 292.957154 
L 276.172534 287.410444 
L 276.823144 292.995008 
L 277.473755 293.167676 
L 278.124365 295.233938 
L 278.774975 295.362403 
L 279.425586 294.151021 
L 280.076196 294.250646 
L 280.726806 292.950424 
L 281.377417 295.279573 
L 282.028027 292.724255 
L 282.678637 292.079702 
L 283.329248 292.581118 
L 283.979858 295.101385 
L 284.630468 294.143728 
L 285.281079 294.872067 
L 285.931689 294.856856 
L 286.582299 293.573361 
L 287.232909 293.051937 
L 287.88352 290.566436 
L 288.53413 294.134516 
L 289.18474 294.839458 
L 289.835351 292.240497 
L 290.485961 290.842058 
L 291.136571 295.280077 
L 291.787182 294.086244 
L 292.437792 295.078021 
L 293.088402 293.738394 
L 293.739013 294.919348 
L 294.389623 293.364381 
L 295.040233 295.078274 
L 295.690844 295.046597 
L 296.341454 290.510956 
L 296.992064 295.325531 
L 297.642674 294.538253 
L 298.293285 294.579644 
L 298.943895 294.304331 
L 299.594505 294.301873 
L 300.245116 291.140527 
L 300.895726 294.997264 
L 301.546336 295.110076 
L 302.196947 295.00205 
L 302.847557 292.105178 
L 303.498167 293.392576 
L 304.148778 293.377234 
L 304.799388 292.938169 
L 305.449998 295.105264 
L 306.100608 294.349324 
L 306.751219 293.764877 
L 307.401829 294.406252 
L 308.052439 294.516787 
L 308.70305 292.956279 
L 309.35366 293.335987 
L 310.00427 294.227419 
L 310.654881 292.272176 
L 311.305491 294.543087 
L 311.956101 290.883613 
L 312.606712 292.54482 
L 313.257322 295.149942 
L 313.907932 293.03908 
L 314.558543 295.415981 
L 315.209153 294.328196 
L 315.859763 295.429777 
L 316.510373 292.495823 
L 317.160984 287.979106 
L 317.811594 294.451562 
L 318.462204 295.093282 
L 319.112815 293.351783 
L 319.763425 294.621443 
L 320.414035 294.571221 
L 321.064646 295.001986 
L 321.715256 292.764412 
L 322.365866 290.027386 
L 323.016477 293.62761 
L 323.667087 293.244618 
L 324.317697 294.773435 
L 324.968308 292.730078 
L 325.618918 295.046703 
L 326.269528 295.030831 
L 326.920138 294.863949 
L 327.570749 295.071936 
L 328.221359 292.608121 
L 328.871969 295.139803 
L 329.52258 295.343101 
L 330.17319 293.883949 
L 330.8238 295.003251 
L 331.474411 293.298983 
L 332.125021 293.907671 
L 332.775631 294.923356 
L 333.426242 294.77721 
L 334.076852 294.127649 
L 334.727462 294.576961 
L 335.378073 290.464076 
L 336.028683 291.739028 
L 336.679293 283.825869 
L 337.329903 293.932286 
L 337.980514 293.745265 
L 338.631124 290.457777 
L 339.281734 294.657348 
L 339.932345 292.462668 
L 340.582955 291.035494 
L 341.233565 295.338075 
L 341.884176 293.925518 
L 342.534786 291.843748 
L 343.185396 294.684513 
L 343.836007 295.285952 
L 344.486617 295.36778 
L 345.137227 290.811662 
L 345.787837 295.125883 
L 346.438448 295.194587 
L 347.089058 294.236513 
L 347.739668 295.442736 
L 348.390279 293.243275 
L 349.040889 294.77695 
L 349.691499 293.759321 
L 350.34211 292.208675 
L 350.99272 293.061134 
L 351.64333 295.248145 
L 352.293941 294.548118 
L 352.944551 295.101773 
L 353.595161 295.189531 
L 354.896382 295.065034 
L 355.546992 295.463258 
L 356.197602 294.81002 
L 356.848213 295.25338 
L 357.498823 294.65153 
L 358.149433 288.008257 
L 358.800044 294.568848 
L 359.450654 293.80661 
L 360.101264 294.529106 
L 360.751875 294.643039 
L 361.402485 294.462465 
L 362.053095 295.197569 
L 363.354316 292.69262 
L 364.004926 292.436199 
L 364.655537 293.54381 
L 365.306147 290.818519 
L 365.956757 292.12298 
L 366.607367 295.167207 
L 367.257978 295.402098 
L 368.559198 294.656634 
L 369.209809 294.699728 
L 369.860419 294.300167 
L 370.511029 295.268938 
L 371.16164 294.844867 
L 371.81225 290.848413 
L 372.46286 295.138039 
L 373.764081 291.504957 
L 374.414691 294.20215 
L 375.065302 292.447305 
L 375.715912 294.893991 
L 376.366522 291.34797 
L 377.017132 295.3339 
L 377.667743 289.788825 
L 378.318353 293.919463 
L 378.968963 295.028118 
L 379.619574 295.283346 
L 380.270184 294.016695 
L 380.920794 295.389331 
L 381.571405 294.434913 
L 382.222015 294.956646 
L 382.872625 292.758624 
L 383.523236 291.267366 
L 384.173846 294.708607 
L 384.824456 292.067407 
L 385.475066 294.717605 
L 386.125677 295.015715 
L 386.776287 293.77572 
L 387.426897 295.430283 
L 388.728118 293.743989 
L 389.378728 294.866478 
L 390.029339 289.389433 
L 390.679949 294.959536 
L 391.330559 295.214712 
L 391.98117 292.257251 
L 392.63178 293.889769 
L 393.28239 293.015303 
L 393.933001 295.480146 
L 394.583611 294.246851 
L 395.234221 294.635077 
L 395.884831 292.207948 
L 396.535442 295.291928 
L 397.186052 294.155282 
L 397.836662 295.230935 
L 398.487273 294.346996 
L 398.487273 294.346996 
" clip-path="url(#pcd238cbe6f)" style="fill: none; stroke: #ff7f0e; stroke-width: 1.5; stroke-linecap: square"/>
   </g>
   <g id="patch_3">
    <path d="M 57.6 307.584 
L 57.6 41.472 
" style="fill: none; stroke: #000000; stroke-width: 0.8; stroke-linejoin: miter; stroke-linecap: square"/>
   </g>
   <g id="patch_4">
    <path d="M 414.72 307.584 
L 414.72 41.472 
" style="fill: none; stroke: #000000; stroke-width: 0.8; stroke-linejoin: miter; stroke-linecap: square"/>
   </g>
   <g id="patch_5">
    <path d="M 57.6 307.584 
L 414.72 307.584 
" style="fill: none; stroke: #000000; stroke-width: 0.8; stroke-linejoin: miter; stroke-linecap: square"/>
   </g>
   <g id="patch_6">
    <path d="M 57.6 41.472 
L 414.72 41.472 
" style="fill: none; stroke: #000000; stroke-width: 0.8; stroke-linejoin: miter; stroke-linecap: square"/>
   </g>
   <g id="text_14">
    <text style="font: 12px 'DejaVu Sans', 'Bitstream Vera Sans', 'Computer Modern Sans Serif', 'Lucida Grande', 'Verdana', 'Geneva', 'Lucid', 'Arial', 'Helvetica', 'Avant Garde', sans-serif; text-anchor: middle" x="236.16" y="35.472" transform="rotate(-0 236.16 35.472)">Loss per Batch Count</text>
   </g>
   <g id="legend_1">
    <g id="patch_7">
     <path d="M 321.345 78.82825 
L 407.72 78.82825 
Q 409.72 78.82825 409.72 76.82825 
L 409.72 48.472 
Q 409.72 46.472 407.72 46.472 
L 321.345 46.472 
Q 319.345 46.472 319.345 48.472 
L 319.345 76.82825 
Q 319.345 78.82825 321.345 78.82825 
z
" style="fill: #ffffff; opacity: 0.8; stroke: #cccccc; stroke-linejoin: miter"/>
    </g>
    <g id="line2d_14">
     <path d="M 323.345 54.570437 
L 333.345 54.570437 
L 343.345 54.570437 
" style="fill: none; stroke: #1f77b4; stroke-width: 1.5; stroke-linecap: square"/>
    </g>
    <g id="text_15">
     <text style="font: 10px 'DejaVu Sans', 'Bitstream Vera Sans', 'Computer Modern Sans Serif', 'Lucida Grande', 'Verdana', 'Geneva', 'Lucid', 'Arial', 'Helvetica', 'Avant Garde', sans-serif; text-anchor: start" x="351.345" y="58.070437" transform="rotate(-0 351.345 58.070437)">Naive FDA</text>
    </g>
    <g id="line2d_15">
     <path d="M 323.345 69.248562 
L 333.345 69.248562 
L 343.345 69.248562 
" style="fill: none; stroke: #ff7f0e; stroke-width: 1.5; stroke-linecap: square"/>
    </g>
    <g id="text_16">
     <text style="font: 10px 'DejaVu Sans', 'Bitstream Vera Sans', 'Computer Modern Sans Serif', 'Lucida Grande', 'Verdana', 'Geneva', 'Lucid', 'Arial', 'Helvetica', 'Avant Garde', sans-serif; text-anchor: start" x="351.345" y="72.748562" transform="rotate(-0 351.345 72.748562)">Linear FDA</text>
    </g>
   </g>
  </g>
 </g>
 <defs>
  <clipPath id="pcd238cbe6f">
   <rect x="57.6" y="41.472" width="357.12" height="266.112"/>
  </clipPath>
 </defs>
</svg>
