<?xml version="1.0" encoding="utf-8" standalone="no"?>
<!DOCTYPE svg PUBLIC "-//W3C//DTD SVG 1.1//EN"
  "http://www.w3.org/Graphics/SVG/1.1/DTD/svg11.dtd">
<svg xmlns:xlink="http://www.w3.org/1999/xlink" width="460.8pt" height="345.6pt" viewBox="0 0 460.8 345.6" xmlns="http://www.w3.org/2000/svg" version="1.1">
 <metadata>
  <rdf:RDF xmlns:dc="http://purl.org/dc/elements/1.1/" xmlns:cc="http://creativecommons.org/ns#" xmlns:rdf="http://www.w3.org/1999/02/22-rdf-syntax-ns#">
   <cc:Work>
    <dc:type rdf:resource="http://purl.org/dc/dcmitype/StillImage"/>
    <dc:date>2023-08-23T17:35:53.259674</dc:date>
    <dc:format>image/svg+xml</dc:format>
    <dc:creator>
     <cc:Agent>
      <dc:title>Matplotlib v3.7.2, https://matplotlib.org/</dc:title>
     </cc:Agent>
    </dc:creator>
   </cc:Work>
  </rdf:RDF>
 </metadata>
 <defs>
  <style type="text/css">*{stroke-linejoin: round; stroke-linecap: butt}</style>
 </defs>
 <g id="figure_1">
  <g id="patch_1">
   <path d="M 0 345.6 
L 460.8 345.6 
L 460.8 0 
L 0 0 
z
" style="fill: #ffffff"/>
  </g>
  <g id="axes_1">
   <g id="patch_2">
    <path d="M 57.6 307.584 
L 414.72 307.584 
L 414.72 41.472 
L 57.6 41.472 
z
" style="fill: #ffffff"/>
   </g>
   <g id="matplotlib.axis_1">
    <g id="xtick_1">
     <g id="line2d_1">
      <defs>
       <path id="md2b5c47384" d="M 0 0 
L 0 3.5 
" style="stroke: #000000; stroke-width: 0.8"/>
      </defs>
      <g>
       <use xlink:href="#md2b5c47384" x="73.832727" y="307.584" style="stroke: #000000; stroke-width: 0.8"/>
      </g>
     </g>
     <g id="text_1">
      <text style="font: 10px 'DejaVu Sans', 'Bitstream Vera Sans', 'Computer Modern Sans Serif', 'Lucida Grande', 'Verdana', 'Geneva', 'Lucid', 'Arial', 'Helvetica', 'Avant Garde', sans-serif; text-anchor: middle" x="73.832727" y="322.182437" transform="rotate(-0 73.832727 322.182437)">0</text>
     </g>
    </g>
    <g id="xtick_2">
     <g id="line2d_2">
      <g>
       <use xlink:href="#md2b5c47384" x="114.577525" y="307.584" style="stroke: #000000; stroke-width: 0.8"/>
      </g>
     </g>
     <g id="text_2">
      <text style="font: 10px 'DejaVu Sans', 'Bitstream Vera Sans', 'Computer Modern Sans Serif', 'Lucida Grande', 'Verdana', 'Geneva', 'Lucid', 'Arial', 'Helvetica', 'Avant Garde', sans-serif; text-anchor: middle" x="114.577525" y="322.182437" transform="rotate(-0 114.577525 322.182437)">2500</text>
     </g>
    </g>
    <g id="xtick_3">
     <g id="line2d_3">
      <g>
       <use xlink:href="#md2b5c47384" x="155.322322" y="307.584" style="stroke: #000000; stroke-width: 0.8"/>
      </g>
     </g>
     <g id="text_3">
      <text style="font: 10px 'DejaVu Sans', 'Bitstream Vera Sans', 'Computer Modern Sans Serif', 'Lucida Grande', 'Verdana', 'Geneva', 'Lucid', 'Arial', 'Helvetica', 'Avant Garde', sans-serif; text-anchor: middle" x="155.322322" y="322.182437" transform="rotate(-0 155.322322 322.182437)">5000</text>
     </g>
    </g>
    <g id="xtick_4">
     <g id="line2d_4">
      <g>
       <use xlink:href="#md2b5c47384" x="196.067119" y="307.584" style="stroke: #000000; stroke-width: 0.8"/>
      </g>
     </g>
     <g id="text_4">
      <text style="font: 10px 'DejaVu Sans', 'Bitstream Vera Sans', 'Computer Modern Sans Serif', 'Lucida Grande', 'Verdana', 'Geneva', 'Lucid', 'Arial', 'Helvetica', 'Avant Garde', sans-serif; text-anchor: middle" x="196.067119" y="322.182437" transform="rotate(-0 196.067119 322.182437)">7500</text>
     </g>
    </g>
    <g id="xtick_5">
     <g id="line2d_5">
      <g>
       <use xlink:href="#md2b5c47384" x="236.811917" y="307.584" style="stroke: #000000; stroke-width: 0.8"/>
      </g>
     </g>
     <g id="text_5">
      <text style="font: 10px 'DejaVu Sans', 'Bitstream Vera Sans', 'Computer Modern Sans Serif', 'Lucida Grande', 'Verdana', 'Geneva', 'Lucid', 'Arial', 'Helvetica', 'Avant Garde', sans-serif; text-anchor: middle" x="236.811917" y="322.182437" transform="rotate(-0 236.811917 322.182437)">10000</text>
     </g>
    </g>
    <g id="xtick_6">
     <g id="line2d_6">
      <g>
       <use xlink:href="#md2b5c47384" x="277.556714" y="307.584" style="stroke: #000000; stroke-width: 0.8"/>
      </g>
     </g>
     <g id="text_6">
      <text style="font: 10px 'DejaVu Sans', 'Bitstream Vera Sans', 'Computer Modern Sans Serif', 'Lucida Grande', 'Verdana', 'Geneva', 'Lucid', 'Arial', 'Helvetica', 'Avant Garde', sans-serif; text-anchor: middle" x="277.556714" y="322.182437" transform="rotate(-0 277.556714 322.182437)">12500</text>
     </g>
    </g>
    <g id="xtick_7">
     <g id="line2d_7">
      <g>
       <use xlink:href="#md2b5c47384" x="318.301512" y="307.584" style="stroke: #000000; stroke-width: 0.8"/>
      </g>
     </g>
     <g id="text_7">
      <text style="font: 10px 'DejaVu Sans', 'Bitstream Vera Sans', 'Computer Modern Sans Serif', 'Lucida Grande', 'Verdana', 'Geneva', 'Lucid', 'Arial', 'Helvetica', 'Avant Garde', sans-serif; text-anchor: middle" x="318.301512" y="322.182437" transform="rotate(-0 318.301512 322.182437)">15000</text>
     </g>
    </g>
    <g id="xtick_8">
     <g id="line2d_8">
      <g>
       <use xlink:href="#md2b5c47384" x="359.046309" y="307.584" style="stroke: #000000; stroke-width: 0.8"/>
      </g>
     </g>
     <g id="text_8">
      <text style="font: 10px 'DejaVu Sans', 'Bitstream Vera Sans', 'Computer Modern Sans Serif', 'Lucida Grande', 'Verdana', 'Geneva', 'Lucid', 'Arial', 'Helvetica', 'Avant Garde', sans-serif; text-anchor: middle" x="359.046309" y="322.182437" transform="rotate(-0 359.046309 322.182437)">17500</text>
     </g>
    </g>
    <g id="xtick_9">
     <g id="line2d_9">
      <g>
       <use xlink:href="#md2b5c47384" x="399.791106" y="307.584" style="stroke: #000000; stroke-width: 0.8"/>
      </g>
     </g>
     <g id="text_9">
      <text style="font: 10px 'DejaVu Sans', 'Bitstream Vera Sans', 'Computer Modern Sans Serif', 'Lucida Grande', 'Verdana', 'Geneva', 'Lucid', 'Arial', 'Helvetica', 'Avant Garde', sans-serif; text-anchor: middle" x="399.791106" y="322.182437" transform="rotate(-0 399.791106 322.182437)">20000</text>
     </g>
    </g>
    <g id="text_10">
     <text style="font: 10px 'DejaVu Sans', 'Bitstream Vera Sans', 'Computer Modern Sans Serif', 'Lucida Grande', 'Verdana', 'Geneva', 'Lucid', 'Arial', 'Helvetica', 'Avant Garde', sans-serif; text-anchor: middle" x="236.16" y="335.860562" transform="rotate(-0 236.16 335.860562)">Steps / Batch Count</text>
    </g>
   </g>
   <g id="matplotlib.axis_2">
    <g id="ytick_1">
     <g id="line2d_10">
      <defs>
       <path id="m98be555543" d="M 0 0 
L -3.5 0 
" style="stroke: #000000; stroke-width: 0.8"/>
      </defs>
      <g>
       <use xlink:href="#m98be555543" x="57.6" y="295.49206" style="stroke: #000000; stroke-width: 0.8"/>
      </g>
     </g>
     <g id="text_11">
      <text style="font: 10px 'DejaVu Sans', 'Bitstream Vera Sans', 'Computer Modern Sans Serif', 'Lucida Grande', 'Verdana', 'Geneva', 'Lucid', 'Arial', 'Helvetica', 'Avant Garde', sans-serif; text-anchor: end" x="50.6" y="299.291279" transform="rotate(-0 50.6 299.291279)">0.0</text>
     </g>
    </g>
    <g id="ytick_2">
     <g id="line2d_11">
      <g>
       <use xlink:href="#m98be555543" x="57.6" y="243.018013" style="stroke: #000000; stroke-width: 0.8"/>
      </g>
     </g>
     <g id="text_12">
      <text style="font: 10px 'DejaVu Sans', 'Bitstream Vera Sans', 'Computer Modern Sans Serif', 'Lucida Grande', 'Verdana', 'Geneva', 'Lucid', 'Arial', 'Helvetica', 'Avant Garde', sans-serif; text-anchor: end" x="50.6" y="246.817232" transform="rotate(-0 50.6 246.817232)">0.5</text>
     </g>
    </g>
    <g id="ytick_3">
     <g id="line2d_12">
      <g>
       <use xlink:href="#m98be555543" x="57.6" y="190.543965" style="stroke: #000000; stroke-width: 0.8"/>
      </g>
     </g>
     <g id="text_13">
      <text style="font: 10px 'DejaVu Sans', 'Bitstream Vera Sans', 'Computer Modern Sans Serif', 'Lucida Grande', 'Verdana', 'Geneva', 'Lucid', 'Arial', 'Helvetica', 'Avant Garde', sans-serif; text-anchor: end" x="50.6" y="194.343184" transform="rotate(-0 50.6 194.343184)">1.0</text>
     </g>
    </g>
    <g id="ytick_4">
     <g id="line2d_13">
      <g>
       <use xlink:href="#m98be555543" x="57.6" y="138.069918" style="stroke: #000000; stroke-width: 0.8"/>
      </g>
     </g>
     <g id="text_14">
      <text style="font: 10px 'DejaVu Sans', 'Bitstream Vera Sans', 'Computer Modern Sans Serif', 'Lucida Grande', 'Verdana', 'Geneva', 'Lucid', 'Arial', 'Helvetica', 'Avant Garde', sans-serif; text-anchor: end" x="50.6" y="141.869137" transform="rotate(-0 50.6 141.869137)">1.5</text>
     </g>
    </g>
    <g id="ytick_5">
     <g id="line2d_14">
      <g>
       <use xlink:href="#m98be555543" x="57.6" y="85.595871" style="stroke: #000000; stroke-width: 0.8"/>
      </g>
     </g>
     <g id="text_15">
      <text style="font: 10px 'DejaVu Sans', 'Bitstream Vera Sans', 'Computer Modern Sans Serif', 'Lucida Grande', 'Verdana', 'Geneva', 'Lucid', 'Arial', 'Helvetica', 'Avant Garde', sans-serif; text-anchor: end" x="50.6" y="89.395089" transform="rotate(-0 50.6 89.395089)">2.0</text>
     </g>
    </g>
    <g id="text_16">
     <text style="font: 10px 'DejaVu Sans', 'Bitstream Vera Sans', 'Computer Modern Sans Serif', 'Lucida Grande', 'Verdana', 'Geneva', 'Lucid', 'Arial', 'Helvetica', 'Avant Garde', sans-serif; text-anchor: middle" x="28.617188" y="174.528" transform="rotate(-90 28.617188 174.528)">Loss</text>
    </g>
   </g>
   <g id="line2d_15">
    <path d="M 73.832727 53.568 
L 75.136561 217.430765 
L 76.440394 248.328164 
L 77.744228 260.27139 
L 79.048061 242.139734 
L 80.351895 280.325063 
L 81.655728 275.773254 
L 82.959562 280.563389 
L 84.263395 276.80556 
L 85.567229 284.733422 
L 86.871062 283.863559 
L 88.174896 261.487146 
L 89.478729 288.927927 
L 90.782563 280.903151 
L 92.086396 279.612652 
L 93.39023 279.530337 
L 94.694064 291.578318 
L 95.997897 291.728959 
L 97.301731 283.310349 
L 98.605564 285.633844 
L 99.909398 289.492605 
L 101.213231 288.754582 
L 102.517065 279.919485 
L 103.820898 285.616549 
L 105.124732 286.086306 
L 106.428565 294.291513 
L 107.732399 286.425652 
L 109.036232 286.884778 
L 110.340066 284.886865 
L 111.643899 287.163542 
L 112.947733 291.148423 
L 115.5554 288.262483 
L 116.859233 290.481943 
L 118.163067 291.978502 
L 119.4669 290.574261 
L 120.770734 292.082567 
L 122.074567 282.708728 
L 123.378401 288.15366 
L 124.682234 287.983335 
L 125.986068 291.405273 
L 127.289901 287.764452 
L 128.593735 292.091198 
L 129.897568 290.824198 
L 131.201402 289.811143 
L 132.505235 291.073349 
L 133.809069 288.938527 
L 135.112903 277.354517 
L 136.416736 294.284925 
L 137.72057 293.538674 
L 139.024403 294.691176 
L 140.328237 291.484992 
L 141.63207 290.036217 
L 142.935904 286.705901 
L 144.239737 286.35361 
L 145.543571 292.12077 
L 146.847404 293.70455 
L 148.151238 294.755979 
L 149.455071 291.188987 
L 150.758905 290.364582 
L 152.062738 292.668703 
L 153.366572 284.029574 
L 154.670405 291.871025 
L 155.974239 290.698084 
L 157.278072 288.295578 
L 158.581906 291.174477 
L 159.885739 293.714935 
L 161.189573 293.552111 
L 162.493406 290.832944 
L 163.79724 294.078306 
L 165.101073 294.677914 
L 166.404907 291.734645 
L 167.70874 294.078778 
L 169.012574 290.848333 
L 170.316407 292.665569 
L 171.620241 292.888565 
L 172.924074 293.419487 
L 174.227908 292.90955 
L 175.531742 292.025177 
L 176.835575 290.868692 
L 178.139409 293.032489 
L 179.443242 291.824825 
L 180.747076 294.088166 
L 182.050909 291.459552 
L 183.354743 291.536116 
L 184.658576 290.568654 
L 185.96241 287.834245 
L 187.266243 285.379882 
L 188.570077 294.766933 
L 189.87391 292.491474 
L 191.177744 294.176487 
L 192.481577 291.378769 
L 193.785411 286.530708 
L 195.089244 291.878936 
L 196.393078 291.993747 
L 197.696911 294.75916 
L 199.000745 292.73399 
L 200.304578 291.891696 
L 201.608412 293.6843 
L 202.912245 294.843509 
L 204.216079 294.130681 
L 205.519912 294.730545 
L 206.823746 294.548932 
L 208.127579 291.974716 
L 209.431413 294.817241 
L 210.735246 294.511454 
L 212.03908 293.141077 
L 213.342913 292.097001 
L 214.646747 294.508585 
L 215.950581 294.091231 
L 217.254414 294.548771 
L 218.558248 292.688617 
L 219.862081 292.757463 
L 221.165915 294.288381 
L 222.469748 294.158064 
L 223.773582 293.893509 
L 225.077415 292.913343 
L 226.381249 294.782679 
L 227.685082 294.437705 
L 228.988916 292.678947 
L 230.292749 291.255468 
L 231.596583 294.154197 
L 232.900416 291.157053 
L 234.20425 290.709165 
L 235.508083 294.481514 
L 236.811917 294.491003 
L 238.11575 295.305782 
L 239.419584 294.015822 
L 240.723417 292.209205 
L 242.027251 293.346947 
L 243.331084 294.074355 
L 244.634918 295.05585 
L 245.938751 293.013477 
L 247.242585 292.411065 
L 248.546418 290.582976 
L 249.850252 294.452912 
L 251.154085 292.240611 
L 252.457919 292.348063 
L 253.761752 288.290908 
L 255.065586 295.116406 
L 256.369419 293.492108 
L 257.673253 294.531337 
L 258.977087 286.256594 
L 260.28092 287.732917 
L 261.584754 292.792642 
L 262.888587 288.393954 
L 264.192421 295.10848 
L 265.496254 288.667471 
L 266.800088 295.430062 
L 268.103921 290.21831 
L 269.407755 294.072704 
L 270.711588 292.716021 
L 272.015422 290.672734 
L 273.319255 294.099571 
L 274.623089 292.405559 
L 275.926922 295.179068 
L 277.230756 292.489191 
L 278.534589 293.919599 
L 279.838423 293.537682 
L 281.142256 294.717101 
L 282.44609 291.470991 
L 283.749923 291.585152 
L 285.053757 290.502722 
L 286.35759 294.518401 
L 287.661424 292.583974 
L 288.965257 294.911287 
L 290.269091 293.245764 
L 291.572924 295.291897 
L 292.876758 293.842408 
L 294.180591 294.713344 
L 295.484425 292.349306 
L 296.788258 294.416376 
L 298.092092 290.384344 
L 299.395926 293.559339 
L 300.699759 293.96675 
L 302.003593 295.379093 
L 303.307426 293.49508 
L 304.61126 290.620884 
L 305.915093 295.18594 
L 307.218927 292.103535 
L 308.52276 294.911138 
L 309.826594 293.838575 
L 311.130427 294.944733 
L 312.434261 290.827031 
L 313.738094 295.269441 
L 315.041928 293.854267 
L 316.345761 294.52149 
L 317.649595 294.637688 
L 318.953428 294.172197 
L 320.257262 295.309525 
L 321.561095 295.462997 
L 322.864929 290.574564 
L 324.168762 293.90459 
L 325.472596 295.186638 
L 326.776429 292.390817 
L 328.080263 295.097911 
L 329.384096 295.04166 
L 330.68793 295.253227 
L 331.991763 291.129789 
L 333.295597 295.167144 
L 334.59943 295.119788 
L 335.903264 292.567567 
L 337.207097 294.836884 
L 339.814765 294.102379 
L 341.118598 290.93743 
L 342.422432 289.892279 
L 343.726265 294.319039 
L 345.030099 294.718425 
L 346.333932 289.678167 
L 347.637766 295.128222 
L 348.941599 293.596558 
L 350.245433 294.700791 
L 352.8531 293.264667 
L 354.156933 288.473701 
L 355.460767 293.460275 
L 356.7646 295.231621 
L 358.068434 294.285453 
L 359.372267 293.159855 
L 360.676101 295.063088 
L 361.979934 294.944056 
L 363.283768 295.179574 
L 364.587601 290.969667 
L 365.891435 294.22627 
L 368.499102 295.38627 
L 371.106769 294.812621 
L 373.714436 294.185941 
L 375.018269 286.720499 
L 376.322103 295.449119 
L 377.625936 293.252797 
L 378.92977 291.948822 
L 380.233604 292.502035 
L 381.537437 295.0474 
L 382.841271 295.434671 
L 384.145104 294.708767 
L 385.448938 293.160862 
L 386.752771 295.176737 
L 388.056605 293.357741 
L 389.360438 295.476309 
L 390.664272 295.196481 
L 391.968105 294.6903 
L 393.271939 294.652668 
L 394.575772 292.94492 
L 395.879606 293.686934 
L 397.183439 295.168405 
L 398.487273 295.472326 
L 398.487273 295.472326 
" clip-path="url(#p9f6c6edda4)" style="fill: none; stroke: #1f77b4; stroke-width: 1.5; stroke-linecap: square"/>
   </g>
   <g id="line2d_16">
    <path d="M 73.832727 55.698719 
L 75.136561 225.91352 
L 76.440394 249.128235 
L 77.744228 249.894846 
L 79.048061 272.457138 
L 80.351895 266.418804 
L 81.655728 274.915247 
L 82.959562 272.487142 
L 84.263395 273.544507 
L 85.567229 288.576866 
L 86.871062 282.987064 
L 88.174896 274.926333 
L 89.478729 290.839928 
L 90.782563 285.772201 
L 92.086396 279.027161 
L 93.39023 286.687759 
L 94.694064 279.939933 
L 95.997897 278.416937 
L 97.301731 275.045282 
L 98.605564 279.737714 
L 99.909398 284.999506 
L 101.213231 290.815575 
L 102.517065 280.658898 
L 103.820898 291.636984 
L 105.124732 289.564772 
L 106.428565 279.511708 
L 107.732399 292.788501 
L 109.036232 294.266168 
L 110.340066 273.254681 
L 111.643899 287.108111 
L 112.947733 290.514449 
L 114.251566 289.805443 
L 115.5554 291.244463 
L 116.859233 288.719963 
L 118.163067 287.040409 
L 119.4669 281.645149 
L 120.770734 289.247072 
L 122.074567 290.94048 
L 123.378401 289.627924 
L 124.682234 292.422023 
L 127.289901 291.996124 
L 128.593735 292.226514 
L 129.897568 289.352639 
L 131.201402 292.531498 
L 132.505235 291.289755 
L 133.809069 292.534264 
L 135.112903 293.315303 
L 136.416736 293.268245 
L 137.72057 290.396126 
L 139.024403 292.401863 
L 140.328237 292.477602 
L 141.63207 287.224362 
L 142.935904 294.406604 
L 144.239737 294.245554 
L 145.543571 289.09738 
L 146.847404 290.125282 
L 148.151238 292.282118 
L 149.455071 293.015883 
L 150.758905 293.904458 
L 152.062738 291.632256 
L 153.366572 294.563048 
L 154.670405 294.09506 
L 155.974239 291.050949 
L 157.278072 292.127426 
L 158.581906 289.276944 
L 159.885739 293.341234 
L 161.189573 293.919805 
L 162.493406 293.662882 
L 163.79724 294.770156 
L 165.101073 289.665556 
L 166.404907 292.818064 
L 167.70874 293.405232 
L 169.012574 294.860778 
L 170.316407 285.256015 
L 171.620241 293.173584 
L 172.924074 290.058641 
L 174.227908 293.558337 
L 175.531742 288.180202 
L 176.835575 293.257617 
L 178.139409 292.046066 
L 179.443242 290.359987 
L 180.747076 291.291444 
L 182.050909 292.695332 
L 183.354743 291.228739 
L 184.658576 293.260228 
L 185.96241 293.412446 
L 187.266243 294.899133 
L 188.570077 294.624618 
L 189.87391 292.150993 
L 191.177744 291.918964 
L 192.481577 285.303615 
L 193.785411 291.833224 
L 195.089244 294.296084 
L 197.696911 290.612374 
L 199.000745 294.611854 
L 200.304578 293.69036 
L 201.608412 291.714398 
L 202.912245 293.324191 
L 204.216079 292.462303 
L 205.519912 295.352287 
L 206.823746 292.752661 
L 208.127579 295.089181 
L 209.431413 294.568906 
L 210.735246 293.277592 
L 212.03908 292.634671 
L 213.342913 295.22786 
L 214.646747 291.735119 
L 215.950581 294.308409 
L 217.254414 288.946431 
L 218.558248 293.99544 
L 219.862081 295.109558 
L 221.165915 291.099099 
L 222.469748 291.91442 
L 223.773582 294.64631 
L 225.077415 285.74934 
L 226.381249 295.334439 
L 227.685082 294.514955 
L 228.988916 293.390419 
L 230.292749 293.585499 
L 231.596583 289.258226 
L 232.900416 293.555904 
L 234.20425 293.516384 
L 235.508083 291.145457 
L 236.811917 293.06619 
L 238.11575 293.880977 
L 239.419584 294.85687 
L 240.723417 293.739903 
L 242.027251 295.120071 
L 243.331084 285.182146 
L 244.634918 295.17409 
L 245.938751 293.510014 
L 247.242585 294.651319 
L 248.546418 293.905361 
L 249.850252 292.657444 
L 251.154085 295.184081 
L 252.457919 295.24684 
L 253.761752 294.83468 
L 255.065586 293.785432 
L 256.369419 294.887088 
L 257.673253 292.660777 
L 258.977087 293.806374 
L 260.28092 294.54745 
L 261.584754 294.563778 
L 262.888587 295.211096 
L 264.192421 295.408019 
L 265.496254 290.794851 
L 266.800088 294.22827 
L 268.103921 294.927969 
L 269.407755 295.076296 
L 270.711588 294.158103 
L 272.015422 294.969587 
L 273.319255 293.645266 
L 274.623089 294.580264 
L 275.926922 290.326731 
L 277.230756 295.242115 
L 278.534589 293.403861 
L 279.838423 294.334141 
L 281.142256 294.566051 
L 282.44609 291.527461 
L 283.749923 294.00608 
L 285.053757 295.091189 
L 286.35759 294.485824 
L 287.661424 295.046414 
L 288.965257 290.983349 
L 290.269091 295.398615 
L 291.572924 284.382225 
L 292.876758 295.043372 
L 294.180591 285.590561 
L 295.484425 292.845956 
L 296.788258 292.544628 
L 298.092092 294.223738 
L 299.395926 293.581793 
L 300.699759 295.401572 
L 302.003593 294.878006 
L 303.307426 291.645037 
L 304.61126 293.180544 
L 305.915093 295.319834 
L 307.218927 291.613997 
L 308.52276 294.87433 
L 309.826594 294.89058 
L 311.130427 291.369244 
L 312.434261 295.379081 
L 313.738094 294.098069 
L 315.041928 294.438363 
L 316.345761 293.824174 
L 317.649595 295.009277 
L 318.953428 293.440148 
L 320.257262 295.044227 
L 321.561095 295.363642 
L 322.864929 294.769982 
L 324.168762 295.053831 
L 325.472596 294.636706 
L 326.776429 294.620606 
L 328.080263 294.014183 
L 329.384096 295.341386 
L 331.991763 295.431316 
L 333.295597 290.6324 
L 334.59943 293.825054 
L 335.903264 294.345668 
L 337.207097 295.061606 
L 338.510931 295.043003 
L 339.814765 294.887147 
L 341.118598 295.244123 
L 342.422432 295.28874 
L 343.726265 294.605619 
L 345.030099 292.729626 
L 346.333932 291.086006 
L 347.637766 295.367533 
L 348.941599 294.189848 
L 350.245433 294.046353 
L 351.549266 295.334098 
L 352.8531 294.607829 
L 354.156933 289.865685 
L 355.460767 295.273375 
L 356.7646 292.540625 
L 358.068434 294.790392 
L 359.372267 291.063392 
L 360.676101 292.243698 
L 361.979934 293.869204 
L 363.283768 291.023597 
L 364.587601 293.538358 
L 365.891435 290.648429 
L 367.195268 292.112611 
L 368.499102 294.974823 
L 369.802935 295.205606 
L 371.106769 295.183601 
L 372.410602 293.01588 
L 373.714436 295.454207 
L 375.018269 294.834374 
L 376.322103 295.488 
L 377.625936 295.312449 
L 378.92977 295.314018 
L 380.233604 292.727736 
L 381.537437 295.030899 
L 382.841271 295.184173 
L 384.145104 294.870458 
L 388.056605 294.240277 
L 389.360438 295.423852 
L 390.664272 294.018918 
L 391.968105 292.999305 
L 393.271939 289.384865 
L 394.575772 288.428559 
L 395.879606 294.985324 
L 397.183439 294.576198 
L 398.487273 295.258931 
L 398.487273 295.258931 
" clip-path="url(#p9f6c6edda4)" style="fill: none; stroke: #ff7f0e; stroke-width: 1.5; stroke-linecap: square"/>
   </g>
   <g id="patch_3">
    <path d="M 57.6 307.584 
L 57.6 41.472 
" style="fill: none; stroke: #000000; stroke-width: 0.8; stroke-linejoin: miter; stroke-linecap: square"/>
   </g>
   <g id="patch_4">
    <path d="M 414.72 307.584 
L 414.72 41.472 
" style="fill: none; stroke: #000000; stroke-width: 0.8; stroke-linejoin: miter; stroke-linecap: square"/>
   </g>
   <g id="patch_5">
    <path d="M 57.6 307.584 
L 414.72 307.584 
" style="fill: none; stroke: #000000; stroke-width: 0.8; stroke-linejoin: miter; stroke-linecap: square"/>
   </g>
   <g id="patch_6">
    <path d="M 57.6 41.472 
L 414.72 41.472 
" style="fill: none; stroke: #000000; stroke-width: 0.8; stroke-linejoin: miter; stroke-linecap: square"/>
   </g>
   <g id="text_17">
    <text style="font: 12px 'DejaVu Sans', 'Bitstream Vera Sans', 'Computer Modern Sans Serif', 'Lucida Grande', 'Verdana', 'Geneva', 'Lucid', 'Arial', 'Helvetica', 'Avant Garde', sans-serif; text-anchor: middle" x="236.16" y="35.472" transform="rotate(-0 236.16 35.472)">Loss per Batch Count</text>
   </g>
   <g id="legend_1">
    <g id="patch_7">
     <path d="M 321.345 78.82825 
L 407.72 78.82825 
Q 409.72 78.82825 409.72 76.82825 
L 409.72 48.472 
Q 409.72 46.472 407.72 46.472 
L 321.345 46.472 
Q 319.345 46.472 319.345 48.472 
L 319.345 76.82825 
Q 319.345 78.82825 321.345 78.82825 
z
" style="fill: #ffffff; opacity: 0.8; stroke: #cccccc; stroke-linejoin: miter"/>
    </g>
    <g id="line2d_17">
     <path d="M 323.345 54.570437 
L 333.345 54.570437 
L 343.345 54.570437 
" style="fill: none; stroke: #1f77b4; stroke-width: 1.5; stroke-linecap: square"/>
    </g>
    <g id="text_18">
     <text style="font: 10px 'DejaVu Sans', 'Bitstream Vera Sans', 'Computer Modern Sans Serif', 'Lucida Grande', 'Verdana', 'Geneva', 'Lucid', 'Arial', 'Helvetica', 'Avant Garde', sans-serif; text-anchor: start" x="351.345" y="58.070437" transform="rotate(-0 351.345 58.070437)">Naive FDA</text>
    </g>
    <g id="line2d_18">
     <path d="M 323.345 69.248562 
L 333.345 69.248562 
L 343.345 69.248562 
" style="fill: none; stroke: #ff7f0e; stroke-width: 1.5; stroke-linecap: square"/>
    </g>
    <g id="text_19">
     <text style="font: 10px 'DejaVu Sans', 'Bitstream Vera Sans', 'Computer Modern Sans Serif', 'Lucida Grande', 'Verdana', 'Geneva', 'Lucid', 'Arial', 'Helvetica', 'Avant Garde', sans-serif; text-anchor: start" x="351.345" y="72.748562" transform="rotate(-0 351.345 72.748562)">Linear FDA</text>
    </g>
   </g>
  </g>
 </g>
 <defs>
  <clipPath id="p9f6c6edda4">
   <rect x="57.6" y="41.472" width="357.12" height="266.112"/>
  </clipPath>
 </defs>
</svg>
