<?xml version="1.0" encoding="utf-8" standalone="no"?>
<!DOCTYPE svg PUBLIC "-//W3C//DTD SVG 1.1//EN"
  "http://www.w3.org/Graphics/SVG/1.1/DTD/svg11.dtd">
<svg xmlns:xlink="http://www.w3.org/1999/xlink" width="460.8pt" height="345.6pt" viewBox="0 0 460.8 345.6" xmlns="http://www.w3.org/2000/svg" version="1.1">
 <metadata>
  <rdf:RDF xmlns:dc="http://purl.org/dc/elements/1.1/" xmlns:cc="http://creativecommons.org/ns#" xmlns:rdf="http://www.w3.org/1999/02/22-rdf-syntax-ns#">
   <cc:Work>
    <dc:type rdf:resource="http://purl.org/dc/dcmitype/StillImage"/>
    <dc:date>2023-08-23T15:56:36.681434</dc:date>
    <dc:format>image/svg+xml</dc:format>
    <dc:creator>
     <cc:Agent>
      <dc:title>Matplotlib v3.7.2, https://matplotlib.org/</dc:title>
     </cc:Agent>
    </dc:creator>
   </cc:Work>
  </rdf:RDF>
 </metadata>
 <defs>
  <style type="text/css">*{stroke-linejoin: round; stroke-linecap: butt}</style>
 </defs>
 <g id="figure_1">
  <g id="patch_1">
   <path d="M 0 345.6 
L 460.8 345.6 
L 460.8 0 
L 0 0 
z
" style="fill: #ffffff"/>
  </g>
  <g id="axes_1">
   <g id="patch_2">
    <path d="M 57.6 307.584 
L 414.72 307.584 
L 414.72 41.472 
L 57.6 41.472 
z
" style="fill: #ffffff"/>
   </g>
   <g id="matplotlib.axis_1">
    <g id="xtick_1">
     <g id="line2d_1">
      <defs>
       <path id="mcfb07e9263" d="M 0 0 
L 0 3.5 
" style="stroke: #000000; stroke-width: 0.8"/>
      </defs>
      <g>
       <use xlink:href="#mcfb07e9263" x="73.832727" y="307.584" style="stroke: #000000; stroke-width: 0.8"/>
      </g>
     </g>
     <g id="text_1">
      <text style="font: 10px 'DejaVu Sans', 'Bitstream Vera Sans', 'Computer Modern Sans Serif', 'Lucida Grande', 'Verdana', 'Geneva', 'Lucid', 'Arial', 'Helvetica', 'Avant Garde', sans-serif; text-anchor: middle" x="73.832727" y="322.182437" transform="rotate(-0 73.832727 322.182437)">0</text>
     </g>
    </g>
    <g id="xtick_2">
     <g id="line2d_2">
      <g>
       <use xlink:href="#mcfb07e9263" x="114.495872" y="307.584" style="stroke: #000000; stroke-width: 0.8"/>
      </g>
     </g>
     <g id="text_2">
      <text style="font: 10px 'DejaVu Sans', 'Bitstream Vera Sans', 'Computer Modern Sans Serif', 'Lucida Grande', 'Verdana', 'Geneva', 'Lucid', 'Arial', 'Helvetica', 'Avant Garde', sans-serif; text-anchor: middle" x="114.495872" y="322.182437" transform="rotate(-0 114.495872 322.182437)">2500</text>
     </g>
    </g>
    <g id="xtick_3">
     <g id="line2d_3">
      <g>
       <use xlink:href="#mcfb07e9263" x="155.159016" y="307.584" style="stroke: #000000; stroke-width: 0.8"/>
      </g>
     </g>
     <g id="text_3">
      <text style="font: 10px 'DejaVu Sans', 'Bitstream Vera Sans', 'Computer Modern Sans Serif', 'Lucida Grande', 'Verdana', 'Geneva', 'Lucid', 'Arial', 'Helvetica', 'Avant Garde', sans-serif; text-anchor: middle" x="155.159016" y="322.182437" transform="rotate(-0 155.159016 322.182437)">5000</text>
     </g>
    </g>
    <g id="xtick_4">
     <g id="line2d_4">
      <g>
       <use xlink:href="#mcfb07e9263" x="195.822161" y="307.584" style="stroke: #000000; stroke-width: 0.8"/>
      </g>
     </g>
     <g id="text_4">
      <text style="font: 10px 'DejaVu Sans', 'Bitstream Vera Sans', 'Computer Modern Sans Serif', 'Lucida Grande', 'Verdana', 'Geneva', 'Lucid', 'Arial', 'Helvetica', 'Avant Garde', sans-serif; text-anchor: middle" x="195.822161" y="322.182437" transform="rotate(-0 195.822161 322.182437)">7500</text>
     </g>
    </g>
    <g id="xtick_5">
     <g id="line2d_5">
      <g>
       <use xlink:href="#mcfb07e9263" x="236.485305" y="307.584" style="stroke: #000000; stroke-width: 0.8"/>
      </g>
     </g>
     <g id="text_5">
      <text style="font: 10px 'DejaVu Sans', 'Bitstream Vera Sans', 'Computer Modern Sans Serif', 'Lucida Grande', 'Verdana', 'Geneva', 'Lucid', 'Arial', 'Helvetica', 'Avant Garde', sans-serif; text-anchor: middle" x="236.485305" y="322.182437" transform="rotate(-0 236.485305 322.182437)">10000</text>
     </g>
    </g>
    <g id="xtick_6">
     <g id="line2d_6">
      <g>
       <use xlink:href="#mcfb07e9263" x="277.14845" y="307.584" style="stroke: #000000; stroke-width: 0.8"/>
      </g>
     </g>
     <g id="text_6">
      <text style="font: 10px 'DejaVu Sans', 'Bitstream Vera Sans', 'Computer Modern Sans Serif', 'Lucida Grande', 'Verdana', 'Geneva', 'Lucid', 'Arial', 'Helvetica', 'Avant Garde', sans-serif; text-anchor: middle" x="277.14845" y="322.182437" transform="rotate(-0 277.14845 322.182437)">12500</text>
     </g>
    </g>
    <g id="xtick_7">
     <g id="line2d_7">
      <g>
       <use xlink:href="#mcfb07e9263" x="317.811594" y="307.584" style="stroke: #000000; stroke-width: 0.8"/>
      </g>
     </g>
     <g id="text_7">
      <text style="font: 10px 'DejaVu Sans', 'Bitstream Vera Sans', 'Computer Modern Sans Serif', 'Lucida Grande', 'Verdana', 'Geneva', 'Lucid', 'Arial', 'Helvetica', 'Avant Garde', sans-serif; text-anchor: middle" x="317.811594" y="322.182437" transform="rotate(-0 317.811594 322.182437)">15000</text>
     </g>
    </g>
    <g id="xtick_8">
     <g id="line2d_8">
      <g>
       <use xlink:href="#mcfb07e9263" x="358.474739" y="307.584" style="stroke: #000000; stroke-width: 0.8"/>
      </g>
     </g>
     <g id="text_8">
      <text style="font: 10px 'DejaVu Sans', 'Bitstream Vera Sans', 'Computer Modern Sans Serif', 'Lucida Grande', 'Verdana', 'Geneva', 'Lucid', 'Arial', 'Helvetica', 'Avant Garde', sans-serif; text-anchor: middle" x="358.474739" y="322.182437" transform="rotate(-0 358.474739 322.182437)">17500</text>
     </g>
    </g>
    <g id="xtick_9">
     <g id="line2d_9">
      <g>
       <use xlink:href="#mcfb07e9263" x="399.137883" y="307.584" style="stroke: #000000; stroke-width: 0.8"/>
      </g>
     </g>
     <g id="text_9">
      <text style="font: 10px 'DejaVu Sans', 'Bitstream Vera Sans', 'Computer Modern Sans Serif', 'Lucida Grande', 'Verdana', 'Geneva', 'Lucid', 'Arial', 'Helvetica', 'Avant Garde', sans-serif; text-anchor: middle" x="399.137883" y="322.182437" transform="rotate(-0 399.137883 322.182437)">20000</text>
     </g>
    </g>
    <g id="text_10">
     <text style="font: 10px 'DejaVu Sans', 'Bitstream Vera Sans', 'Computer Modern Sans Serif', 'Lucida Grande', 'Verdana', 'Geneva', 'Lucid', 'Arial', 'Helvetica', 'Avant Garde', sans-serif; text-anchor: middle" x="236.16" y="335.860562" transform="rotate(-0 236.16 335.860562)">Steps / Batch Count</text>
    </g>
   </g>
   <g id="matplotlib.axis_2">
    <g id="ytick_1">
     <g id="line2d_10">
      <defs>
       <path id="meb915669a3" d="M 0 0 
L -3.5 0 
" style="stroke: #000000; stroke-width: 0.8"/>
      </defs>
      <g>
       <use xlink:href="#meb915669a3" x="57.6" y="295.501397" style="stroke: #000000; stroke-width: 0.8"/>
      </g>
     </g>
     <g id="text_11">
      <text style="font: 10px 'DejaVu Sans', 'Bitstream Vera Sans', 'Computer Modern Sans Serif', 'Lucida Grande', 'Verdana', 'Geneva', 'Lucid', 'Arial', 'Helvetica', 'Avant Garde', sans-serif; text-anchor: end" x="50.6" y="299.300616" transform="rotate(-0 50.6 299.300616)">0.0</text>
     </g>
    </g>
    <g id="ytick_2">
     <g id="line2d_11">
      <g>
       <use xlink:href="#meb915669a3" x="57.6" y="242.807148" style="stroke: #000000; stroke-width: 0.8"/>
      </g>
     </g>
     <g id="text_12">
      <text style="font: 10px 'DejaVu Sans', 'Bitstream Vera Sans', 'Computer Modern Sans Serif', 'Lucida Grande', 'Verdana', 'Geneva', 'Lucid', 'Arial', 'Helvetica', 'Avant Garde', sans-serif; text-anchor: end" x="50.6" y="246.606367" transform="rotate(-0 50.6 246.606367)">0.5</text>
     </g>
    </g>
    <g id="ytick_3">
     <g id="line2d_12">
      <g>
       <use xlink:href="#meb915669a3" x="57.6" y="190.112899" style="stroke: #000000; stroke-width: 0.8"/>
      </g>
     </g>
     <g id="text_13">
      <text style="font: 10px 'DejaVu Sans', 'Bitstream Vera Sans', 'Computer Modern Sans Serif', 'Lucida Grande', 'Verdana', 'Geneva', 'Lucid', 'Arial', 'Helvetica', 'Avant Garde', sans-serif; text-anchor: end" x="50.6" y="193.912118" transform="rotate(-0 50.6 193.912118)">1.0</text>
     </g>
    </g>
    <g id="ytick_4">
     <g id="line2d_13">
      <g>
       <use xlink:href="#meb915669a3" x="57.6" y="137.418651" style="stroke: #000000; stroke-width: 0.8"/>
      </g>
     </g>
     <g id="text_14">
      <text style="font: 10px 'DejaVu Sans', 'Bitstream Vera Sans', 'Computer Modern Sans Serif', 'Lucida Grande', 'Verdana', 'Geneva', 'Lucid', 'Arial', 'Helvetica', 'Avant Garde', sans-serif; text-anchor: end" x="50.6" y="141.217869" transform="rotate(-0 50.6 141.217869)">1.5</text>
     </g>
    </g>
    <g id="ytick_5">
     <g id="line2d_14">
      <g>
       <use xlink:href="#meb915669a3" x="57.6" y="84.724402" style="stroke: #000000; stroke-width: 0.8"/>
      </g>
     </g>
     <g id="text_15">
      <text style="font: 10px 'DejaVu Sans', 'Bitstream Vera Sans', 'Computer Modern Sans Serif', 'Lucida Grande', 'Verdana', 'Geneva', 'Lucid', 'Arial', 'Helvetica', 'Avant Garde', sans-serif; text-anchor: end" x="50.6" y="88.523621" transform="rotate(-0 50.6 88.523621)">2.0</text>
     </g>
    </g>
    <g id="text_16">
     <text style="font: 10px 'DejaVu Sans', 'Bitstream Vera Sans', 'Computer Modern Sans Serif', 'Lucida Grande', 'Verdana', 'Geneva', 'Lucid', 'Arial', 'Helvetica', 'Avant Garde', sans-serif; text-anchor: middle" x="28.617188" y="174.528" transform="rotate(-90 28.617188 174.528)">Loss</text>
    </g>
   </g>
   <g id="line2d_15">
    <path d="M 73.832727 53.568 
L 74.483338 190.493486 
L 75.133948 233.295984 
L 75.784558 255.605206 
L 76.435169 248.310917 
L 77.085779 267.867447 
L 77.736389 271.99411 
L 78.386999 281.870499 
L 79.03761 286.433779 
L 79.68822 269.149952 
L 80.33883 265.206266 
L 80.989441 287.557125 
L 81.640051 264.829436 
L 82.290661 282.580999 
L 82.941272 274.183703 
L 83.591882 290.551018 
L 84.242492 269.928215 
L 84.893103 288.150996 
L 85.543713 280.939363 
L 86.194323 286.318348 
L 86.844934 285.900506 
L 87.495544 289.789691 
L 88.146154 282.071737 
L 88.796764 291.402906 
L 89.447375 279.655743 
L 90.097985 289.879536 
L 90.748595 290.272417 
L 91.399206 285.43614 
L 92.049816 287.014067 
L 92.700426 292.008687 
L 93.351037 289.761985 
L 94.001647 284.290896 
L 94.652257 285.00092 
L 95.302868 289.579612 
L 95.953478 289.571186 
L 96.604088 288.941513 
L 97.254698 287.124733 
L 97.905309 289.4799 
L 98.555919 289.848549 
L 99.206529 292.212504 
L 99.85714 290.752716 
L 100.50775 291.88645 
L 101.15836 291.549427 
L 101.808971 290.601689 
L 102.459581 280.117938 
L 103.110191 290.386338 
L 103.760802 287.056556 
L 104.411412 292.937736 
L 105.062022 283.485111 
L 105.712633 292.336032 
L 106.363243 292.945393 
L 107.013853 294.020698 
L 107.664463 284.634174 
L 108.315074 290.34245 
L 108.965684 289.915641 
L 109.616294 293.088721 
L 110.266905 280.920696 
L 110.917515 287.922554 
L 111.568125 291.564632 
L 112.218736 284.797143 
L 112.869346 292.969048 
L 113.519956 291.5322 
L 114.170567 286.182677 
L 114.821177 288.927859 
L 115.471787 290.039192 
L 116.122398 292.642649 
L 116.773008 291.038782 
L 117.423618 291.220932 
L 118.074228 288.145856 
L 118.724839 292.857352 
L 119.375449 291.201832 
L 120.026059 292.359052 
L 120.67667 293.897035 
L 121.32728 290.721016 
L 121.97789 282.64547 
L 122.628501 291.298633 
L 123.279111 294.595024 
L 123.929721 287.444086 
L 124.580332 291.24188 
L 125.230942 290.30244 
L 125.881552 290.927134 
L 126.532163 285.499554 
L 127.182773 294.415117 
L 127.833383 277.330769 
L 128.483993 292.35943 
L 129.134604 285.756432 
L 129.785214 294.035628 
L 130.435824 286.770023 
L 131.086435 293.010127 
L 131.737045 288.553627 
L 132.387655 291.057678 
L 133.038266 289.610624 
L 133.688876 293.727166 
L 134.339486 294.382629 
L 134.990097 280.407084 
L 136.291317 292.886464 
L 136.941927 292.674553 
L 137.592538 291.674817 
L 138.243148 294.276586 
L 138.893758 292.847276 
L 139.544369 286.943761 
L 140.194979 292.749778 
L 140.845589 293.387751 
L 141.4962 291.46444 
L 142.14681 292.903203 
L 142.79742 294.881416 
L 143.448031 287.455202 
L 144.098641 290.222595 
L 144.749251 292.237847 
L 145.399862 294.774562 
L 146.050472 291.177325 
L 146.701082 293.380946 
L 147.351692 294.835085 
L 148.002303 293.90199 
L 148.652913 289.957036 
L 149.954134 292.796475 
L 150.604744 293.36904 
L 151.255354 295.272541 
L 152.556575 291.455384 
L 153.207185 290.803642 
L 153.857796 293.107072 
L 154.508406 287.439428 
L 155.159016 293.147798 
L 155.809627 292.479282 
L 156.460237 294.390628 
L 157.110847 294.289749 
L 157.761457 294.344119 
L 158.412068 288.779314 
L 159.062678 291.749754 
L 159.713288 292.157751 
L 160.363899 294.816937 
L 161.665119 293.871954 
L 162.31573 294.491889 
L 162.96634 291.632474 
L 163.61695 295.001907 
L 164.918171 294.161566 
L 165.568781 293.905595 
L 166.219392 292.589218 
L 166.870002 289.571878 
L 167.520612 294.781097 
L 168.171222 291.036734 
L 168.821833 293.028319 
L 169.472443 292.673483 
L 170.123053 287.688722 
L 170.773664 295.433977 
L 171.424274 293.238945 
L 172.074884 294.064581 
L 172.725495 294.418646 
L 173.376105 293.193954 
L 174.026715 294.624094 
L 174.677326 292.434762 
L 175.327936 289.82033 
L 175.978546 295.007831 
L 176.629156 293.490388 
L 177.279767 295.289447 
L 177.930377 295.134428 
L 178.580987 294.02692 
L 179.231598 292.608988 
L 179.882208 292.834555 
L 180.532818 291.008311 
L 181.183429 289.716554 
L 181.834039 289.441455 
L 182.484649 294.351721 
L 183.13526 289.246574 
L 183.78587 292.612485 
L 184.43648 293.526162 
L 185.737701 292.771311 
L 187.038921 285.303479 
L 187.689532 293.205883 
L 188.340142 293.090268 
L 188.990752 293.733182 
L 189.641363 292.69049 
L 190.291973 295.219219 
L 191.593194 292.799865 
L 192.243804 294.40267 
L 192.894414 294.303843 
L 193.545025 291.873166 
L 194.195635 294.262846 
L 194.846245 293.075882 
L 195.496856 289.27443 
L 196.147466 294.017988 
L 196.798076 292.041571 
L 197.448686 294.099726 
L 198.099297 294.787196 
L 198.749907 293.105449 
L 199.400517 294.906896 
L 200.051128 294.602149 
L 200.701738 290.537754 
L 201.352348 294.738501 
L 202.002959 294.820654 
L 202.653569 291.150342 
L 203.304179 295.212452 
L 203.95479 286.946003 
L 204.6054 295.118268 
L 205.25601 292.934987 
L 205.906621 295.195667 
L 206.557231 290.784191 
L 207.207841 290.220508 
L 207.858451 285.376858 
L 208.509062 293.416058 
L 209.159672 292.306611 
L 209.810282 292.600914 
L 210.460893 295.320457 
L 211.111503 294.074306 
L 211.762113 295.315542 
L 212.412724 294.843977 
L 213.713944 295.065686 
L 214.364555 289.443688 
L 215.015165 295.312795 
L 215.665775 290.973287 
L 216.316385 293.025265 
L 216.966996 288.476347 
L 217.617606 291.964619 
L 218.268216 290.792966 
L 218.918827 295.205086 
L 219.569437 284.296392 
L 220.220047 292.816395 
L 220.870658 294.144315 
L 221.521268 295.168664 
L 222.171878 294.433266 
L 222.822489 295.01473 
L 223.473099 291.911704 
L 224.123709 290.753897 
L 224.77432 287.165051 
L 225.42493 295.357637 
L 226.07554 293.991578 
L 226.72615 291.26577 
L 227.376761 291.53971 
L 228.027371 295.218767 
L 228.677981 293.382577 
L 229.328592 294.854889 
L 229.979202 295.260923 
L 230.629812 291.672204 
L 231.280423 294.368824 
L 231.931033 295.258357 
L 232.581643 294.672212 
L 233.232254 292.198515 
L 233.882864 294.05427 
L 234.533474 294.248916 
L 235.184085 295.054052 
L 235.834695 290.876289 
L 236.485305 294.916677 
L 237.786526 295.272304 
L 238.437136 294.941561 
L 239.087746 293.948178 
L 239.738357 295.257495 
L 240.388967 294.206891 
L 241.039577 293.671573 
L 241.690188 295.398775 
L 242.340798 294.971282 
L 242.991408 294.71213 
L 243.642019 294.982384 
L 244.292629 295.428769 
L 244.943239 294.588044 
L 245.59385 292.412918 
L 246.24446 294.871728 
L 246.89507 293.565093 
L 247.54568 295.403729 
L 248.196291 292.877047 
L 248.846901 286.288003 
L 249.497511 287.74188 
L 250.148122 294.767007 
L 250.798732 295.022486 
L 251.449342 293.425702 
L 252.099953 294.088895 
L 252.750563 294.963968 
L 253.401173 295.47242 
L 254.702394 295.35496 
L 255.353004 293.167277 
L 256.003615 290.298799 
L 256.654225 287.997386 
L 257.304835 295.107409 
L 257.955445 292.812603 
L 258.606056 295.196832 
L 259.256666 293.973769 
L 259.907276 287.536084 
L 260.557887 294.900135 
L 261.208497 293.932217 
L 261.859107 295.432141 
L 262.509718 295.422301 
L 263.160328 293.188954 
L 263.810938 295.214832 
L 264.461549 291.3364 
L 265.112159 295.006939 
L 265.762769 295.269606 
L 266.413379 294.583019 
L 267.06399 295.12707 
L 267.7146 295.439136 
L 268.36521 294.669112 
L 269.015821 294.548418 
L 269.666431 294.581921 
L 270.317041 295.199313 
L 270.967652 294.52491 
L 271.618262 295.382476 
L 272.268872 295.395347 
L 272.919483 293.478762 
L 273.570093 294.981204 
L 274.220703 295.433465 
L 274.871314 294.904049 
L 275.521924 294.207802 
L 276.172534 290.690937 
L 276.823144 293.9682 
L 277.473755 293.604163 
L 278.124365 295.282892 
L 279.425586 293.575393 
L 280.076196 294.714493 
L 280.726806 295.203144 
L 281.377417 294.741745 
L 282.028027 293.889166 
L 282.678637 295.268433 
L 283.979858 294.662542 
L 284.630468 295.190608 
L 285.931689 295.267878 
L 286.582299 295.415236 
L 287.232909 290.426239 
L 287.88352 294.850724 
L 288.53413 295.168314 
L 289.18474 294.530846 
L 289.835351 294.675356 
L 290.485961 291.787945 
L 291.136571 295.431411 
L 292.437792 294.554234 
L 293.088402 295.43846 
L 293.739013 294.613515 
L 294.389623 295.175731 
L 295.040233 290.988927 
L 295.690844 288.139111 
L 296.341454 295.246891 
L 296.992064 295.337545 
L 297.642674 295.179453 
L 298.293285 294.632418 
L 298.943895 295.259742 
L 299.594505 291.973811 
L 300.245116 295.269801 
L 300.895726 294.960435 
L 301.546336 294.363059 
L 302.196947 293.292188 
L 302.847557 295.250771 
L 303.498167 293.447108 
L 304.148778 294.524968 
L 304.799388 294.831433 
L 305.449998 291.873732 
L 306.100608 294.241329 
L 306.751219 294.507174 
L 307.401829 294.056957 
L 308.052439 295.264777 
L 308.70305 294.718875 
L 309.35366 294.000341 
L 310.00427 295.109117 
L 310.654881 286.605862 
L 311.305491 295.151367 
L 311.956101 292.016474 
L 312.606712 293.206726 
L 313.257322 291.884831 
L 313.907932 294.802566 
L 314.558543 295.359319 
L 315.209153 294.110094 
L 315.859763 293.767918 
L 316.510373 295.454145 
L 317.160984 293.61812 
L 317.811594 295.265219 
L 319.112815 295.434488 
L 319.763425 295.058834 
L 320.414035 292.463548 
L 321.064646 295.428174 
L 321.715256 294.703064 
L 322.365866 295.205241 
L 323.016477 295.44491 
L 324.317697 295.252716 
L 324.968308 295.310619 
L 325.618918 294.367524 
L 326.269528 294.877605 
L 326.920138 294.967806 
L 327.570749 291.78605 
L 328.221359 294.310249 
L 328.871969 295.302483 
L 329.52258 292.854249 
L 330.17319 292.669916 
L 330.8238 295.067851 
L 331.474411 295.308721 
L 332.125021 295.11372 
L 332.775631 290.423771 
L 333.426242 295.000958 
L 334.076852 294.931968 
L 334.727462 294.684256 
L 335.378073 295.170874 
L 336.028683 295.334277 
L 336.679293 294.624082 
L 337.329903 290.142983 
L 337.980514 295.339107 
L 338.631124 295.293256 
L 339.281734 293.777363 
L 339.932345 294.545316 
L 341.233565 295.248959 
L 341.884176 294.1115 
L 342.534786 294.086733 
L 343.185396 295.3375 
L 343.836007 292.214423 
L 344.486617 294.736326 
L 345.137227 295.430424 
L 345.787837 292.498142 
L 346.438448 294.221701 
L 347.089058 293.744391 
L 347.739668 295.298916 
L 348.390279 290.468263 
L 349.040889 295.301364 
L 349.691499 293.405441 
L 350.34211 293.125165 
L 350.99272 294.070483 
L 351.64333 292.010182 
L 352.293941 293.778993 
L 352.944551 293.68007 
L 353.595161 294.68378 
L 354.245772 292.18863 
L 354.896382 295.264986 
L 355.546992 293.395572 
L 356.197602 294.215028 
L 356.848213 291.357941 
L 357.498823 293.505052 
L 358.149433 295.265436 
L 358.800044 295.237378 
L 359.450654 294.983527 
L 360.101264 294.963082 
L 360.751875 289.591258 
L 361.402485 294.903755 
L 362.053095 294.171451 
L 362.703706 292.360104 
L 363.354316 295.362745 
L 364.004926 295.339447 
L 364.655537 290.653666 
L 365.306147 295.013584 
L 365.956757 295.456586 
L 367.908588 294.938311 
L 368.559198 295.293298 
L 369.209809 293.127581 
L 369.860419 294.180656 
L 370.511029 295.454984 
L 371.16164 290.100626 
L 371.81225 295.462481 
L 372.46286 295.324366 
L 373.113471 295.343803 
L 373.764081 294.95726 
L 374.414691 295.4295 
L 375.065302 292.524665 
L 375.715912 294.576822 
L 376.366522 295.431927 
L 377.017132 294.581271 
L 377.667743 295.473631 
L 378.318353 292.868672 
L 378.968963 293.029506 
L 379.619574 294.133175 
L 380.270184 294.206888 
L 380.920794 295.117249 
L 381.571405 295.29706 
L 382.222015 293.685243 
L 382.872625 294.652024 
L 383.523236 289.242469 
L 384.173846 295.458423 
L 384.824456 294.164807 
L 385.475066 295.362035 
L 386.125677 293.714026 
L 386.776287 295.333354 
L 387.426897 295.27206 
L 388.077508 295.054836 
L 388.728118 294.580049 
L 389.378728 295.443856 
L 390.029339 295.484411 
L 391.330559 292.932819 
L 391.98117 295.062404 
L 392.63178 295.33408 
L 393.28239 293.386867 
L 393.933001 295.467513 
L 394.583611 290.343258 
L 395.234221 291.736105 
L 395.884831 294.272163 
L 396.535442 293.696116 
L 397.836662 295.059171 
L 398.487273 295.432895 
L 398.487273 295.432895 
" clip-path="url(#p21b2d5a809)" style="fill: none; stroke: #1f77b4; stroke-width: 1.5; stroke-linecap: square"/>
   </g>
   <g id="line2d_16">
    <path d="M 73.832727 54.5899 
L 74.483338 198.995421 
L 75.133948 242.866752 
L 75.784558 271.155912 
L 76.435169 257.914463 
L 77.085779 265.563145 
L 77.736389 261.946195 
L 78.386999 280.065544 
L 79.03761 273.912272 
L 79.68822 271.911201 
L 80.33883 277.870867 
L 80.989441 285.454002 
L 81.640051 284.258538 
L 82.290661 280.892998 
L 82.941272 285.714487 
L 83.591882 284.521134 
L 84.242492 271.415744 
L 84.893103 289.215877 
L 85.543713 282.532718 
L 86.194323 284.415203 
L 86.844934 290.252035 
L 87.495544 285.363432 
L 88.146154 287.404757 
L 88.796764 283.577768 
L 89.447375 292.580951 
L 90.097985 283.610435 
L 90.748595 291.705717 
L 91.399206 276.166531 
L 92.049816 280.067736 
L 92.700426 288.618019 
L 93.351037 289.989369 
L 94.001647 277.922606 
L 94.652257 288.220884 
L 95.302868 291.864872 
L 95.953478 285.607678 
L 96.604088 286.409593 
L 97.254698 292.776582 
L 97.905309 288.882186 
L 98.555919 289.236702 
L 99.206529 290.32058 
L 99.85714 291.820839 
L 100.50775 290.29995 
L 101.15836 282.873922 
L 101.808971 286.908465 
L 102.459581 293.730234 
L 103.110191 286.683573 
L 103.760802 293.497094 
L 105.062022 288.866687 
L 105.712633 294.174488 
L 106.363243 291.02665 
L 107.013853 289.510818 
L 107.664463 289.687727 
L 108.315074 287.771768 
L 108.965684 289.769778 
L 109.616294 280.882482 
L 110.266905 289.607739 
L 110.917515 286.380777 
L 111.568125 286.154216 
L 112.869346 292.425769 
L 113.519956 294.698768 
L 114.170567 293.157772 
L 114.821177 293.199497 
L 116.122398 293.641301 
L 116.773008 286.448273 
L 117.423618 291.941775 
L 118.074228 289.107887 
L 118.724839 291.012904 
L 119.375449 291.490234 
L 120.026059 291.497677 
L 120.67667 290.886301 
L 121.32728 284.242831 
L 122.628501 292.896293 
L 123.279111 291.831581 
L 123.929721 294.840925 
L 124.580332 289.7741 
L 125.230942 293.427467 
L 125.881552 293.378401 
L 126.532163 288.473404 
L 127.182773 288.160287 
L 127.833383 294.043837 
L 128.483993 289.453007 
L 129.134604 287.622484 
L 129.785214 291.579328 
L 130.435824 291.096478 
L 131.086435 292.265849 
L 131.737045 293.062647 
L 132.387655 293.441635 
L 133.038266 290.657951 
L 133.688876 292.625584 
L 134.339486 274.971037 
L 134.990097 293.648056 
L 136.291317 286.931933 
L 136.941927 293.012294 
L 137.592538 291.03636 
L 138.243148 293.59149 
L 138.893758 291.335432 
L 139.544369 292.120394 
L 140.194979 294.009389 
L 140.845589 289.892318 
L 141.4962 293.815584 
L 142.14681 293.692957 
L 142.79742 294.263392 
L 143.448031 294.139756 
L 144.098641 287.972098 
L 144.749251 295.005903 
L 145.399862 288.617397 
L 146.050472 289.754054 
L 146.701082 289.168861 
L 147.351692 294.097536 
L 148.002303 290.191043 
L 148.652913 291.964009 
L 149.303523 286.372044 
L 149.954134 292.635633 
L 150.604744 293.266926 
L 151.255354 288.17676 
L 151.905965 292.350411 
L 152.556575 291.937793 
L 153.207185 293.95562 
L 153.857796 292.431726 
L 154.508406 293.900497 
L 155.159016 292.444561 
L 155.809627 288.098436 
L 156.460237 294.910468 
L 157.110847 290.081885 
L 157.761457 294.833055 
L 158.412068 288.920215 
L 159.062678 289.627598 
L 159.713288 293.844705 
L 160.363899 294.366294 
L 161.014509 292.284233 
L 162.31573 292.955199 
L 162.96634 295.015165 
L 163.61695 286.22773 
L 164.918171 291.924991 
L 165.568781 291.408105 
L 166.219392 293.82414 
L 166.870002 295.377239 
L 167.520612 295.051953 
L 168.171222 294.118364 
L 168.821833 293.474293 
L 169.472443 290.941939 
L 170.123053 293.456982 
L 170.773664 294.340947 
L 171.424274 294.788923 
L 172.074884 291.707194 
L 172.725495 293.78379 
L 173.376105 293.292464 
L 174.026715 292.46171 
L 174.677326 290.065972 
L 175.327936 295.128625 
L 175.978546 292.164493 
L 176.629156 291.969728 
L 177.279767 293.535337 
L 177.930377 294.75399 
L 179.231598 292.50981 
L 179.882208 295.027643 
L 180.532818 293.220333 
L 181.183429 294.329273 
L 181.834039 293.285484 
L 182.484649 294.441508 
L 183.13526 289.366257 
L 183.78587 293.05899 
L 184.43648 294.268634 
L 185.087091 293.139488 
L 185.737701 294.224948 
L 186.388311 294.349646 
L 187.038921 291.859295 
L 187.689532 294.545198 
L 188.340142 293.162001 
L 188.990752 295.075243 
L 189.641363 292.156588 
L 190.291973 289.889671 
L 190.942583 294.506211 
L 191.593194 294.109876 
L 192.243804 293.21422 
L 192.894414 292.707382 
L 193.545025 294.372486 
L 194.195635 294.694944 
L 194.846245 293.965832 
L 195.496856 294.309135 
L 196.147466 293.483602 
L 196.798076 292.956491 
L 197.448686 293.665132 
L 198.099297 289.943341 
L 198.749907 295.438324 
L 199.400517 294.854976 
L 200.701738 292.488262 
L 201.352348 285.409372 
L 202.002959 292.273951 
L 202.653569 293.622404 
L 203.95479 294.90657 
L 204.6054 291.154829 
L 205.25601 292.522358 
L 205.906621 294.93393 
L 206.557231 293.71202 
L 207.207841 292.857436 
L 207.858451 295.03418 
L 208.509062 295.354638 
L 209.159672 294.389088 
L 209.810282 294.698933 
L 210.460893 295.249418 
L 211.111503 294.325315 
L 211.762113 293.678507 
L 212.412724 286.179635 
L 213.063334 294.399608 
L 213.713944 293.915955 
L 214.364555 295.407629 
L 215.015165 291.985469 
L 215.665775 290.718294 
L 216.316385 294.951115 
L 216.966996 295.333693 
L 218.268216 292.987008 
L 218.918827 293.210638 
L 219.569437 294.183622 
L 220.220047 293.964251 
L 220.870658 294.33169 
L 221.521268 293.013379 
L 222.171878 293.390104 
L 222.822489 295.42193 
L 224.123709 294.60584 
L 224.77432 291.232815 
L 225.42493 293.831446 
L 226.07554 295.254187 
L 226.72615 292.316711 
L 227.376761 293.779884 
L 228.027371 293.817947 
L 228.677981 294.970349 
L 229.328592 289.351965 
L 229.979202 293.846956 
L 230.629812 293.377291 
L 231.280423 293.750145 
L 231.931033 295.066739 
L 232.581643 292.641321 
L 233.232254 295.24917 
L 233.882864 291.398249 
L 234.533474 292.855112 
L 235.184085 295.064415 
L 235.834695 295.337589 
L 236.485305 293.089637 
L 237.135915 295.025981 
L 237.786526 295.419781 
L 238.437136 292.671888 
L 239.087746 295.186759 
L 239.738357 295.176251 
L 240.388967 293.489935 
L 241.039577 295.292088 
L 241.690188 292.499096 
L 242.340798 295.167735 
L 242.991408 292.090044 
L 243.642019 295.187286 
L 244.292629 294.491163 
L 244.943239 290.426979 
L 245.59385 293.87032 
L 246.89507 294.882426 
L 247.54568 293.791323 
L 248.196291 293.466544 
L 248.846901 294.174337 
L 249.497511 294.467488 
L 250.148122 291.808197 
L 250.798732 295.458343 
L 251.449342 293.739547 
L 252.099953 293.158309 
L 252.750563 293.480271 
L 254.051784 294.893799 
L 254.702394 292.344266 
L 255.353004 295.038524 
L 256.003615 294.875637 
L 256.654225 292.563975 
L 257.304835 295.165618 
L 257.955445 293.032257 
L 258.606056 294.730922 
L 259.256666 295.181382 
L 259.907276 293.848372 
L 260.557887 293.630255 
L 261.208497 289.998867 
L 261.859107 294.210166 
L 262.509718 295.296017 
L 263.160328 294.813322 
L 263.810938 294.516913 
L 264.461549 294.789158 
L 265.112159 288.300981 
L 265.762769 293.973641 
L 266.413379 295.355259 
L 267.06399 294.070276 
L 267.7146 295.320035 
L 268.36521 292.043529 
L 269.015821 293.716999 
L 269.666431 291.818902 
L 270.317041 291.073486 
L 270.967652 295.004694 
L 271.618262 291.021016 
L 272.268872 295.366836 
L 272.919483 294.957666 
L 273.570093 295.093207 
L 274.220703 295.424988 
L 274.871314 294.290852 
L 275.521924 291.435959 
L 276.172534 294.751457 
L 276.823144 294.976492 
L 277.473755 294.580403 
L 278.124365 291.130155 
L 278.774975 294.36389 
L 279.425586 294.608808 
L 280.076196 293.337065 
L 280.726806 295.272818 
L 281.377417 294.856242 
L 282.028027 294.85428 
L 282.678637 288.344346 
L 283.329248 294.612875 
L 283.979858 294.719757 
L 284.630468 294.280436 
L 285.281079 294.259921 
L 285.931689 294.069794 
L 286.582299 294.760993 
L 287.232909 292.134064 
L 287.88352 294.11274 
L 288.53413 295.28119 
L 289.18474 295.419811 
L 289.835351 293.735797 
L 290.485961 292.543014 
L 291.136571 293.1251 
L 291.787182 294.883299 
L 292.437792 292.887968 
L 293.088402 295.124175 
L 293.739013 294.30521 
L 294.389623 295.476007 
L 295.040233 295.231933 
L 295.690844 294.581465 
L 296.341454 292.407199 
L 296.992064 295.392224 
L 297.642674 294.305012 
L 298.293285 295.274202 
L 298.943895 293.125218 
L 299.594505 294.282459 
L 300.245116 295.115547 
L 300.895726 292.798281 
L 301.546336 294.18869 
L 302.196947 287.7142 
L 302.847557 295.029001 
L 303.498167 293.377553 
L 304.148778 291.168325 
L 304.799388 295.338771 
L 305.449998 295.026172 
L 306.100608 295.43726 
L 306.751219 294.938621 
L 307.401829 290.2174 
L 308.052439 294.144774 
L 308.70305 294.330865 
L 309.35366 295.322335 
L 310.00427 293.933535 
L 310.654881 294.525471 
L 311.305491 295.389701 
L 311.956101 295.180587 
L 312.606712 295.097241 
L 313.257322 293.822046 
L 313.907932 293.14022 
L 314.558543 293.869598 
L 315.209153 295.312575 
L 315.859763 294.334164 
L 316.510373 292.156539 
L 317.160984 292.393247 
L 317.811594 295.45115 
L 318.462204 292.956545 
L 319.112815 295.406716 
L 319.763425 294.311044 
L 320.414035 295.430573 
L 321.064646 295.189362 
L 321.715256 292.014787 
L 322.365866 295.44931 
L 323.016477 292.920006 
L 323.667087 295.465138 
L 324.317697 295.227261 
L 324.968308 295.203226 
L 325.618918 295.003061 
L 326.269528 295.421047 
L 326.920138 292.888979 
L 327.570749 293.850816 
L 328.221359 292.787473 
L 328.871969 295.143863 
L 329.52258 292.6141 
L 330.17319 294.641069 
L 330.8238 295.205252 
L 331.474411 289.962972 
L 332.125021 294.725256 
L 332.775631 294.252252 
L 333.426242 293.975157 
L 334.076852 294.568427 
L 334.727462 294.953472 
L 336.028683 295.395179 
L 336.679293 294.281568 
L 337.329903 295.298296 
L 337.980514 294.691612 
L 338.631124 291.997532 
L 339.281734 295.25667 
L 339.932345 294.609464 
L 340.582955 294.156313 
L 341.233565 295.085302 
L 341.884176 287.867625 
L 342.534786 295.390174 
L 343.185396 295.480398 
L 343.836007 294.798171 
L 344.486617 291.492694 
L 345.137227 294.10551 
L 345.787837 295.348394 
L 346.438448 293.926414 
L 347.089058 292.078537 
L 347.739668 294.146959 
L 348.390279 291.867827 
L 349.040889 295.479298 
L 349.691499 295.034651 
L 350.34211 290.911263 
L 350.99272 293.530591 
L 351.64333 290.477552 
L 352.293941 293.072954 
L 352.944551 294.988396 
L 353.595161 295.198731 
L 354.245772 295.132157 
L 354.896382 294.845868 
L 355.546992 292.52327 
L 356.197602 287.608856 
L 356.848213 295.27664 
L 357.498823 295.341862 
L 358.149433 294.635504 
L 358.800044 295.419097 
L 359.450654 295.191838 
L 360.101264 294.268703 
L 360.751875 294.244875 
L 361.402485 294.082614 
L 362.053095 294.479525 
L 362.703706 295.488 
L 363.354316 291.708475 
L 364.004926 293.112439 
L 364.655537 293.079621 
L 365.306147 295.360102 
L 365.956757 294.588737 
L 366.607367 295.463296 
L 367.257978 294.379121 
L 367.908588 293.991529 
L 368.559198 292.4664 
L 369.209809 294.106474 
L 370.511029 294.387883 
L 371.16164 295.278939 
L 371.81225 292.969685 
L 372.46286 292.462813 
L 373.113471 294.032319 
L 373.764081 294.97256 
L 374.414691 295.158731 
L 375.065302 294.938574 
L 375.715912 293.452362 
L 376.366522 295.415093 
L 377.017132 292.734298 
L 377.667743 293.418394 
L 378.318353 295.249142 
L 378.968963 294.947067 
L 379.619574 295.333057 
L 380.270184 295.313195 
L 380.920794 294.359485 
L 381.571405 295.413978 
L 382.222015 293.125337 
L 382.872625 293.827527 
L 383.523236 293.060709 
L 384.173846 295.137959 
L 384.824456 294.6852 
L 385.475066 294.774123 
L 386.125677 294.226473 
L 386.776287 294.110287 
L 387.426897 295.134385 
L 388.077508 294.745197 
L 388.728118 295.165612 
L 389.378728 294.867667 
L 390.029339 294.751669 
L 390.679949 294.974424 
L 391.330559 295.480129 
L 391.98117 291.852755 
L 392.63178 294.148873 
L 393.28239 294.499267 
L 393.933001 290.600469 
L 394.583611 291.771059 
L 395.884831 294.816265 
L 396.535442 291.2011 
L 397.186052 293.088707 
L 397.836662 292.787698 
L 398.487273 292.938687 
L 398.487273 292.938687 
" clip-path="url(#p21b2d5a809)" style="fill: none; stroke: #ff7f0e; stroke-width: 1.5; stroke-linecap: square"/>
   </g>
   <g id="patch_3">
    <path d="M 57.6 307.584 
L 57.6 41.472 
" style="fill: none; stroke: #000000; stroke-width: 0.8; stroke-linejoin: miter; stroke-linecap: square"/>
   </g>
   <g id="patch_4">
    <path d="M 414.72 307.584 
L 414.72 41.472 
" style="fill: none; stroke: #000000; stroke-width: 0.8; stroke-linejoin: miter; stroke-linecap: square"/>
   </g>
   <g id="patch_5">
    <path d="M 57.6 307.584 
L 414.72 307.584 
" style="fill: none; stroke: #000000; stroke-width: 0.8; stroke-linejoin: miter; stroke-linecap: square"/>
   </g>
   <g id="patch_6">
    <path d="M 57.6 41.472 
L 414.72 41.472 
" style="fill: none; stroke: #000000; stroke-width: 0.8; stroke-linejoin: miter; stroke-linecap: square"/>
   </g>
   <g id="text_17">
    <text style="font: 12px 'DejaVu Sans', 'Bitstream Vera Sans', 'Computer Modern Sans Serif', 'Lucida Grande', 'Verdana', 'Geneva', 'Lucid', 'Arial', 'Helvetica', 'Avant Garde', sans-serif; text-anchor: middle" x="236.16" y="35.472" transform="rotate(-0 236.16 35.472)">Loss per Batch Count</text>
   </g>
   <g id="legend_1">
    <g id="patch_7">
     <path d="M 321.345 78.82825 
L 407.72 78.82825 
Q 409.72 78.82825 409.72 76.82825 
L 409.72 48.472 
Q 409.72 46.472 407.72 46.472 
L 321.345 46.472 
Q 319.345 46.472 319.345 48.472 
L 319.345 76.82825 
Q 319.345 78.82825 321.345 78.82825 
z
" style="fill: #ffffff; opacity: 0.8; stroke: #cccccc; stroke-linejoin: miter"/>
    </g>
    <g id="line2d_17">
     <path d="M 323.345 54.570437 
L 333.345 54.570437 
L 343.345 54.570437 
" style="fill: none; stroke: #1f77b4; stroke-width: 1.5; stroke-linecap: square"/>
    </g>
    <g id="text_18">
     <text style="font: 10px 'DejaVu Sans', 'Bitstream Vera Sans', 'Computer Modern Sans Serif', 'Lucida Grande', 'Verdana', 'Geneva', 'Lucid', 'Arial', 'Helvetica', 'Avant Garde', sans-serif; text-anchor: start" x="351.345" y="58.070437" transform="rotate(-0 351.345 58.070437)">Naive FDA</text>
    </g>
    <g id="line2d_18">
     <path d="M 323.345 69.248562 
L 333.345 69.248562 
L 343.345 69.248562 
" style="fill: none; stroke: #ff7f0e; stroke-width: 1.5; stroke-linecap: square"/>
    </g>
    <g id="text_19">
     <text style="font: 10px 'DejaVu Sans', 'Bitstream Vera Sans', 'Computer Modern Sans Serif', 'Lucida Grande', 'Verdana', 'Geneva', 'Lucid', 'Arial', 'Helvetica', 'Avant Garde', sans-serif; text-anchor: start" x="351.345" y="72.748562" transform="rotate(-0 351.345 72.748562)">Linear FDA</text>
    </g>
   </g>
  </g>
 </g>
 <defs>
  <clipPath id="p21b2d5a809">
   <rect x="57.6" y="41.472" width="357.12" height="266.112"/>
  </clipPath>
 </defs>
</svg>
