<?xml version="1.0" encoding="utf-8" standalone="no"?>
<!DOCTYPE svg PUBLIC "-//W3C//DTD SVG 1.1//EN"
  "http://www.w3.org/Graphics/SVG/1.1/DTD/svg11.dtd">
<svg xmlns:xlink="http://www.w3.org/1999/xlink" width="460.8pt" height="345.6pt" viewBox="0 0 460.8 345.6" xmlns="http://www.w3.org/2000/svg" version="1.1">
 <metadata>
  <rdf:RDF xmlns:dc="http://purl.org/dc/elements/1.1/" xmlns:cc="http://creativecommons.org/ns#" xmlns:rdf="http://www.w3.org/1999/02/22-rdf-syntax-ns#">
   <cc:Work>
    <dc:type rdf:resource="http://purl.org/dc/dcmitype/StillImage"/>
    <dc:date>2023-08-23T18:42:21.313492</dc:date>
    <dc:format>image/svg+xml</dc:format>
    <dc:creator>
     <cc:Agent>
      <dc:title>Matplotlib v3.7.2, https://matplotlib.org/</dc:title>
     </cc:Agent>
    </dc:creator>
   </cc:Work>
  </rdf:RDF>
 </metadata>
 <defs>
  <style type="text/css">*{stroke-linejoin: round; stroke-linecap: butt}</style>
 </defs>
 <g id="figure_1">
  <g id="patch_1">
   <path d="M 0 345.6 
L 460.8 345.6 
L 460.8 0 
L 0 0 
z
" style="fill: #ffffff"/>
  </g>
  <g id="axes_1">
   <g id="patch_2">
    <path d="M 57.6 307.584 
L 414.72 307.584 
L 414.72 41.472 
L 57.6 41.472 
z
" style="fill: #ffffff"/>
   </g>
   <g id="matplotlib.axis_1">
    <g id="xtick_1">
     <g id="line2d_1">
      <defs>
       <path id="meb53310977" d="M 0 0 
L 0 3.5 
" style="stroke: #000000; stroke-width: 0.8"/>
      </defs>
      <g>
       <use xlink:href="#meb53310977" x="73.832727" y="307.584" style="stroke: #000000; stroke-width: 0.8"/>
      </g>
     </g>
     <g id="text_1">
      <text style="font: 10px 'DejaVu Sans', 'Bitstream Vera Sans', 'Computer Modern Sans Serif', 'Lucida Grande', 'Verdana', 'Geneva', 'Lucid', 'Arial', 'Helvetica', 'Avant Garde', sans-serif; text-anchor: middle" x="73.832727" y="322.182437" transform="rotate(-0 73.832727 322.182437)">0</text>
     </g>
    </g>
    <g id="xtick_2">
     <g id="line2d_2">
      <g>
       <use xlink:href="#meb53310977" x="114.577525" y="307.584" style="stroke: #000000; stroke-width: 0.8"/>
      </g>
     </g>
     <g id="text_2">
      <text style="font: 10px 'DejaVu Sans', 'Bitstream Vera Sans', 'Computer Modern Sans Serif', 'Lucida Grande', 'Verdana', 'Geneva', 'Lucid', 'Arial', 'Helvetica', 'Avant Garde', sans-serif; text-anchor: middle" x="114.577525" y="322.182437" transform="rotate(-0 114.577525 322.182437)">2500</text>
     </g>
    </g>
    <g id="xtick_3">
     <g id="line2d_3">
      <g>
       <use xlink:href="#meb53310977" x="155.322322" y="307.584" style="stroke: #000000; stroke-width: 0.8"/>
      </g>
     </g>
     <g id="text_3">
      <text style="font: 10px 'DejaVu Sans', 'Bitstream Vera Sans', 'Computer Modern Sans Serif', 'Lucida Grande', 'Verdana', 'Geneva', 'Lucid', 'Arial', 'Helvetica', 'Avant Garde', sans-serif; text-anchor: middle" x="155.322322" y="322.182437" transform="rotate(-0 155.322322 322.182437)">5000</text>
     </g>
    </g>
    <g id="xtick_4">
     <g id="line2d_4">
      <g>
       <use xlink:href="#meb53310977" x="196.067119" y="307.584" style="stroke: #000000; stroke-width: 0.8"/>
      </g>
     </g>
     <g id="text_4">
      <text style="font: 10px 'DejaVu Sans', 'Bitstream Vera Sans', 'Computer Modern Sans Serif', 'Lucida Grande', 'Verdana', 'Geneva', 'Lucid', 'Arial', 'Helvetica', 'Avant Garde', sans-serif; text-anchor: middle" x="196.067119" y="322.182437" transform="rotate(-0 196.067119 322.182437)">7500</text>
     </g>
    </g>
    <g id="xtick_5">
     <g id="line2d_5">
      <g>
       <use xlink:href="#meb53310977" x="236.811917" y="307.584" style="stroke: #000000; stroke-width: 0.8"/>
      </g>
     </g>
     <g id="text_5">
      <text style="font: 10px 'DejaVu Sans', 'Bitstream Vera Sans', 'Computer Modern Sans Serif', 'Lucida Grande', 'Verdana', 'Geneva', 'Lucid', 'Arial', 'Helvetica', 'Avant Garde', sans-serif; text-anchor: middle" x="236.811917" y="322.182437" transform="rotate(-0 236.811917 322.182437)">10000</text>
     </g>
    </g>
    <g id="xtick_6">
     <g id="line2d_6">
      <g>
       <use xlink:href="#meb53310977" x="277.556714" y="307.584" style="stroke: #000000; stroke-width: 0.8"/>
      </g>
     </g>
     <g id="text_6">
      <text style="font: 10px 'DejaVu Sans', 'Bitstream Vera Sans', 'Computer Modern Sans Serif', 'Lucida Grande', 'Verdana', 'Geneva', 'Lucid', 'Arial', 'Helvetica', 'Avant Garde', sans-serif; text-anchor: middle" x="277.556714" y="322.182437" transform="rotate(-0 277.556714 322.182437)">12500</text>
     </g>
    </g>
    <g id="xtick_7">
     <g id="line2d_7">
      <g>
       <use xlink:href="#meb53310977" x="318.301512" y="307.584" style="stroke: #000000; stroke-width: 0.8"/>
      </g>
     </g>
     <g id="text_7">
      <text style="font: 10px 'DejaVu Sans', 'Bitstream Vera Sans', 'Computer Modern Sans Serif', 'Lucida Grande', 'Verdana', 'Geneva', 'Lucid', 'Arial', 'Helvetica', 'Avant Garde', sans-serif; text-anchor: middle" x="318.301512" y="322.182437" transform="rotate(-0 318.301512 322.182437)">15000</text>
     </g>
    </g>
    <g id="xtick_8">
     <g id="line2d_8">
      <g>
       <use xlink:href="#meb53310977" x="359.046309" y="307.584" style="stroke: #000000; stroke-width: 0.8"/>
      </g>
     </g>
     <g id="text_8">
      <text style="font: 10px 'DejaVu Sans', 'Bitstream Vera Sans', 'Computer Modern Sans Serif', 'Lucida Grande', 'Verdana', 'Geneva', 'Lucid', 'Arial', 'Helvetica', 'Avant Garde', sans-serif; text-anchor: middle" x="359.046309" y="322.182437" transform="rotate(-0 359.046309 322.182437)">17500</text>
     </g>
    </g>
    <g id="xtick_9">
     <g id="line2d_9">
      <g>
       <use xlink:href="#meb53310977" x="399.791106" y="307.584" style="stroke: #000000; stroke-width: 0.8"/>
      </g>
     </g>
     <g id="text_9">
      <text style="font: 10px 'DejaVu Sans', 'Bitstream Vera Sans', 'Computer Modern Sans Serif', 'Lucida Grande', 'Verdana', 'Geneva', 'Lucid', 'Arial', 'Helvetica', 'Avant Garde', sans-serif; text-anchor: middle" x="399.791106" y="322.182437" transform="rotate(-0 399.791106 322.182437)">20000</text>
     </g>
    </g>
    <g id="text_10">
     <text style="font: 10px 'DejaVu Sans', 'Bitstream Vera Sans', 'Computer Modern Sans Serif', 'Lucida Grande', 'Verdana', 'Geneva', 'Lucid', 'Arial', 'Helvetica', 'Avant Garde', sans-serif; text-anchor: middle" x="236.16" y="335.860562" transform="rotate(-0 236.16 335.860562)">Steps / Batch Count</text>
    </g>
   </g>
   <g id="matplotlib.axis_2">
    <g id="ytick_1">
     <g id="line2d_10">
      <defs>
       <path id="m76fe27b74b" d="M 0 0 
L -3.5 0 
" style="stroke: #000000; stroke-width: 0.8"/>
      </defs>
      <g>
       <use xlink:href="#m76fe27b74b" x="57.6" y="295.492123" style="stroke: #000000; stroke-width: 0.8"/>
      </g>
     </g>
     <g id="text_11">
      <text style="font: 10px 'DejaVu Sans', 'Bitstream Vera Sans', 'Computer Modern Sans Serif', 'Lucida Grande', 'Verdana', 'Geneva', 'Lucid', 'Arial', 'Helvetica', 'Avant Garde', sans-serif; text-anchor: end" x="50.6" y="299.291342" transform="rotate(-0 50.6 299.291342)">0.0</text>
     </g>
    </g>
    <g id="ytick_2">
     <g id="line2d_11">
      <g>
       <use xlink:href="#m76fe27b74b" x="57.6" y="243.465916" style="stroke: #000000; stroke-width: 0.8"/>
      </g>
     </g>
     <g id="text_12">
      <text style="font: 10px 'DejaVu Sans', 'Bitstream Vera Sans', 'Computer Modern Sans Serif', 'Lucida Grande', 'Verdana', 'Geneva', 'Lucid', 'Arial', 'Helvetica', 'Avant Garde', sans-serif; text-anchor: end" x="50.6" y="247.265135" transform="rotate(-0 50.6 247.265135)">0.5</text>
     </g>
    </g>
    <g id="ytick_3">
     <g id="line2d_12">
      <g>
       <use xlink:href="#m76fe27b74b" x="57.6" y="191.439708" style="stroke: #000000; stroke-width: 0.8"/>
      </g>
     </g>
     <g id="text_13">
      <text style="font: 10px 'DejaVu Sans', 'Bitstream Vera Sans', 'Computer Modern Sans Serif', 'Lucida Grande', 'Verdana', 'Geneva', 'Lucid', 'Arial', 'Helvetica', 'Avant Garde', sans-serif; text-anchor: end" x="50.6" y="195.238927" transform="rotate(-0 50.6 195.238927)">1.0</text>
     </g>
    </g>
    <g id="ytick_4">
     <g id="line2d_13">
      <g>
       <use xlink:href="#m76fe27b74b" x="57.6" y="139.413501" style="stroke: #000000; stroke-width: 0.8"/>
      </g>
     </g>
     <g id="text_14">
      <text style="font: 10px 'DejaVu Sans', 'Bitstream Vera Sans', 'Computer Modern Sans Serif', 'Lucida Grande', 'Verdana', 'Geneva', 'Lucid', 'Arial', 'Helvetica', 'Avant Garde', sans-serif; text-anchor: end" x="50.6" y="143.212719" transform="rotate(-0 50.6 143.212719)">1.5</text>
     </g>
    </g>
    <g id="ytick_5">
     <g id="line2d_14">
      <g>
       <use xlink:href="#m76fe27b74b" x="57.6" y="87.387293" style="stroke: #000000; stroke-width: 0.8"/>
      </g>
     </g>
     <g id="text_15">
      <text style="font: 10px 'DejaVu Sans', 'Bitstream Vera Sans', 'Computer Modern Sans Serif', 'Lucida Grande', 'Verdana', 'Geneva', 'Lucid', 'Arial', 'Helvetica', 'Avant Garde', sans-serif; text-anchor: end" x="50.6" y="91.186512" transform="rotate(-0 50.6 91.186512)">2.0</text>
     </g>
    </g>
    <g id="text_16">
     <text style="font: 10px 'DejaVu Sans', 'Bitstream Vera Sans', 'Computer Modern Sans Serif', 'Lucida Grande', 'Verdana', 'Geneva', 'Lucid', 'Arial', 'Helvetica', 'Avant Garde', sans-serif; text-anchor: middle" x="28.617188" y="174.528" transform="rotate(-90 28.617188 174.528)">Loss</text>
    </g>
   </g>
   <g id="line2d_15">
    <path d="M 73.832727 56.762274 
L 75.136561 211.60938 
L 76.440394 239.995112 
L 77.744228 257.363466 
L 79.048061 269.137028 
L 80.351895 274.789014 
L 81.655728 261.514598 
L 82.959562 276.599136 
L 84.263395 286.350471 
L 86.871062 277.426699 
L 88.174896 285.437132 
L 89.478729 286.049828 
L 90.782563 289.66498 
L 92.086396 283.009808 
L 93.39023 269.21713 
L 94.694064 290.478571 
L 95.997897 286.968675 
L 97.301731 289.558699 
L 98.605564 288.710323 
L 99.909398 283.658 
L 101.213231 281.619607 
L 102.517065 290.974471 
L 103.820898 284.558149 
L 105.124732 287.687034 
L 106.428565 292.695037 
L 107.732399 277.290138 
L 109.036232 292.151883 
L 110.340066 279.15159 
L 111.643899 286.917749 
L 112.947733 284.513989 
L 114.251566 292.664773 
L 115.5554 292.90609 
L 116.859233 285.997975 
L 118.163067 281.335406 
L 119.4669 286.812526 
L 122.074567 294.851627 
L 123.378401 289.66149 
L 124.682234 293.751885 
L 125.986068 293.552362 
L 127.289901 286.72305 
L 128.593735 294.647855 
L 129.897568 289.100932 
L 131.201402 293.345813 
L 132.505235 290.219459 
L 133.809069 295.049643 
L 135.112903 293.673354 
L 136.416736 291.742598 
L 137.72057 292.141612 
L 139.024403 290.879285 
L 140.328237 287.19321 
L 141.63207 289.610798 
L 142.935904 294.899509 
L 144.239737 293.905592 
L 145.543571 290.602157 
L 146.847404 294.809001 
L 148.151238 289.571464 
L 149.455071 294.456856 
L 150.758905 294.178888 
L 152.062738 288.9792 
L 153.366572 292.714168 
L 154.670405 289.118939 
L 155.974239 290.070295 
L 157.278072 293.696255 
L 158.581906 294.710823 
L 159.885739 293.9364 
L 161.189573 289.952569 
L 162.493406 293.030421 
L 163.79724 288.35337 
L 165.101073 294.961247 
L 166.404907 287.394537 
L 167.70874 290.284045 
L 169.012574 293.551803 
L 170.316407 289.112067 
L 171.620241 293.743718 
L 172.924074 290.007945 
L 174.227908 291.465265 
L 175.531742 294.194817 
L 176.835575 293.616437 
L 178.139409 293.585157 
L 179.443242 291.940673 
L 180.747076 289.690468 
L 182.050909 291.985742 
L 183.354743 293.476252 
L 184.658576 291.222192 
L 185.96241 293.846862 
L 188.570077 293.683511 
L 189.87391 288.420449 
L 191.177744 294.829556 
L 192.481577 294.5018 
L 193.785411 290.153341 
L 195.089244 295.122731 
L 196.393078 292.298667 
L 197.696911 294.015807 
L 199.000745 293.55361 
L 200.304578 292.916955 
L 201.608412 294.802907 
L 202.912245 295.33919 
L 204.216079 295.037157 
L 205.519912 290.826721 
L 206.823746 295.324267 
L 209.431413 289.439436 
L 210.735246 295.32268 
L 212.03908 292.935504 
L 213.342913 288.221823 
L 214.646747 292.615746 
L 215.950581 294.677779 
L 217.254414 294.610704 
L 218.558248 294.671456 
L 219.862081 291.965199 
L 221.165915 294.810811 
L 222.469748 290.212831 
L 223.773582 294.143387 
L 225.077415 295.388961 
L 226.381249 293.020167 
L 227.685082 288.339948 
L 228.988916 289.117013 
L 230.292749 288.272791 
L 231.596583 293.970207 
L 232.900416 294.897676 
L 234.20425 294.864776 
L 235.508083 294.310955 
L 236.811917 293.59726 
L 238.11575 294.832729 
L 239.419584 293.538244 
L 240.723417 294.373944 
L 242.027251 293.43624 
L 243.331084 292.078766 
L 244.634918 292.501325 
L 245.938751 293.461957 
L 247.242585 293.021935 
L 248.546418 275.685308 
L 249.850252 293.381069 
L 251.154085 294.424072 
L 252.457919 295.163056 
L 253.761752 295.006995 
L 255.065586 294.301874 
L 256.369419 295.358094 
L 257.673253 295.186077 
L 258.977087 295.156722 
L 260.28092 290.585275 
L 261.584754 293.734346 
L 262.888587 294.151303 
L 264.192421 294.770699 
L 265.496254 293.467475 
L 266.800088 295.265229 
L 268.103921 294.216019 
L 269.407755 295.186207 
L 270.711588 294.103751 
L 272.015422 293.421153 
L 273.319255 295.053991 
L 274.623089 289.752209 
L 275.926922 291.413109 
L 277.230756 294.970313 
L 278.534589 291.639312 
L 279.838423 290.518647 
L 281.142256 293.763145 
L 282.44609 292.560913 
L 283.749923 292.925686 
L 285.053757 294.674069 
L 286.35759 295.309709 
L 287.661424 291.571488 
L 288.965257 292.004892 
L 290.269091 295.318512 
L 291.572924 295.25171 
L 292.876758 293.088503 
L 294.180591 290.267878 
L 295.484425 286.47054 
L 296.788258 294.259736 
L 298.092092 294.822249 
L 299.395926 293.970798 
L 300.699759 290.146603 
L 302.003593 294.902982 
L 303.307426 294.488251 
L 304.61126 292.854287 
L 305.915093 293.275357 
L 307.218927 294.656522 
L 308.52276 295.255886 
L 309.826594 293.525773 
L 311.130427 295.346336 
L 312.434261 295.171706 
L 313.738094 294.552697 
L 315.041928 294.064191 
L 316.345761 293.292029 
L 317.649595 293.073609 
L 318.953428 294.077103 
L 320.257262 292.51343 
L 321.561095 294.924494 
L 322.864929 293.869436 
L 324.168762 295.374884 
L 326.776429 294.782556 
L 328.080263 293.698654 
L 329.384096 295.150418 
L 330.68793 295.182492 
L 331.991763 294.508085 
L 333.295597 295.08395 
L 334.59943 293.92257 
L 335.903264 291.835039 
L 337.207097 289.322895 
L 338.510931 294.707351 
L 339.814765 293.459799 
L 341.118598 292.923695 
L 342.422432 293.804409 
L 343.726265 293.535131 
L 345.030099 295.281747 
L 346.333932 294.556775 
L 348.941599 295.01031 
L 350.245433 290.556038 
L 351.549266 294.885451 
L 352.8531 294.32435 
L 354.156933 295.44403 
L 355.460767 294.345803 
L 356.7646 295.117436 
L 358.068434 294.732397 
L 359.372267 293.985727 
L 360.676101 294.954788 
L 361.979934 294.80438 
L 363.283768 294.950158 
L 364.587601 294.210538 
L 365.891435 295.241937 
L 367.195268 295.385097 
L 368.499102 294.786443 
L 369.802935 295.102135 
L 371.106769 295.245693 
L 372.410602 295.050977 
L 373.714436 290.083759 
L 375.018269 295.373604 
L 376.322103 294.927434 
L 377.625936 295.242956 
L 378.92977 295.401705 
L 380.233604 293.781971 
L 381.537437 295.366352 
L 384.145104 293.237679 
L 385.448938 295.20604 
L 386.752771 293.538117 
L 388.056605 290.960782 
L 389.360438 293.32754 
L 390.664272 294.915994 
L 391.968105 288.439201 
L 393.271939 295.427442 
L 397.183439 295.482425 
L 398.487273 295.488 
L 398.487273 295.488 
" clip-path="url(#ped1437c883)" style="fill: none; stroke: #1f77b4; stroke-width: 1.5; stroke-linecap: square"/>
   </g>
   <g id="line2d_16">
    <path d="M 73.832727 53.568 
L 75.136561 205.491273 
L 76.440394 233.180526 
L 77.744228 254.2895 
L 79.048061 251.46516 
L 80.351895 264.28388 
L 81.655728 264.440868 
L 82.959562 268.565333 
L 84.263395 268.43271 
L 85.567229 264.070025 
L 86.871062 281.08829 
L 88.174896 286.408446 
L 89.478729 284.224126 
L 90.782563 286.614317 
L 92.086396 275.906287 
L 93.39023 281.393722 
L 94.694064 289.699237 
L 95.997897 283.165172 
L 97.301731 285.53199 
L 98.605564 282.875447 
L 99.909398 285.946095 
L 101.213231 291.67765 
L 102.517065 292.04782 
L 103.820898 279.55308 
L 105.124732 290.280351 
L 106.428565 286.116862 
L 107.732399 289.333826 
L 109.036232 288.356839 
L 110.340066 290.272996 
L 111.643899 288.891923 
L 112.947733 284.959678 
L 114.251566 288.096584 
L 115.5554 282.782134 
L 116.859233 286.086289 
L 118.163067 280.727044 
L 119.4669 291.622408 
L 120.770734 290.259064 
L 122.074567 289.526728 
L 123.378401 288.98314 
L 124.682234 290.252807 
L 125.986068 282.392858 
L 127.289901 288.743192 
L 128.593735 293.040175 
L 129.897568 289.055776 
L 131.201402 291.251609 
L 132.505235 292.482191 
L 133.809069 279.757531 
L 135.112903 289.008657 
L 136.416736 290.89333 
L 137.72057 292.381948 
L 139.024403 290.58205 
L 140.328237 291.229389 
L 141.63207 289.29638 
L 142.935904 292.535573 
L 144.239737 292.661183 
L 145.543571 284.955814 
L 146.847404 292.413459 
L 148.151238 292.429178 
L 149.455071 283.509848 
L 150.758905 292.650967 
L 152.062738 294.203857 
L 153.366572 292.83746 
L 154.670405 293.47967 
L 155.974239 288.114022 
L 157.278072 285.494506 
L 158.581906 292.665462 
L 159.885739 294.931804 
L 162.493406 292.167663 
L 165.101073 293.716819 
L 166.404907 293.829931 
L 167.70874 290.100307 
L 169.012574 294.311813 
L 170.316407 294.340852 
L 171.620241 293.718837 
L 172.924074 287.981329 
L 174.227908 294.896683 
L 175.531742 292.376197 
L 176.835575 285.036501 
L 178.139409 292.878927 
L 179.443242 287.579416 
L 180.747076 289.829539 
L 182.050909 290.421448 
L 183.354743 292.218154 
L 184.658576 292.969645 
L 185.96241 293.381345 
L 187.266243 293.414589 
L 188.570077 290.393337 
L 189.87391 294.112084 
L 191.177744 291.233986 
L 192.481577 294.560327 
L 193.785411 292.172914 
L 195.089244 292.149898 
L 196.393078 291.372677 
L 197.696911 293.667183 
L 199.000745 294.406826 
L 200.304578 293.73754 
L 201.608412 292.905772 
L 202.912245 288.519244 
L 204.216079 291.72435 
L 205.519912 294.140062 
L 206.823746 294.259641 
L 208.127579 291.765991 
L 209.431413 293.873164 
L 210.735246 293.767351 
L 212.03908 292.583264 
L 213.342913 294.450678 
L 214.646747 291.065587 
L 215.950581 293.768198 
L 217.254414 286.470787 
L 218.558248 292.391395 
L 219.862081 292.639983 
L 221.165915 289.700762 
L 222.469748 295.215005 
L 223.773582 295.046325 
L 225.077415 289.712628 
L 226.381249 293.183792 
L 227.685082 295.11703 
L 228.988916 283.909224 
L 230.292749 293.888956 
L 232.900416 294.804006 
L 234.20425 291.550543 
L 236.811917 294.897393 
L 238.11575 295.020932 
L 239.419584 291.49251 
L 240.723417 290.096593 
L 242.027251 294.348657 
L 243.331084 294.140078 
L 244.634918 295.072869 
L 245.938751 293.799023 
L 247.242585 294.851336 
L 248.546418 292.552181 
L 249.850252 294.191474 
L 251.154085 294.97572 
L 252.457919 292.991945 
L 253.761752 295.289208 
L 255.065586 294.292522 
L 256.369419 294.822338 
L 257.673253 293.669556 
L 258.977087 290.838678 
L 260.28092 293.22675 
L 261.584754 292.076674 
L 262.888587 293.804871 
L 264.192421 289.17059 
L 265.496254 294.723188 
L 266.800088 292.343093 
L 268.103921 292.014073 
L 269.407755 292.027762 
L 270.711588 294.358908 
L 272.015422 293.019294 
L 273.319255 294.941784 
L 274.623089 295.09412 
L 275.926922 292.740424 
L 277.230756 295.083908 
L 278.534589 294.40376 
L 279.838423 293.863148 
L 281.142256 292.230602 
L 282.44609 292.313472 
L 283.749923 294.006703 
L 285.053757 295.240636 
L 286.35759 294.184314 
L 287.661424 293.37772 
L 288.965257 285.902513 
L 290.269091 291.595258 
L 291.572924 292.991124 
L 292.876758 295.095621 
L 294.180591 294.621693 
L 295.484425 292.136309 
L 296.788258 294.710696 
L 298.092092 293.466129 
L 299.395926 292.776854 
L 300.699759 293.889674 
L 302.003593 295.253321 
L 303.307426 293.214141 
L 304.61126 293.614804 
L 305.915093 294.245683 
L 307.218927 294.580584 
L 308.52276 293.489191 
L 309.826594 294.239787 
L 311.130427 292.490323 
L 312.434261 293.293912 
L 313.738094 295.072304 
L 315.041928 294.996068 
L 316.345761 295.398488 
L 317.649595 295.283434 
L 318.953428 294.702946 
L 320.257262 295.255205 
L 321.561095 291.869406 
L 322.864929 295.303267 
L 324.168762 294.636428 
L 325.472596 295.334957 
L 326.776429 294.773693 
L 328.080263 293.318026 
L 329.384096 295.38475 
L 330.68793 295.449922 
L 331.991763 295.229216 
L 333.295597 293.797071 
L 334.59943 294.488031 
L 335.903264 292.838265 
L 337.207097 294.527576 
L 338.510931 295.436582 
L 339.814765 295.116718 
L 341.118598 292.43464 
L 342.422432 293.963033 
L 343.726265 292.672279 
L 345.030099 295.263722 
L 346.333932 294.766836 
L 347.637766 295.334731 
L 348.941599 293.336269 
L 350.245433 290.78517 
L 351.549266 295.275631 
L 352.8531 294.266839 
L 354.156933 293.768024 
L 355.460767 292.337292 
L 356.7646 294.932948 
L 358.068434 294.660224 
L 359.372267 283.960393 
L 360.676101 294.197852 
L 361.979934 293.807366 
L 363.283768 295.39189 
L 364.587601 294.897172 
L 365.891435 292.42269 
L 367.195268 294.884805 
L 368.499102 293.905367 
L 369.802935 295.350751 
L 371.106769 292.731894 
L 372.410602 293.899799 
L 373.714436 293.78653 
L 375.018269 295.320816 
L 376.322103 295.228503 
L 377.625936 293.876855 
L 378.92977 294.513247 
L 380.233604 293.572106 
L 381.537437 294.179298 
L 382.841271 295.435916 
L 384.145104 292.200509 
L 385.448938 293.555314 
L 386.752771 295.284186 
L 388.056605 295.459558 
L 389.360438 295.251104 
L 390.664272 294.8345 
L 391.968105 293.063324 
L 393.271939 294.584445 
L 394.575772 294.05565 
L 395.879606 295.328888 
L 397.183439 291.105663 
L 398.487273 295.281549 
L 398.487273 295.281549 
" clip-path="url(#ped1437c883)" style="fill: none; stroke: #ff7f0e; stroke-width: 1.5; stroke-linecap: square"/>
   </g>
   <g id="patch_3">
    <path d="M 57.6 307.584 
L 57.6 41.472 
" style="fill: none; stroke: #000000; stroke-width: 0.8; stroke-linejoin: miter; stroke-linecap: square"/>
   </g>
   <g id="patch_4">
    <path d="M 414.72 307.584 
L 414.72 41.472 
" style="fill: none; stroke: #000000; stroke-width: 0.8; stroke-linejoin: miter; stroke-linecap: square"/>
   </g>
   <g id="patch_5">
    <path d="M 57.6 307.584 
L 414.72 307.584 
" style="fill: none; stroke: #000000; stroke-width: 0.8; stroke-linejoin: miter; stroke-linecap: square"/>
   </g>
   <g id="patch_6">
    <path d="M 57.6 41.472 
L 414.72 41.472 
" style="fill: none; stroke: #000000; stroke-width: 0.8; stroke-linejoin: miter; stroke-linecap: square"/>
   </g>
   <g id="text_17">
    <text style="font: 12px 'DejaVu Sans', 'Bitstream Vera Sans', 'Computer Modern Sans Serif', 'Lucida Grande', 'Verdana', 'Geneva', 'Lucid', 'Arial', 'Helvetica', 'Avant Garde', sans-serif; text-anchor: middle" x="236.16" y="35.472" transform="rotate(-0 236.16 35.472)">Loss per Batch Count</text>
   </g>
   <g id="legend_1">
    <g id="patch_7">
     <path d="M 321.345 78.82825 
L 407.72 78.82825 
Q 409.72 78.82825 409.72 76.82825 
L 409.72 48.472 
Q 409.72 46.472 407.72 46.472 
L 321.345 46.472 
Q 319.345 46.472 319.345 48.472 
L 319.345 76.82825 
Q 319.345 78.82825 321.345 78.82825 
z
" style="fill: #ffffff; opacity: 0.8; stroke: #cccccc; stroke-linejoin: miter"/>
    </g>
    <g id="line2d_17">
     <path d="M 323.345 54.570437 
L 333.345 54.570437 
L 343.345 54.570437 
" style="fill: none; stroke: #1f77b4; stroke-width: 1.5; stroke-linecap: square"/>
    </g>
    <g id="text_18">
     <text style="font: 10px 'DejaVu Sans', 'Bitstream Vera Sans', 'Computer Modern Sans Serif', 'Lucida Grande', 'Verdana', 'Geneva', 'Lucid', 'Arial', 'Helvetica', 'Avant Garde', sans-serif; text-anchor: start" x="351.345" y="58.070437" transform="rotate(-0 351.345 58.070437)">Naive FDA</text>
    </g>
    <g id="line2d_18">
     <path d="M 323.345 69.248562 
L 333.345 69.248562 
L 343.345 69.248562 
" style="fill: none; stroke: #ff7f0e; stroke-width: 1.5; stroke-linecap: square"/>
    </g>
    <g id="text_19">
     <text style="font: 10px 'DejaVu Sans', 'Bitstream Vera Sans', 'Computer Modern Sans Serif', 'Lucida Grande', 'Verdana', 'Geneva', 'Lucid', 'Arial', 'Helvetica', 'Avant Garde', sans-serif; text-anchor: start" x="351.345" y="72.748562" transform="rotate(-0 351.345 72.748562)">Linear FDA</text>
    </g>
   </g>
  </g>
 </g>
 <defs>
  <clipPath id="ped1437c883">
   <rect x="57.6" y="41.472" width="357.12" height="266.112"/>
  </clipPath>
 </defs>
</svg>
