<?xml version="1.0" encoding="utf-8" standalone="no"?>
<!DOCTYPE svg PUBLIC "-//W3C//DTD SVG 1.1//EN"
  "http://www.w3.org/Graphics/SVG/1.1/DTD/svg11.dtd">
<svg xmlns:xlink="http://www.w3.org/1999/xlink" width="460.8pt" height="345.6pt" viewBox="0 0 460.8 345.6" xmlns="http://www.w3.org/2000/svg" version="1.1">
 <metadata>
  <rdf:RDF xmlns:dc="http://purl.org/dc/elements/1.1/" xmlns:cc="http://creativecommons.org/ns#" xmlns:rdf="http://www.w3.org/1999/02/22-rdf-syntax-ns#">
   <cc:Work>
    <dc:type rdf:resource="http://purl.org/dc/dcmitype/StillImage"/>
    <dc:date>2023-08-23T20:36:55.943753</dc:date>
    <dc:format>image/svg+xml</dc:format>
    <dc:creator>
     <cc:Agent>
      <dc:title>Matplotlib v3.7.2, https://matplotlib.org/</dc:title>
     </cc:Agent>
    </dc:creator>
   </cc:Work>
  </rdf:RDF>
 </metadata>
 <defs>
  <style type="text/css">*{stroke-linejoin: round; stroke-linecap: butt}</style>
 </defs>
 <g id="figure_1">
  <g id="patch_1">
   <path d="M 0 345.6 
L 460.8 345.6 
L 460.8 0 
L 0 0 
z
" style="fill: #ffffff"/>
  </g>
  <g id="axes_1">
   <g id="patch_2">
    <path d="M 57.6 307.584 
L 414.72 307.584 
L 414.72 41.472 
L 57.6 41.472 
z
" style="fill: #ffffff"/>
   </g>
   <g id="matplotlib.axis_1">
    <g id="xtick_1">
     <g id="line2d_1">
      <defs>
       <path id="m3c6dcdebdc" d="M 0 0 
L 0 3.5 
" style="stroke: #000000; stroke-width: 0.8"/>
      </defs>
      <g>
       <use xlink:href="#m3c6dcdebdc" x="73.832727" y="307.584" style="stroke: #000000; stroke-width: 0.8"/>
      </g>
     </g>
     <g id="text_1">
      <text style="font: 10px 'DejaVu Sans', 'Bitstream Vera Sans', 'Computer Modern Sans Serif', 'Lucida Grande', 'Verdana', 'Geneva', 'Lucid', 'Arial', 'Helvetica', 'Avant Garde', sans-serif; text-anchor: middle" x="73.832727" y="322.182437" transform="rotate(-0 73.832727 322.182437)">0</text>
     </g>
    </g>
    <g id="xtick_2">
     <g id="line2d_2">
      <g>
       <use xlink:href="#m3c6dcdebdc" x="114.577525" y="307.584" style="stroke: #000000; stroke-width: 0.8"/>
      </g>
     </g>
     <g id="text_2">
      <text style="font: 10px 'DejaVu Sans', 'Bitstream Vera Sans', 'Computer Modern Sans Serif', 'Lucida Grande', 'Verdana', 'Geneva', 'Lucid', 'Arial', 'Helvetica', 'Avant Garde', sans-serif; text-anchor: middle" x="114.577525" y="322.182437" transform="rotate(-0 114.577525 322.182437)">2500</text>
     </g>
    </g>
    <g id="xtick_3">
     <g id="line2d_3">
      <g>
       <use xlink:href="#m3c6dcdebdc" x="155.322322" y="307.584" style="stroke: #000000; stroke-width: 0.8"/>
      </g>
     </g>
     <g id="text_3">
      <text style="font: 10px 'DejaVu Sans', 'Bitstream Vera Sans', 'Computer Modern Sans Serif', 'Lucida Grande', 'Verdana', 'Geneva', 'Lucid', 'Arial', 'Helvetica', 'Avant Garde', sans-serif; text-anchor: middle" x="155.322322" y="322.182437" transform="rotate(-0 155.322322 322.182437)">5000</text>
     </g>
    </g>
    <g id="xtick_4">
     <g id="line2d_4">
      <g>
       <use xlink:href="#m3c6dcdebdc" x="196.067119" y="307.584" style="stroke: #000000; stroke-width: 0.8"/>
      </g>
     </g>
     <g id="text_4">
      <text style="font: 10px 'DejaVu Sans', 'Bitstream Vera Sans', 'Computer Modern Sans Serif', 'Lucida Grande', 'Verdana', 'Geneva', 'Lucid', 'Arial', 'Helvetica', 'Avant Garde', sans-serif; text-anchor: middle" x="196.067119" y="322.182437" transform="rotate(-0 196.067119 322.182437)">7500</text>
     </g>
    </g>
    <g id="xtick_5">
     <g id="line2d_5">
      <g>
       <use xlink:href="#m3c6dcdebdc" x="236.811917" y="307.584" style="stroke: #000000; stroke-width: 0.8"/>
      </g>
     </g>
     <g id="text_5">
      <text style="font: 10px 'DejaVu Sans', 'Bitstream Vera Sans', 'Computer Modern Sans Serif', 'Lucida Grande', 'Verdana', 'Geneva', 'Lucid', 'Arial', 'Helvetica', 'Avant Garde', sans-serif; text-anchor: middle" x="236.811917" y="322.182437" transform="rotate(-0 236.811917 322.182437)">10000</text>
     </g>
    </g>
    <g id="xtick_6">
     <g id="line2d_6">
      <g>
       <use xlink:href="#m3c6dcdebdc" x="277.556714" y="307.584" style="stroke: #000000; stroke-width: 0.8"/>
      </g>
     </g>
     <g id="text_6">
      <text style="font: 10px 'DejaVu Sans', 'Bitstream Vera Sans', 'Computer Modern Sans Serif', 'Lucida Grande', 'Verdana', 'Geneva', 'Lucid', 'Arial', 'Helvetica', 'Avant Garde', sans-serif; text-anchor: middle" x="277.556714" y="322.182437" transform="rotate(-0 277.556714 322.182437)">12500</text>
     </g>
    </g>
    <g id="xtick_7">
     <g id="line2d_7">
      <g>
       <use xlink:href="#m3c6dcdebdc" x="318.301512" y="307.584" style="stroke: #000000; stroke-width: 0.8"/>
      </g>
     </g>
     <g id="text_7">
      <text style="font: 10px 'DejaVu Sans', 'Bitstream Vera Sans', 'Computer Modern Sans Serif', 'Lucida Grande', 'Verdana', 'Geneva', 'Lucid', 'Arial', 'Helvetica', 'Avant Garde', sans-serif; text-anchor: middle" x="318.301512" y="322.182437" transform="rotate(-0 318.301512 322.182437)">15000</text>
     </g>
    </g>
    <g id="xtick_8">
     <g id="line2d_8">
      <g>
       <use xlink:href="#m3c6dcdebdc" x="359.046309" y="307.584" style="stroke: #000000; stroke-width: 0.8"/>
      </g>
     </g>
     <g id="text_8">
      <text style="font: 10px 'DejaVu Sans', 'Bitstream Vera Sans', 'Computer Modern Sans Serif', 'Lucida Grande', 'Verdana', 'Geneva', 'Lucid', 'Arial', 'Helvetica', 'Avant Garde', sans-serif; text-anchor: middle" x="359.046309" y="322.182437" transform="rotate(-0 359.046309 322.182437)">17500</text>
     </g>
    </g>
    <g id="xtick_9">
     <g id="line2d_9">
      <g>
       <use xlink:href="#m3c6dcdebdc" x="399.791106" y="307.584" style="stroke: #000000; stroke-width: 0.8"/>
      </g>
     </g>
     <g id="text_9">
      <text style="font: 10px 'DejaVu Sans', 'Bitstream Vera Sans', 'Computer Modern Sans Serif', 'Lucida Grande', 'Verdana', 'Geneva', 'Lucid', 'Arial', 'Helvetica', 'Avant Garde', sans-serif; text-anchor: middle" x="399.791106" y="322.182437" transform="rotate(-0 399.791106 322.182437)">20000</text>
     </g>
    </g>
    <g id="text_10">
     <text style="font: 10px 'DejaVu Sans', 'Bitstream Vera Sans', 'Computer Modern Sans Serif', 'Lucida Grande', 'Verdana', 'Geneva', 'Lucid', 'Arial', 'Helvetica', 'Avant Garde', sans-serif; text-anchor: middle" x="236.16" y="335.860562" transform="rotate(-0 236.16 335.860562)">Steps / Batch Count</text>
    </g>
   </g>
   <g id="matplotlib.axis_2">
    <g id="ytick_1">
     <g id="line2d_10">
      <defs>
       <path id="mea9b1cd537" d="M 0 0 
L -3.5 0 
" style="stroke: #000000; stroke-width: 0.8"/>
      </defs>
      <g>
       <use xlink:href="#mea9b1cd537" x="57.6" y="295.493837" style="stroke: #000000; stroke-width: 0.8"/>
      </g>
     </g>
     <g id="text_11">
      <text style="font: 10px 'DejaVu Sans', 'Bitstream Vera Sans', 'Computer Modern Sans Serif', 'Lucida Grande', 'Verdana', 'Geneva', 'Lucid', 'Arial', 'Helvetica', 'Avant Garde', sans-serif; text-anchor: end" x="50.6" y="299.293055" transform="rotate(-0 50.6 299.293055)">0.0</text>
     </g>
    </g>
    <g id="ytick_2">
     <g id="line2d_11">
      <g>
       <use xlink:href="#mea9b1cd537" x="57.6" y="243.470483" style="stroke: #000000; stroke-width: 0.8"/>
      </g>
     </g>
     <g id="text_12">
      <text style="font: 10px 'DejaVu Sans', 'Bitstream Vera Sans', 'Computer Modern Sans Serif', 'Lucida Grande', 'Verdana', 'Geneva', 'Lucid', 'Arial', 'Helvetica', 'Avant Garde', sans-serif; text-anchor: end" x="50.6" y="247.269701" transform="rotate(-0 50.6 247.269701)">0.5</text>
     </g>
    </g>
    <g id="ytick_3">
     <g id="line2d_12">
      <g>
       <use xlink:href="#mea9b1cd537" x="57.6" y="191.447129" style="stroke: #000000; stroke-width: 0.8"/>
      </g>
     </g>
     <g id="text_13">
      <text style="font: 10px 'DejaVu Sans', 'Bitstream Vera Sans', 'Computer Modern Sans Serif', 'Lucida Grande', 'Verdana', 'Geneva', 'Lucid', 'Arial', 'Helvetica', 'Avant Garde', sans-serif; text-anchor: end" x="50.6" y="195.246347" transform="rotate(-0 50.6 195.246347)">1.0</text>
     </g>
    </g>
    <g id="ytick_4">
     <g id="line2d_13">
      <g>
       <use xlink:href="#mea9b1cd537" x="57.6" y="139.423775" style="stroke: #000000; stroke-width: 0.8"/>
      </g>
     </g>
     <g id="text_14">
      <text style="font: 10px 'DejaVu Sans', 'Bitstream Vera Sans', 'Computer Modern Sans Serif', 'Lucida Grande', 'Verdana', 'Geneva', 'Lucid', 'Arial', 'Helvetica', 'Avant Garde', sans-serif; text-anchor: end" x="50.6" y="143.222993" transform="rotate(-0 50.6 143.222993)">1.5</text>
     </g>
    </g>
    <g id="ytick_5">
     <g id="line2d_14">
      <g>
       <use xlink:href="#mea9b1cd537" x="57.6" y="87.400421" style="stroke: #000000; stroke-width: 0.8"/>
      </g>
     </g>
     <g id="text_15">
      <text style="font: 10px 'DejaVu Sans', 'Bitstream Vera Sans', 'Computer Modern Sans Serif', 'Lucida Grande', 'Verdana', 'Geneva', 'Lucid', 'Arial', 'Helvetica', 'Avant Garde', sans-serif; text-anchor: end" x="50.6" y="91.199639" transform="rotate(-0 50.6 91.199639)">2.0</text>
     </g>
    </g>
    <g id="text_16">
     <text style="font: 10px 'DejaVu Sans', 'Bitstream Vera Sans', 'Computer Modern Sans Serif', 'Lucida Grande', 'Verdana', 'Geneva', 'Lucid', 'Arial', 'Helvetica', 'Avant Garde', sans-serif; text-anchor: middle" x="28.617188" y="174.528" transform="rotate(-90 28.617188 174.528)">Loss</text>
    </g>
   </g>
   <g id="line2d_15">
    <path d="M 73.832727 53.568 
L 75.136561 199.130052 
L 76.440394 253.998358 
L 77.744228 269.509661 
L 79.048061 265.141625 
L 80.351895 264.474357 
L 81.655728 268.490563 
L 82.959562 286.362558 
L 84.263395 279.998113 
L 85.567229 279.235751 
L 86.871062 281.550485 
L 88.174896 283.601103 
L 89.478729 272.5762 
L 90.782563 281.971266 
L 92.086396 289.505997 
L 93.39023 283.450094 
L 94.694064 285.347999 
L 95.997897 279.926359 
L 97.301731 288.893455 
L 98.605564 288.259487 
L 99.909398 282.085242 
L 101.213231 286.376004 
L 102.517065 280.316828 
L 103.820898 289.283502 
L 105.124732 291.135668 
L 106.428565 291.683941 
L 107.732399 291.638788 
L 109.036232 287.254513 
L 110.340066 285.882828 
L 111.643899 284.152505 
L 112.947733 287.634069 
L 114.251566 280.072237 
L 115.5554 287.445676 
L 116.859233 280.588147 
L 118.163067 292.509679 
L 119.4669 286.059377 
L 120.770734 290.862602 
L 122.074567 287.01234 
L 123.378401 289.725517 
L 124.682234 288.139266 
L 127.289901 286.285069 
L 128.593735 290.493619 
L 129.897568 290.333002 
L 131.201402 288.605915 
L 132.505235 288.643896 
L 133.809069 291.003535 
L 135.112903 292.735749 
L 136.416736 287.146453 
L 137.72057 290.774282 
L 139.024403 291.819758 
L 140.328237 292.282606 
L 141.63207 288.340348 
L 142.935904 288.418625 
L 144.239737 293.218155 
L 145.543571 293.550325 
L 146.847404 291.95324 
L 148.151238 291.825638 
L 149.455071 291.825482 
L 150.758905 284.153077 
L 152.062738 285.962691 
L 153.366572 286.14764 
L 154.670405 291.335208 
L 155.974239 288.128227 
L 157.278072 293.181215 
L 159.885739 292.779739 
L 161.189573 282.166337 
L 162.493406 294.381321 
L 163.79724 290.866202 
L 165.101073 291.633333 
L 166.404907 289.300903 
L 167.70874 292.15605 
L 169.012574 292.889659 
L 170.316407 293.25656 
L 171.620241 282.28381 
L 172.924074 289.768977 
L 174.227908 288.542181 
L 175.531742 291.60391 
L 176.835575 294.300543 
L 178.139409 292.669394 
L 179.443242 291.889858 
L 180.747076 291.896084 
L 182.050909 291.342243 
L 183.354743 294.284913 
L 184.658576 288.324886 
L 185.96241 293.600326 
L 187.266243 288.798118 
L 188.570077 292.936787 
L 189.87391 292.358711 
L 192.481577 292.521958 
L 193.785411 287.387021 
L 195.089244 286.246268 
L 196.393078 291.231317 
L 197.696911 287.925695 
L 199.000745 294.493729 
L 200.304578 292.120411 
L 201.608412 292.996069 
L 202.912245 289.997655 
L 204.216079 291.96332 
L 205.519912 294.497359 
L 206.823746 295.250502 
L 208.127579 290.117396 
L 209.431413 288.719501 
L 210.735246 293.746912 
L 212.03908 287.327405 
L 213.342913 292.698917 
L 214.646747 293.942302 
L 215.950581 293.422989 
L 217.254414 294.428132 
L 218.558248 290.42235 
L 219.862081 294.456923 
L 221.165915 294.688384 
L 222.469748 293.862335 
L 223.773582 294.093779 
L 225.077415 294.583742 
L 226.381249 295.294796 
L 227.685082 294.916562 
L 228.988916 289.670369 
L 230.292749 291.638266 
L 231.596583 294.042366 
L 232.900416 292.607684 
L 234.20425 292.348709 
L 235.508083 295.004711 
L 236.811917 293.986193 
L 238.11575 289.7161 
L 239.419584 294.607158 
L 240.723417 290.331847 
L 242.027251 292.637233 
L 243.331084 291.421327 
L 244.634918 291.262211 
L 245.938751 295.140522 
L 247.242585 295.242942 
L 248.546418 293.107101 
L 249.850252 293.322934 
L 251.154085 295.274512 
L 252.457919 293.700683 
L 253.761752 295.177704 
L 256.369419 288.63105 
L 257.673253 294.386721 
L 258.977087 295.209822 
L 260.28092 291.608495 
L 261.584754 292.764078 
L 262.888587 294.744724 
L 264.192421 294.856716 
L 265.496254 294.547736 
L 266.800088 295.216911 
L 268.103921 293.695072 
L 269.407755 294.722921 
L 270.711588 294.439736 
L 272.015422 295.147423 
L 273.319255 293.845275 
L 274.623089 294.51997 
L 275.926922 294.102628 
L 277.230756 294.273529 
L 278.534589 292.720784 
L 279.838423 292.960985 
L 281.142256 295.302669 
L 283.749923 290.044665 
L 285.053757 294.470456 
L 286.35759 293.858876 
L 287.661424 288.734075 
L 288.965257 295.012757 
L 290.269091 289.586852 
L 291.572924 290.62238 
L 292.876758 293.953948 
L 294.180591 294.378838 
L 295.484425 295.076508 
L 296.788258 291.068913 
L 298.092092 295.244973 
L 299.395926 294.788016 
L 300.699759 289.302578 
L 302.003593 294.265082 
L 303.307426 293.731819 
L 304.61126 295.243232 
L 305.915093 294.925426 
L 307.218927 293.882698 
L 308.52276 295.235413 
L 309.826594 291.699806 
L 311.130427 294.615712 
L 312.434261 293.34341 
L 313.738094 295.181095 
L 315.041928 291.077494 
L 316.345761 294.326698 
L 317.649595 294.680301 
L 320.257262 291.450743 
L 321.561095 294.115926 
L 322.864929 294.34834 
L 324.168762 291.659588 
L 325.472596 295.176035 
L 326.776429 292.12964 
L 328.080263 290.585998 
L 329.384096 290.760298 
L 330.68793 293.472253 
L 331.991763 293.823795 
L 333.295597 293.407126 
L 334.59943 292.756263 
L 335.903264 294.016111 
L 337.207097 292.160963 
L 338.510931 294.774557 
L 339.814765 294.306773 
L 341.118598 295.133723 
L 342.422432 294.041019 
L 343.726265 294.252944 
L 345.030099 294.736982 
L 346.333932 291.328386 
L 347.637766 294.686313 
L 348.941599 294.459705 
L 350.245433 293.648966 
L 351.549266 295.113709 
L 352.8531 294.051304 
L 354.156933 295.191796 
L 355.460767 293.417592 
L 356.7646 294.03278 
L 358.068434 295.362552 
L 359.372267 290.886988 
L 360.676101 295.389162 
L 361.979934 295.45731 
L 363.283768 295.104036 
L 364.587601 293.251311 
L 365.891435 295.172841 
L 367.195268 290.443649 
L 368.499102 293.877438 
L 369.802935 295.353967 
L 371.106769 283.024083 
L 372.410602 295.036773 
L 373.714436 294.641325 
L 375.018269 290.681729 
L 376.322103 292.499289 
L 377.625936 291.198086 
L 378.92977 293.579631 
L 380.233604 293.079316 
L 381.537437 295.016323 
L 382.841271 294.761536 
L 384.145104 295.488 
L 385.448938 295.333484 
L 386.752771 294.498149 
L 388.056605 290.670178 
L 389.360438 294.903663 
L 390.664272 293.97267 
L 391.968105 294.367567 
L 393.271939 295.424884 
L 394.575772 295.323879 
L 395.879606 295.106506 
L 397.183439 293.677848 
L 398.487273 295.123687 
L 398.487273 295.123687 
" clip-path="url(#pf4018bfafc)" style="fill: none; stroke: #1f77b4; stroke-width: 1.5; stroke-linecap: square"/>
   </g>
   <g id="line2d_16">
    <path d="M 73.832727 55.521467 
L 75.136561 220.504072 
L 76.440394 252.856981 
L 77.744228 264.279228 
L 79.048061 264.212355 
L 81.655728 281.242174 
L 82.959562 268.218616 
L 84.263395 284.162487 
L 85.567229 282.216999 
L 86.871062 289.532358 
L 88.174896 282.465045 
L 89.478729 286.946168 
L 90.782563 288.586617 
L 92.086396 288.073459 
L 93.39023 285.577371 
L 95.997897 286.411895 
L 97.301731 289.397503 
L 98.605564 288.195719 
L 99.909398 284.434224 
L 101.213231 287.3518 
L 102.517065 292.427058 
L 103.820898 286.719666 
L 106.428565 294.192775 
L 107.732399 280.486017 
L 109.036232 278.051285 
L 110.340066 287.787179 
L 111.643899 286.957026 
L 112.947733 291.752762 
L 114.251566 274.121158 
L 115.5554 291.033256 
L 116.859233 290.35012 
L 118.163067 292.434274 
L 119.4669 290.642037 
L 120.770734 293.431652 
L 122.074567 291.219687 
L 123.378401 293.663084 
L 124.682234 291.984468 
L 125.986068 294.084585 
L 127.289901 293.704085 
L 128.593735 289.842424 
L 129.897568 294.401423 
L 131.201402 295.112684 
L 132.505235 292.455896 
L 133.809069 291.549372 
L 135.112903 292.057222 
L 136.416736 293.490341 
L 137.72057 285.962728 
L 139.024403 290.705768 
L 140.328237 292.050874 
L 141.63207 277.161275 
L 142.935904 291.852793 
L 144.239737 292.977494 
L 145.543571 288.73366 
L 146.847404 286.457301 
L 148.151238 294.79784 
L 149.455071 282.131971 
L 150.758905 293.717484 
L 152.062738 288.034885 
L 153.366572 291.799863 
L 154.670405 292.096389 
L 155.974239 286.48391 
L 157.278072 294.970684 
L 158.581906 291.386789 
L 159.885739 294.40734 
L 161.189573 294.462289 
L 162.493406 292.254439 
L 163.79724 290.328313 
L 165.101073 292.680454 
L 166.404907 294.379834 
L 167.70874 292.896628 
L 169.012574 293.703769 
L 170.316407 288.269851 
L 171.620241 292.836334 
L 172.924074 290.230731 
L 174.227908 294.065269 
L 175.531742 291.004935 
L 176.835575 290.621926 
L 178.139409 283.586934 
L 179.443242 292.736222 
L 180.747076 292.724863 
L 182.050909 288.035637 
L 184.658576 294.775525 
L 185.96241 288.835881 
L 187.266243 293.284992 
L 188.570077 289.224422 
L 189.87391 292.523788 
L 191.177744 294.544326 
L 192.481577 294.570232 
L 193.785411 291.735498 
L 195.089244 283.302277 
L 196.393078 294.073775 
L 197.696911 292.25555 
L 199.000745 293.64756 
L 200.304578 291.116423 
L 201.608412 291.099734 
L 202.912245 288.721207 
L 204.216079 292.53577 
L 205.519912 290.999431 
L 206.823746 294.72139 
L 208.127579 295.409191 
L 209.431413 292.174886 
L 210.735246 294.598094 
L 212.03908 293.359865 
L 213.342913 293.56782 
L 214.646747 292.361092 
L 215.950581 293.837629 
L 217.254414 293.414216 
L 218.558248 295.04505 
L 219.862081 286.343279 
L 221.165915 293.989547 
L 222.469748 290.485909 
L 223.773582 294.487894 
L 225.077415 293.833886 
L 226.381249 288.584854 
L 227.685082 294.383811 
L 228.988916 295.248186 
L 230.292749 294.491689 
L 231.596583 295.103179 
L 232.900416 294.952808 
L 234.20425 293.640205 
L 235.508083 295.30534 
L 236.811917 294.746742 
L 238.11575 292.216071 
L 239.419584 291.133937 
L 240.723417 289.79472 
L 242.027251 293.492911 
L 243.331084 292.778892 
L 244.634918 294.493307 
L 247.242585 289.202544 
L 248.546418 294.766834 
L 251.154085 294.706808 
L 252.457919 293.677687 
L 253.761752 293.167601 
L 255.065586 293.126971 
L 256.369419 294.803652 
L 257.673253 293.796123 
L 258.977087 294.871611 
L 260.28092 292.184429 
L 261.584754 295.129416 
L 262.888587 295.003194 
L 264.192421 292.76045 
L 265.496254 294.470575 
L 266.800088 293.31953 
L 269.407755 295.264801 
L 270.711588 294.800275 
L 272.015422 294.65342 
L 273.319255 294.681088 
L 274.623089 294.229494 
L 275.926922 295.397203 
L 278.534589 293.48022 
L 279.838423 293.903692 
L 281.142256 293.487077 
L 282.44609 294.337503 
L 283.749923 290.491018 
L 287.661424 295.13884 
L 288.965257 294.720473 
L 290.269091 295.030442 
L 291.572924 295.075155 
L 292.876758 293.517025 
L 294.180591 290.038428 
L 295.484425 295.272784 
L 296.788258 293.263554 
L 299.395926 295.127253 
L 300.699759 295.094335 
L 302.003593 294.866645 
L 303.307426 292.445003 
L 304.61126 291.851038 
L 305.915093 293.484423 
L 307.218927 294.092708 
L 308.52276 295.006484 
L 309.826594 295.312931 
L 311.130427 295.421385 
L 312.434261 294.000866 
L 313.738094 293.83534 
L 315.041928 295.298487 
L 316.345761 290.910286 
L 317.649595 294.805677 
L 318.953428 293.284376 
L 320.257262 295.277793 
L 321.561095 295.061252 
L 322.864929 295.195429 
L 324.168762 294.170678 
L 325.472596 295.10079 
L 326.776429 293.801484 
L 328.080263 293.954747 
L 329.384096 295.446083 
L 330.68793 290.301244 
L 331.991763 287.529442 
L 333.295597 295.265072 
L 334.59943 294.429436 
L 335.903264 293.148731 
L 338.510931 295.343702 
L 339.814765 294.482853 
L 341.118598 295.221574 
L 342.422432 295.236224 
L 343.726265 294.931022 
L 347.637766 295.414591 
L 348.941599 291.215526 
L 350.245433 294.729493 
L 351.549266 294.735063 
L 352.8531 293.791378 
L 354.156933 290.027078 
L 355.460767 295.35708 
L 356.7646 293.077585 
L 358.068434 295.311035 
L 359.372267 295.056964 
L 360.676101 294.184353 
L 361.979934 295.035991 
L 363.283768 294.804132 
L 364.587601 295.158024 
L 365.891435 294.553705 
L 367.195268 294.394695 
L 368.499102 295.324884 
L 369.802935 295.457741 
L 372.410602 295.028395 
L 373.714436 295.166167 
L 375.018269 292.914615 
L 376.322103 295.454832 
L 377.625936 292.337655 
L 378.92977 294.313502 
L 380.233604 295.189548 
L 381.537437 294.38539 
L 382.841271 294.133564 
L 384.145104 295.454807 
L 385.448938 294.690193 
L 386.752771 293.428427 
L 388.056605 295.443419 
L 389.360438 295.086224 
L 390.664272 295.140598 
L 391.968105 294.914208 
L 393.271939 293.308373 
L 394.575772 295.173916 
L 395.879606 291.682716 
L 397.183439 294.236874 
L 398.487273 295.361655 
L 398.487273 295.361655 
" clip-path="url(#pf4018bfafc)" style="fill: none; stroke: #ff7f0e; stroke-width: 1.5; stroke-linecap: square"/>
   </g>
   <g id="patch_3">
    <path d="M 57.6 307.584 
L 57.6 41.472 
" style="fill: none; stroke: #000000; stroke-width: 0.8; stroke-linejoin: miter; stroke-linecap: square"/>
   </g>
   <g id="patch_4">
    <path d="M 414.72 307.584 
L 414.72 41.472 
" style="fill: none; stroke: #000000; stroke-width: 0.8; stroke-linejoin: miter; stroke-linecap: square"/>
   </g>
   <g id="patch_5">
    <path d="M 57.6 307.584 
L 414.72 307.584 
" style="fill: none; stroke: #000000; stroke-width: 0.8; stroke-linejoin: miter; stroke-linecap: square"/>
   </g>
   <g id="patch_6">
    <path d="M 57.6 41.472 
L 414.72 41.472 
" style="fill: none; stroke: #000000; stroke-width: 0.8; stroke-linejoin: miter; stroke-linecap: square"/>
   </g>
   <g id="text_17">
    <text style="font: 12px 'DejaVu Sans', 'Bitstream Vera Sans', 'Computer Modern Sans Serif', 'Lucida Grande', 'Verdana', 'Geneva', 'Lucid', 'Arial', 'Helvetica', 'Avant Garde', sans-serif; text-anchor: middle" x="236.16" y="35.472" transform="rotate(-0 236.16 35.472)">Loss per Batch Count</text>
   </g>
   <g id="legend_1">
    <g id="patch_7">
     <path d="M 321.345 78.82825 
L 407.72 78.82825 
Q 409.72 78.82825 409.72 76.82825 
L 409.72 48.472 
Q 409.72 46.472 407.72 46.472 
L 321.345 46.472 
Q 319.345 46.472 319.345 48.472 
L 319.345 76.82825 
Q 319.345 78.82825 321.345 78.82825 
z
" style="fill: #ffffff; opacity: 0.8; stroke: #cccccc; stroke-linejoin: miter"/>
    </g>
    <g id="line2d_17">
     <path d="M 323.345 54.570437 
L 333.345 54.570437 
L 343.345 54.570437 
" style="fill: none; stroke: #1f77b4; stroke-width: 1.5; stroke-linecap: square"/>
    </g>
    <g id="text_18">
     <text style="font: 10px 'DejaVu Sans', 'Bitstream Vera Sans', 'Computer Modern Sans Serif', 'Lucida Grande', 'Verdana', 'Geneva', 'Lucid', 'Arial', 'Helvetica', 'Avant Garde', sans-serif; text-anchor: start" x="351.345" y="58.070437" transform="rotate(-0 351.345 58.070437)">Naive FDA</text>
    </g>
    <g id="line2d_18">
     <path d="M 323.345 69.248562 
L 333.345 69.248562 
L 343.345 69.248562 
" style="fill: none; stroke: #ff7f0e; stroke-width: 1.5; stroke-linecap: square"/>
    </g>
    <g id="text_19">
     <text style="font: 10px 'DejaVu Sans', 'Bitstream Vera Sans', 'Computer Modern Sans Serif', 'Lucida Grande', 'Verdana', 'Geneva', 'Lucid', 'Arial', 'Helvetica', 'Avant Garde', sans-serif; text-anchor: start" x="351.345" y="72.748562" transform="rotate(-0 351.345 72.748562)">Linear FDA</text>
    </g>
   </g>
  </g>
 </g>
 <defs>
  <clipPath id="pf4018bfafc">
   <rect x="57.6" y="41.472" width="357.12" height="266.112"/>
  </clipPath>
 </defs>
</svg>
