<?xml version="1.0" encoding="utf-8" standalone="no"?>
<!DOCTYPE svg PUBLIC "-//W3C//DTD SVG 1.1//EN"
  "http://www.w3.org/Graphics/SVG/1.1/DTD/svg11.dtd">
<svg xmlns:xlink="http://www.w3.org/1999/xlink" width="460.8pt" height="345.6pt" viewBox="0 0 460.8 345.6" xmlns="http://www.w3.org/2000/svg" version="1.1">
 <metadata>
  <rdf:RDF xmlns:dc="http://purl.org/dc/elements/1.1/" xmlns:cc="http://creativecommons.org/ns#" xmlns:rdf="http://www.w3.org/1999/02/22-rdf-syntax-ns#">
   <cc:Work>
    <dc:type rdf:resource="http://purl.org/dc/dcmitype/StillImage"/>
    <dc:date>2023-08-23T17:01:00.758983</dc:date>
    <dc:format>image/svg+xml</dc:format>
    <dc:creator>
     <cc:Agent>
      <dc:title>Matplotlib v3.7.2, https://matplotlib.org/</dc:title>
     </cc:Agent>
    </dc:creator>
   </cc:Work>
  </rdf:RDF>
 </metadata>
 <defs>
  <style type="text/css">*{stroke-linejoin: round; stroke-linecap: butt}</style>
 </defs>
 <g id="figure_1">
  <g id="patch_1">
   <path d="M 0 345.6 
L 460.8 345.6 
L 460.8 0 
L 0 0 
z
" style="fill: #ffffff"/>
  </g>
  <g id="axes_1">
   <g id="patch_2">
    <path d="M 57.6 307.584 
L 414.72 307.584 
L 414.72 41.472 
L 57.6 41.472 
z
" style="fill: #ffffff"/>
   </g>
   <g id="matplotlib.axis_1">
    <g id="xtick_1">
     <g id="line2d_1">
      <defs>
       <path id="m7fe2394078" d="M 0 0 
L 0 3.5 
" style="stroke: #000000; stroke-width: 0.8"/>
      </defs>
      <g>
       <use xlink:href="#m7fe2394078" x="73.832727" y="307.584" style="stroke: #000000; stroke-width: 0.8"/>
      </g>
     </g>
     <g id="text_1">
      <text style="font: 10px 'DejaVu Sans', 'Bitstream Vera Sans', 'Computer Modern Sans Serif', 'Lucida Grande', 'Verdana', 'Geneva', 'Lucid', 'Arial', 'Helvetica', 'Avant Garde', sans-serif; text-anchor: middle" x="73.832727" y="322.182437" transform="rotate(-0 73.832727 322.182437)">0</text>
     </g>
    </g>
    <g id="xtick_2">
     <g id="line2d_2">
      <g>
       <use xlink:href="#m7fe2394078" x="138.893758" y="307.584" style="stroke: #000000; stroke-width: 0.8"/>
      </g>
     </g>
     <g id="text_2">
      <text style="font: 10px 'DejaVu Sans', 'Bitstream Vera Sans', 'Computer Modern Sans Serif', 'Lucida Grande', 'Verdana', 'Geneva', 'Lucid', 'Arial', 'Helvetica', 'Avant Garde', sans-serif; text-anchor: middle" x="138.893758" y="322.182437" transform="rotate(-0 138.893758 322.182437)">2000</text>
     </g>
    </g>
    <g id="xtick_3">
     <g id="line2d_3">
      <g>
       <use xlink:href="#m7fe2394078" x="203.95479" y="307.584" style="stroke: #000000; stroke-width: 0.8"/>
      </g>
     </g>
     <g id="text_3">
      <text style="font: 10px 'DejaVu Sans', 'Bitstream Vera Sans', 'Computer Modern Sans Serif', 'Lucida Grande', 'Verdana', 'Geneva', 'Lucid', 'Arial', 'Helvetica', 'Avant Garde', sans-serif; text-anchor: middle" x="203.95479" y="322.182437" transform="rotate(-0 203.95479 322.182437)">4000</text>
     </g>
    </g>
    <g id="xtick_4">
     <g id="line2d_4">
      <g>
       <use xlink:href="#m7fe2394078" x="269.015821" y="307.584" style="stroke: #000000; stroke-width: 0.8"/>
      </g>
     </g>
     <g id="text_4">
      <text style="font: 10px 'DejaVu Sans', 'Bitstream Vera Sans', 'Computer Modern Sans Serif', 'Lucida Grande', 'Verdana', 'Geneva', 'Lucid', 'Arial', 'Helvetica', 'Avant Garde', sans-serif; text-anchor: middle" x="269.015821" y="322.182437" transform="rotate(-0 269.015821 322.182437)">6000</text>
     </g>
    </g>
    <g id="xtick_5">
     <g id="line2d_5">
      <g>
       <use xlink:href="#m7fe2394078" x="334.076852" y="307.584" style="stroke: #000000; stroke-width: 0.8"/>
      </g>
     </g>
     <g id="text_5">
      <text style="font: 10px 'DejaVu Sans', 'Bitstream Vera Sans', 'Computer Modern Sans Serif', 'Lucida Grande', 'Verdana', 'Geneva', 'Lucid', 'Arial', 'Helvetica', 'Avant Garde', sans-serif; text-anchor: middle" x="334.076852" y="322.182437" transform="rotate(-0 334.076852 322.182437)">8000</text>
     </g>
    </g>
    <g id="xtick_6">
     <g id="line2d_6">
      <g>
       <use xlink:href="#m7fe2394078" x="399.137883" y="307.584" style="stroke: #000000; stroke-width: 0.8"/>
      </g>
     </g>
     <g id="text_6">
      <text style="font: 10px 'DejaVu Sans', 'Bitstream Vera Sans', 'Computer Modern Sans Serif', 'Lucida Grande', 'Verdana', 'Geneva', 'Lucid', 'Arial', 'Helvetica', 'Avant Garde', sans-serif; text-anchor: middle" x="399.137883" y="322.182437" transform="rotate(-0 399.137883 322.182437)">10000</text>
     </g>
    </g>
    <g id="text_7">
     <text style="font: 10px 'DejaVu Sans', 'Bitstream Vera Sans', 'Computer Modern Sans Serif', 'Lucida Grande', 'Verdana', 'Geneva', 'Lucid', 'Arial', 'Helvetica', 'Avant Garde', sans-serif; text-anchor: middle" x="236.16" y="335.860562" transform="rotate(-0 236.16 335.860562)">Steps / Batch Count</text>
    </g>
   </g>
   <g id="matplotlib.axis_2">
    <g id="ytick_1">
     <g id="line2d_7">
      <defs>
       <path id="m3ce200a201" d="M 0 0 
L -3.5 0 
" style="stroke: #000000; stroke-width: 0.8"/>
      </defs>
      <g>
       <use xlink:href="#m3ce200a201" x="57.6" y="295.647473" style="stroke: #000000; stroke-width: 0.8"/>
      </g>
     </g>
     <g id="text_8">
      <text style="font: 10px 'DejaVu Sans', 'Bitstream Vera Sans', 'Computer Modern Sans Serif', 'Lucida Grande', 'Verdana', 'Geneva', 'Lucid', 'Arial', 'Helvetica', 'Avant Garde', sans-serif; text-anchor: end" x="50.6" y="299.446691" transform="rotate(-0 50.6 299.446691)">0</text>
     </g>
    </g>
    <g id="ytick_2">
     <g id="line2d_8">
      <g>
       <use xlink:href="#m3ce200a201" x="57.6" y="263.752944" style="stroke: #000000; stroke-width: 0.8"/>
      </g>
     </g>
     <g id="text_9">
      <text style="font: 10px 'DejaVu Sans', 'Bitstream Vera Sans', 'Computer Modern Sans Serif', 'Lucida Grande', 'Verdana', 'Geneva', 'Lucid', 'Arial', 'Helvetica', 'Avant Garde', sans-serif; text-anchor: end" x="50.6" y="267.552163" transform="rotate(-0 50.6 267.552163)">200</text>
     </g>
    </g>
    <g id="ytick_3">
     <g id="line2d_9">
      <g>
       <use xlink:href="#m3ce200a201" x="57.6" y="231.858415" style="stroke: #000000; stroke-width: 0.8"/>
      </g>
     </g>
     <g id="text_10">
      <text style="font: 10px 'DejaVu Sans', 'Bitstream Vera Sans', 'Computer Modern Sans Serif', 'Lucida Grande', 'Verdana', 'Geneva', 'Lucid', 'Arial', 'Helvetica', 'Avant Garde', sans-serif; text-anchor: end" x="50.6" y="235.657634" transform="rotate(-0 50.6 235.657634)">400</text>
     </g>
    </g>
    <g id="ytick_4">
     <g id="line2d_10">
      <g>
       <use xlink:href="#m3ce200a201" x="57.6" y="199.963887" style="stroke: #000000; stroke-width: 0.8"/>
      </g>
     </g>
     <g id="text_11">
      <text style="font: 10px 'DejaVu Sans', 'Bitstream Vera Sans', 'Computer Modern Sans Serif', 'Lucida Grande', 'Verdana', 'Geneva', 'Lucid', 'Arial', 'Helvetica', 'Avant Garde', sans-serif; text-anchor: end" x="50.6" y="203.763105" transform="rotate(-0 50.6 203.763105)">600</text>
     </g>
    </g>
    <g id="ytick_5">
     <g id="line2d_11">
      <g>
       <use xlink:href="#m3ce200a201" x="57.6" y="168.069358" style="stroke: #000000; stroke-width: 0.8"/>
      </g>
     </g>
     <g id="text_12">
      <text style="font: 10px 'DejaVu Sans', 'Bitstream Vera Sans', 'Computer Modern Sans Serif', 'Lucida Grande', 'Verdana', 'Geneva', 'Lucid', 'Arial', 'Helvetica', 'Avant Garde', sans-serif; text-anchor: end" x="50.6" y="171.868577" transform="rotate(-0 50.6 171.868577)">800</text>
     </g>
    </g>
    <g id="ytick_6">
     <g id="line2d_12">
      <g>
       <use xlink:href="#m3ce200a201" x="57.6" y="136.174829" style="stroke: #000000; stroke-width: 0.8"/>
      </g>
     </g>
     <g id="text_13">
      <text style="font: 10px 'DejaVu Sans', 'Bitstream Vera Sans', 'Computer Modern Sans Serif', 'Lucida Grande', 'Verdana', 'Geneva', 'Lucid', 'Arial', 'Helvetica', 'Avant Garde', sans-serif; text-anchor: end" x="50.6" y="139.974048" transform="rotate(-0 50.6 139.974048)">1000</text>
     </g>
    </g>
    <g id="ytick_7">
     <g id="line2d_13">
      <g>
       <use xlink:href="#m3ce200a201" x="57.6" y="104.280301" style="stroke: #000000; stroke-width: 0.8"/>
      </g>
     </g>
     <g id="text_14">
      <text style="font: 10px 'DejaVu Sans', 'Bitstream Vera Sans', 'Computer Modern Sans Serif', 'Lucida Grande', 'Verdana', 'Geneva', 'Lucid', 'Arial', 'Helvetica', 'Avant Garde', sans-serif; text-anchor: end" x="50.6" y="108.079519" transform="rotate(-0 50.6 108.079519)">1200</text>
     </g>
    </g>
    <g id="ytick_8">
     <g id="line2d_14">
      <g>
       <use xlink:href="#m3ce200a201" x="57.6" y="72.385772" style="stroke: #000000; stroke-width: 0.8"/>
      </g>
     </g>
     <g id="text_15">
      <text style="font: 10px 'DejaVu Sans', 'Bitstream Vera Sans', 'Computer Modern Sans Serif', 'Lucida Grande', 'Verdana', 'Geneva', 'Lucid', 'Arial', 'Helvetica', 'Avant Garde', sans-serif; text-anchor: end" x="50.6" y="76.184991" transform="rotate(-0 50.6 76.184991)">1400</text>
     </g>
    </g>
    <g id="text_16">
     <text style="font: 10px 'DejaVu Sans', 'Bitstream Vera Sans', 'Computer Modern Sans Serif', 'Lucida Grande', 'Verdana', 'Geneva', 'Lucid', 'Arial', 'Helvetica', 'Avant Garde', sans-serif; text-anchor: middle" x="19.070312" y="174.528" transform="rotate(-90 19.070312 174.528)">Synchronizations</text>
    </g>
   </g>
   <g id="line2d_15">
    <path d="M 73.832727 295.488 
L 74.483338 294.052746 
L 76.435169 291.820129 
L 77.085779 291.182239 
L 78.386999 290.225403 
L 79.03761 289.587512 
L 80.33883 288.630676 
L 80.989441 287.992786 
L 82.290661 287.03595 
L 82.941272 286.398059 
L 84.242492 285.441223 
L 84.893103 284.803333 
L 86.194323 283.846497 
L 86.844934 283.208606 
L 87.495544 282.889661 
L 91.399206 280.019154 
L 92.049816 279.381263 
L 94.652257 277.467591 
L 95.302868 276.829701 
L 98.555919 274.437611 
L 99.206529 274.118666 
L 99.85714 273.640248 
L 100.50775 273.321303 
L 106.363243 269.015541 
L 107.013853 268.696596 
L 107.664463 268.058705 
L 108.965684 267.101869 
L 109.616294 266.782924 
L 110.266905 266.145034 
L 110.917515 265.826088 
L 112.218736 264.869252 
L 112.869346 264.550307 
L 113.519956 263.912417 
L 114.170567 263.593471 
L 120.026059 259.28771 
L 120.67667 258.968765 
L 121.32728 258.490347 
L 121.97789 257.852456 
L 127.833383 253.546695 
L 128.483993 253.22775 
L 131.086435 251.314078 
L 131.737045 250.995132 
L 133.688876 249.559879 
L 134.339486 249.240933 
L 134.990097 248.762515 
L 135.640707 248.44357 
L 138.243148 246.529898 
L 138.893758 245.892008 
L 141.4962 243.978336 
L 142.14681 243.659391 
L 146.050472 240.788883 
L 146.701082 240.469938 
L 149.954134 238.077848 
L 150.604744 237.758903 
L 157.110847 232.974724 
L 157.761457 232.336833 
L 161.665119 229.466326 
L 162.31573 229.14738 
L 162.96634 228.668962 
L 163.61695 228.350017 
L 164.267561 227.712127 
L 164.918171 227.393181 
L 165.568781 226.755291 
L 166.219392 226.436345 
L 169.472443 224.044256 
L 170.123053 223.72531 
L 172.074884 222.290057 
L 172.725495 221.971111 
L 173.376105 221.492693 
L 174.026715 221.173748 
L 175.327936 220.216912 
L 175.978546 219.897967 
L 178.580987 217.984295 
L 179.231598 217.66535 
L 179.882208 217.027459 
L 181.834039 215.592206 
L 182.484649 214.954315 
L 183.13526 214.475897 
L 183.78587 214.156952 
L 184.43648 213.519061 
L 188.990752 210.170136 
L 189.641363 209.532245 
L 190.291973 209.053827 
L 190.942583 208.734882 
L 196.147466 204.907539 
L 196.798076 204.588593 
L 198.099297 203.631757 
L 198.749907 203.312812 
L 199.400517 202.674922 
L 200.051128 202.355976 
L 200.701738 201.877558 
L 201.352348 201.239668 
L 202.002959 200.920722 
L 202.653569 200.442305 
L 203.304179 199.804414 
L 203.95479 199.485469 
L 205.906621 198.050215 
L 206.557231 197.73127 
L 207.207841 197.252852 
L 207.858451 196.614961 
L 209.159672 195.658125 
L 209.810282 195.33918 
L 211.111503 194.382344 
L 211.762113 194.063399 
L 213.063334 193.106563 
L 213.713944 192.787618 
L 214.364555 192.3092 
L 215.015165 191.990254 
L 215.665775 191.352364 
L 218.268216 189.438692 
L 218.918827 188.800802 
L 219.569437 188.322384 
L 220.220047 188.003438 
L 222.171878 186.568185 
L 222.822489 186.249239 
L 225.42493 184.335568 
L 226.07554 184.016622 
L 228.027371 182.581368 
L 228.677981 182.262423 
L 229.328592 181.784005 
L 229.979202 181.146115 
L 232.581643 179.232443 
L 233.232254 178.913498 
L 235.834695 176.999826 
L 236.485305 176.361935 
L 237.786526 175.4051 
L 238.437136 175.086154 
L 239.738357 174.129318 
L 240.388967 173.810373 
L 246.89507 169.026194 
L 247.54568 168.388303 
L 248.846901 167.431467 
L 249.497511 166.793577 
L 250.798732 165.836741 
L 251.449342 165.19885 
L 252.099953 164.720432 
L 252.750563 164.082542 
L 254.702394 162.647288 
L 255.353004 162.328343 
L 257.304835 160.893089 
L 257.955445 160.255198 
L 259.256666 159.298363 
L 259.907276 158.660472 
L 267.7146 152.919457 
L 268.36521 152.281566 
L 270.317041 150.846312 
L 270.967652 150.208422 
L 271.618262 149.889477 
L 275.521924 147.018969 
L 276.172534 146.381078 
L 278.774975 144.467407 
L 279.425586 143.829516 
L 281.377417 142.394262 
L 282.028027 141.756372 
L 282.678637 141.437426 
L 283.329248 140.959009 
L 283.979858 140.321118 
L 285.931689 138.885864 
L 286.582299 138.566919 
L 289.835351 136.174829 
L 290.485961 135.855884 
L 291.787182 134.899048 
L 292.437792 134.580103 
L 294.389623 133.144849 
L 295.040233 132.825904 
L 296.992064 131.39065 
L 297.642674 131.071705 
L 298.293285 130.593287 
L 298.943895 130.274341 
L 299.594505 129.636451 
L 300.245116 129.317506 
L 300.895726 128.839088 
L 301.546336 128.201197 
L 302.847557 127.244361 
L 303.498167 126.606471 
L 305.449998 125.171217 
L 306.100608 124.533326 
L 307.401829 123.57649 
L 308.052439 123.257545 
L 308.70305 122.619655 
L 312.606712 119.749147 
L 313.257322 119.430202 
L 316.510373 117.038112 
L 317.160984 116.400221 
L 319.763425 114.48655 
L 320.414035 113.848659 
L 323.667087 111.45657 
L 324.317697 111.137624 
L 327.570749 108.745535 
L 328.221359 108.107644 
L 328.871969 107.629226 
L 329.52258 107.310281 
L 330.17319 106.831863 
L 330.8238 106.512918 
L 332.125021 105.556082 
L 332.775631 105.237136 
L 335.378073 103.323465 
L 336.028683 103.004519 
L 338.631124 101.090848 
L 339.932345 99.815067 
L 341.233565 98.858231 
L 341.884176 98.22034 
L 344.486617 96.306668 
L 345.137227 95.668778 
L 345.787837 95.19036 
L 346.438448 94.871415 
L 347.089058 94.392997 
L 347.739668 94.074051 
L 357.498823 86.897782 
L 358.149433 86.578837 
L 358.800044 86.100419 
L 359.450654 85.781474 
L 360.101264 85.303056 
L 360.751875 84.665165 
L 362.703706 83.229912 
L 363.354316 82.592021 
L 365.956757 80.678349 
L 366.607367 80.040459 
L 369.209809 78.126787 
L 369.860419 77.488897 
L 371.16164 76.532061 
L 371.81225 75.89417 
L 375.715912 73.023662 
L 376.366522 72.704717 
L 378.968963 70.791045 
L 379.619574 70.153155 
L 380.270184 69.674737 
L 380.920794 69.036846 
L 381.571405 68.558428 
L 382.222015 67.920538 
L 383.523236 66.963702 
L 384.173846 66.325811 
L 386.776287 64.41214 
L 387.426897 63.774249 
L 388.077508 63.455304 
L 391.330559 61.063214 
L 391.98117 60.425324 
L 392.63178 60.106378 
L 393.28239 59.62796 
L 393.933001 59.309015 
L 395.884831 57.873761 
L 396.535442 57.235871 
L 398.487273 55.800617 
L 398.487273 55.800617 
" clip-path="url(#p1b96096307)" style="fill: none; stroke: #1f77b4; stroke-width: 1.5; stroke-linecap: square"/>
   </g>
   <g id="line2d_16">
    <path d="M 73.832727 295.488 
L 74.483338 294.052746 
L 77.085779 291.022766 
L 77.736389 290.384875 
L 79.03761 289.42804 
L 79.68822 288.790149 
L 80.989441 287.833313 
L 81.640051 287.195423 
L 82.941272 286.238587 
L 83.591882 285.600696 
L 84.893103 284.64386 
L 85.543713 284.00597 
L 86.844934 283.049134 
L 87.495544 282.411243 
L 88.796764 281.454407 
L 89.447375 280.816517 
L 90.748595 279.859681 
L 91.399206 279.22179 
L 92.700426 278.264955 
L 93.351037 277.627064 
L 94.652257 276.670228 
L 95.302868 276.032338 
L 96.604088 275.075502 
L 97.254698 274.437611 
L 106.363243 267.73976 
L 107.013853 267.101869 
L 110.266905 264.70978 
L 110.917515 264.071889 
L 113.519956 262.158218 
L 114.170567 261.520327 
L 114.821177 261.041909 
L 115.471787 260.722964 
L 116.122398 260.244546 
L 116.773008 259.925601 
L 117.423618 259.28771 
L 119.375449 257.852456 
L 120.026059 257.533511 
L 124.580332 254.184585 
L 125.230942 253.546695 
L 126.532163 252.589859 
L 127.182773 251.951968 
L 128.483993 250.995132 
L 129.134604 250.357242 
L 129.785214 249.878824 
L 130.435824 249.559879 
L 131.086435 249.081461 
L 131.737045 248.762515 
L 132.387655 248.284098 
L 133.038266 247.965152 
L 133.688876 247.486734 
L 134.339486 247.167789 
L 139.544369 243.340446 
L 140.194979 243.0215 
L 140.845589 242.38361 
L 144.749251 239.513102 
L 145.399862 239.194157 
L 147.351692 237.758903 
L 148.002303 237.439958 
L 148.652913 236.802067 
L 149.303523 236.483122 
L 149.954134 235.845231 
L 151.905965 234.409978 
L 152.556575 234.091032 
L 153.207185 233.612614 
L 153.857796 233.293669 
L 157.761457 230.423162 
L 158.412068 230.104216 
L 159.713288 229.14738 
L 160.363899 228.828435 
L 161.665119 227.871599 
L 162.31573 227.552654 
L 162.96634 227.074236 
L 163.61695 226.436345 
L 165.568781 225.001092 
L 166.219392 224.363201 
L 168.171222 222.927947 
L 168.821833 222.609002 
L 169.472443 221.971111 
L 170.123053 221.652166 
L 170.773664 221.014276 
L 172.074884 220.05744 
L 172.725495 219.738494 
L 173.376105 219.260076 
L 174.026715 218.941131 
L 175.327936 217.984295 
L 175.978546 217.66535 
L 176.629156 217.027459 
L 179.231598 215.113788 
L 179.882208 214.794842 
L 180.532818 214.316425 
L 181.183429 213.678534 
L 181.834039 213.359589 
L 182.484649 212.881171 
L 183.13526 212.562225 
L 184.43648 211.60539 
L 185.087091 211.286444 
L 187.689532 209.372773 
L 188.340142 208.734882 
L 190.291973 207.299628 
L 190.942583 206.980683 
L 192.894414 205.545429 
L 193.545025 205.226484 
L 194.195635 204.588593 
L 198.099297 201.718086 
L 198.749907 201.080195 
L 201.352348 199.166523 
L 202.002959 198.528633 
L 202.653569 198.209688 
L 203.304179 197.73127 
L 203.95479 197.093379 
L 205.906621 195.658125 
L 206.557231 195.020235 
L 207.207841 194.701289 
L 207.858451 194.063399 
L 209.810282 192.628145 
L 210.460893 191.990254 
L 211.762113 191.033419 
L 212.412724 190.395528 
L 220.870658 184.176095 
L 221.521268 183.85715 
L 223.473099 182.421896 
L 224.123709 182.102951 
L 224.77432 181.46506 
L 226.72615 180.029806 
L 227.376761 179.710861 
L 231.931033 176.361935 
L 232.581643 175.724045 
L 233.232254 175.245627 
L 233.882864 174.926682 
L 235.834695 173.491428 
L 236.485305 172.853537 
L 239.738357 170.461448 
L 240.388967 169.823557 
L 241.039577 169.504612 
L 241.690188 168.866721 
L 243.642019 167.431467 
L 244.292629 166.793577 
L 245.59385 165.836741 
L 246.24446 165.19885 
L 248.846901 163.285179 
L 249.497511 162.966233 
L 250.798732 162.009397 
L 251.449342 161.371507 
L 252.750563 160.414671 
L 253.401173 159.77678 
L 255.353004 158.341527 
L 256.003615 157.703636 
L 260.557887 154.354711 
L 261.208497 154.035765 
L 267.06399 149.730004 
L 267.7146 149.411059 
L 269.015821 148.454223 
L 269.666431 147.816332 
L 272.268872 145.902661 
L 272.919483 145.26477 
L 274.220703 144.307934 
L 274.871314 143.670044 
L 278.124365 141.277954 
L 278.774975 140.640063 
L 281.377417 138.726392 
L 282.028027 138.088501 
L 284.630468 136.174829 
L 285.281079 135.855884 
L 287.232909 134.42063 
L 287.88352 134.101685 
L 288.53413 133.623267 
L 289.18474 133.304322 
L 291.136571 131.869068 
L 291.787182 131.550123 
L 293.088402 130.593287 
L 293.739013 130.274341 
L 294.389623 129.795924 
L 295.040233 129.158033 
L 295.690844 128.679615 
L 296.341454 128.36067 
L 298.293285 126.925416 
L 298.943895 126.287525 
L 299.594505 125.96858 
L 300.245116 125.490162 
L 300.895726 124.852272 
L 302.196947 123.895436 
L 302.847557 123.257545 
L 304.799388 121.822291 
L 305.449998 121.184401 
L 306.751219 120.227565 
L 307.401829 119.589674 
L 309.35366 118.154421 
L 310.00427 117.835475 
L 311.956101 116.400221 
L 312.606712 115.762331 
L 313.257322 115.283913 
L 313.907932 114.964968 
L 317.160984 112.572878 
L 317.811594 112.253933 
L 319.112815 111.297097 
L 319.763425 110.978152 
L 323.016477 108.586062 
L 323.667087 107.948171 
L 324.317697 107.469753 
L 324.968308 107.150808 
L 325.618918 106.67239 
L 326.269528 106.353445 
L 326.920138 105.875027 
L 327.570749 105.237136 
L 328.871969 104.280301 
L 329.52258 103.64241 
L 332.125021 101.728738 
L 332.775631 101.090848 
L 335.378073 99.177176 
L 336.028683 98.539285 
L 337.329903 97.58245 
L 337.980514 96.944559 
L 338.631124 96.466141 
L 339.281734 96.147196 
L 339.932345 95.668778 
L 340.582955 95.349833 
L 341.884176 94.392997 
L 342.534786 94.074051 
L 343.185396 93.436161 
L 343.836007 93.117216 
L 347.739668 90.246708 
L 348.390279 89.927763 
L 350.34211 88.492509 
L 350.99272 88.173564 
L 352.944551 86.73831 
L 353.595161 86.100419 
L 355.546992 84.665165 
L 356.197602 84.34622 
L 356.848213 83.70833 
L 357.498823 83.389384 
L 358.149433 82.910966 
L 358.800044 82.273076 
L 361.402485 80.359404 
L 362.053095 79.721514 
L 362.703706 79.402568 
L 365.956757 77.010479 
L 366.607367 76.372588 
L 368.559198 74.937334 
L 369.209809 74.618389 
L 370.511029 73.661553 
L 371.16164 73.023662 
L 371.81225 72.704717 
L 374.414691 70.791045 
L 375.065302 70.153155 
L 375.715912 69.674737 
L 376.366522 69.355792 
L 378.318353 67.920538 
L 378.968963 67.601593 
L 380.920794 66.166339 
L 381.571405 65.847394 
L 386.776287 62.02005 
L 387.426897 61.38216 
L 388.077508 61.063214 
L 390.029339 59.62796 
L 390.679949 58.99007 
L 393.28239 57.076398 
L 393.933001 56.757453 
L 394.583611 56.279035 
L 395.234221 55.96009 
L 395.884831 55.481672 
L 396.535442 54.843781 
L 397.186052 54.365363 
L 397.836662 54.046418 
L 398.487273 53.568 
L 398.487273 53.568 
" clip-path="url(#p1b96096307)" style="fill: none; stroke: #ff7f0e; stroke-width: 1.5; stroke-linecap: square"/>
   </g>
   <g id="patch_3">
    <path d="M 57.6 307.584 
L 57.6 41.472 
" style="fill: none; stroke: #000000; stroke-width: 0.8; stroke-linejoin: miter; stroke-linecap: square"/>
   </g>
   <g id="patch_4">
    <path d="M 414.72 307.584 
L 414.72 41.472 
" style="fill: none; stroke: #000000; stroke-width: 0.8; stroke-linejoin: miter; stroke-linecap: square"/>
   </g>
   <g id="patch_5">
    <path d="M 57.6 307.584 
L 414.72 307.584 
" style="fill: none; stroke: #000000; stroke-width: 0.8; stroke-linejoin: miter; stroke-linecap: square"/>
   </g>
   <g id="patch_6">
    <path d="M 57.6 41.472 
L 414.72 41.472 
" style="fill: none; stroke: #000000; stroke-width: 0.8; stroke-linejoin: miter; stroke-linecap: square"/>
   </g>
   <g id="text_17">
    <text style="font: 12px 'DejaVu Sans', 'Bitstream Vera Sans', 'Computer Modern Sans Serif', 'Lucida Grande', 'Verdana', 'Geneva', 'Lucid', 'Arial', 'Helvetica', 'Avant Garde', sans-serif; text-anchor: middle" x="236.16" y="35.472" transform="rotate(-0 236.16 35.472)">Synchronizations per Batch Count</text>
   </g>
   <g id="legend_1">
    <g id="patch_7">
     <path d="M 64.6 78.82825 
L 150.975 78.82825 
Q 152.975 78.82825 152.975 76.82825 
L 152.975 48.472 
Q 152.975 46.472 150.975 46.472 
L 64.6 46.472 
Q 62.6 46.472 62.6 48.472 
L 62.6 76.82825 
Q 62.6 78.82825 64.6 78.82825 
z
" style="fill: #ffffff; opacity: 0.8; stroke: #cccccc; stroke-linejoin: miter"/>
    </g>
    <g id="line2d_17">
     <path d="M 66.6 54.570437 
L 76.6 54.570437 
L 86.6 54.570437 
" style="fill: none; stroke: #1f77b4; stroke-width: 1.5; stroke-linecap: square"/>
    </g>
    <g id="text_18">
     <text style="font: 10px 'DejaVu Sans', 'Bitstream Vera Sans', 'Computer Modern Sans Serif', 'Lucida Grande', 'Verdana', 'Geneva', 'Lucid', 'Arial', 'Helvetica', 'Avant Garde', sans-serif; text-anchor: start" x="94.6" y="58.070437" transform="rotate(-0 94.6 58.070437)">Naive FDA</text>
    </g>
    <g id="line2d_18">
     <path d="M 66.6 69.248562 
L 76.6 69.248562 
L 86.6 69.248562 
" style="fill: none; stroke: #ff7f0e; stroke-width: 1.5; stroke-linecap: square"/>
    </g>
    <g id="text_19">
     <text style="font: 10px 'DejaVu Sans', 'Bitstream Vera Sans', 'Computer Modern Sans Serif', 'Lucida Grande', 'Verdana', 'Geneva', 'Lucid', 'Arial', 'Helvetica', 'Avant Garde', sans-serif; text-anchor: start" x="94.6" y="72.748562" transform="rotate(-0 94.6 72.748562)">Linear FDA</text>
    </g>
   </g>
  </g>
 </g>
 <defs>
  <clipPath id="p1b96096307">
   <rect x="57.6" y="41.472" width="357.12" height="266.112"/>
  </clipPath>
 </defs>
</svg>
