<?xml version="1.0" encoding="utf-8" standalone="no"?>
<!DOCTYPE svg PUBLIC "-//W3C//DTD SVG 1.1//EN"
  "http://www.w3.org/Graphics/SVG/1.1/DTD/svg11.dtd">
<svg xmlns:xlink="http://www.w3.org/1999/xlink" width="460.8pt" height="345.6pt" viewBox="0 0 460.8 345.6" xmlns="http://www.w3.org/2000/svg" version="1.1">
 <metadata>
  <rdf:RDF xmlns:dc="http://purl.org/dc/elements/1.1/" xmlns:cc="http://creativecommons.org/ns#" xmlns:rdf="http://www.w3.org/1999/02/22-rdf-syntax-ns#">
   <cc:Work>
    <dc:type rdf:resource="http://purl.org/dc/dcmitype/StillImage"/>
    <dc:date>2023-08-23T17:18:42.013312</dc:date>
    <dc:format>image/svg+xml</dc:format>
    <dc:creator>
     <cc:Agent>
      <dc:title>Matplotlib v3.7.2, https://matplotlib.org/</dc:title>
     </cc:Agent>
    </dc:creator>
   </cc:Work>
  </rdf:RDF>
 </metadata>
 <defs>
  <style type="text/css">*{stroke-linejoin: round; stroke-linecap: butt}</style>
 </defs>
 <g id="figure_1">
  <g id="patch_1">
   <path d="M 0 345.6 
L 460.8 345.6 
L 460.8 0 
L 0 0 
z
" style="fill: #ffffff"/>
  </g>
  <g id="axes_1">
   <g id="patch_2">
    <path d="M 57.6 307.584 
L 414.72 307.584 
L 414.72 41.472 
L 57.6 41.472 
z
" style="fill: #ffffff"/>
   </g>
   <g id="matplotlib.axis_1">
    <g id="xtick_1">
     <g id="line2d_1">
      <defs>
       <path id="mac5b33f7d3" d="M 0 0 
L 0 3.5 
" style="stroke: #000000; stroke-width: 0.8"/>
      </defs>
      <g>
       <use xlink:href="#mac5b33f7d3" x="73.832727" y="307.584" style="stroke: #000000; stroke-width: 0.8"/>
      </g>
     </g>
     <g id="text_1">
      <text style="font: 10px 'DejaVu Sans', 'Bitstream Vera Sans', 'Computer Modern Sans Serif', 'Lucida Grande', 'Verdana', 'Geneva', 'Lucid', 'Arial', 'Helvetica', 'Avant Garde', sans-serif; text-anchor: middle" x="73.832727" y="322.182437" transform="rotate(-0 73.832727 322.182437)">0</text>
     </g>
    </g>
    <g id="xtick_2">
     <g id="line2d_2">
      <g>
       <use xlink:href="#mac5b33f7d3" x="138.789619" y="307.584" style="stroke: #000000; stroke-width: 0.8"/>
      </g>
     </g>
     <g id="text_2">
      <text style="font: 10px 'DejaVu Sans', 'Bitstream Vera Sans', 'Computer Modern Sans Serif', 'Lucida Grande', 'Verdana', 'Geneva', 'Lucid', 'Arial', 'Helvetica', 'Avant Garde', sans-serif; text-anchor: middle" x="138.789619" y="322.182437" transform="rotate(-0 138.789619 322.182437)">10000</text>
     </g>
    </g>
    <g id="xtick_3">
     <g id="line2d_3">
      <g>
       <use xlink:href="#mac5b33f7d3" x="203.746511" y="307.584" style="stroke: #000000; stroke-width: 0.8"/>
      </g>
     </g>
     <g id="text_3">
      <text style="font: 10px 'DejaVu Sans', 'Bitstream Vera Sans', 'Computer Modern Sans Serif', 'Lucida Grande', 'Verdana', 'Geneva', 'Lucid', 'Arial', 'Helvetica', 'Avant Garde', sans-serif; text-anchor: middle" x="203.746511" y="322.182437" transform="rotate(-0 203.746511 322.182437)">20000</text>
     </g>
    </g>
    <g id="xtick_4">
     <g id="line2d_4">
      <g>
       <use xlink:href="#mac5b33f7d3" x="268.703403" y="307.584" style="stroke: #000000; stroke-width: 0.8"/>
      </g>
     </g>
     <g id="text_4">
      <text style="font: 10px 'DejaVu Sans', 'Bitstream Vera Sans', 'Computer Modern Sans Serif', 'Lucida Grande', 'Verdana', 'Geneva', 'Lucid', 'Arial', 'Helvetica', 'Avant Garde', sans-serif; text-anchor: middle" x="268.703403" y="322.182437" transform="rotate(-0 268.703403 322.182437)">30000</text>
     </g>
    </g>
    <g id="xtick_5">
     <g id="line2d_5">
      <g>
       <use xlink:href="#mac5b33f7d3" x="333.660295" y="307.584" style="stroke: #000000; stroke-width: 0.8"/>
      </g>
     </g>
     <g id="text_5">
      <text style="font: 10px 'DejaVu Sans', 'Bitstream Vera Sans', 'Computer Modern Sans Serif', 'Lucida Grande', 'Verdana', 'Geneva', 'Lucid', 'Arial', 'Helvetica', 'Avant Garde', sans-serif; text-anchor: middle" x="333.660295" y="322.182437" transform="rotate(-0 333.660295 322.182437)">40000</text>
     </g>
    </g>
    <g id="xtick_6">
     <g id="line2d_6">
      <g>
       <use xlink:href="#mac5b33f7d3" x="398.617187" y="307.584" style="stroke: #000000; stroke-width: 0.8"/>
      </g>
     </g>
     <g id="text_6">
      <text style="font: 10px 'DejaVu Sans', 'Bitstream Vera Sans', 'Computer Modern Sans Serif', 'Lucida Grande', 'Verdana', 'Geneva', 'Lucid', 'Arial', 'Helvetica', 'Avant Garde', sans-serif; text-anchor: middle" x="398.617187" y="322.182437" transform="rotate(-0 398.617187 322.182437)">50000</text>
     </g>
    </g>
    <g id="text_7">
     <text style="font: 10px 'DejaVu Sans', 'Bitstream Vera Sans', 'Computer Modern Sans Serif', 'Lucida Grande', 'Verdana', 'Geneva', 'Lucid', 'Arial', 'Helvetica', 'Avant Garde', sans-serif; text-anchor: middle" x="236.16" y="335.860562" transform="rotate(-0 236.16 335.860562)">Steps / Batch Count</text>
    </g>
   </g>
   <g id="matplotlib.axis_2">
    <g id="ytick_1">
     <g id="line2d_7">
      <defs>
       <path id="m4ec8f0085e" d="M 0 0 
L -3.5 0 
" style="stroke: #000000; stroke-width: 0.8"/>
      </defs>
      <g>
       <use xlink:href="#m4ec8f0085e" x="57.6" y="295.521076" style="stroke: #000000; stroke-width: 0.8"/>
      </g>
     </g>
     <g id="text_8">
      <text style="font: 10px 'DejaVu Sans', 'Bitstream Vera Sans', 'Computer Modern Sans Serif', 'Lucida Grande', 'Verdana', 'Geneva', 'Lucid', 'Arial', 'Helvetica', 'Avant Garde', sans-serif; text-anchor: end" x="50.6" y="299.320295" transform="rotate(-0 50.6 299.320295)">0</text>
     </g>
    </g>
    <g id="ytick_2">
     <g id="line2d_8">
      <g>
       <use xlink:href="#m4ec8f0085e" x="57.6" y="262.444784" style="stroke: #000000; stroke-width: 0.8"/>
      </g>
     </g>
     <g id="text_9">
      <text style="font: 10px 'DejaVu Sans', 'Bitstream Vera Sans', 'Computer Modern Sans Serif', 'Lucida Grande', 'Verdana', 'Geneva', 'Lucid', 'Arial', 'Helvetica', 'Avant Garde', sans-serif; text-anchor: end" x="50.6" y="266.244003" transform="rotate(-0 50.6 266.244003)">1000</text>
     </g>
    </g>
    <g id="ytick_3">
     <g id="line2d_9">
      <g>
       <use xlink:href="#m4ec8f0085e" x="57.6" y="229.368492" style="stroke: #000000; stroke-width: 0.8"/>
      </g>
     </g>
     <g id="text_10">
      <text style="font: 10px 'DejaVu Sans', 'Bitstream Vera Sans', 'Computer Modern Sans Serif', 'Lucida Grande', 'Verdana', 'Geneva', 'Lucid', 'Arial', 'Helvetica', 'Avant Garde', sans-serif; text-anchor: end" x="50.6" y="233.167711" transform="rotate(-0 50.6 233.167711)">2000</text>
     </g>
    </g>
    <g id="ytick_4">
     <g id="line2d_10">
      <g>
       <use xlink:href="#m4ec8f0085e" x="57.6" y="196.2922" style="stroke: #000000; stroke-width: 0.8"/>
      </g>
     </g>
     <g id="text_11">
      <text style="font: 10px 'DejaVu Sans', 'Bitstream Vera Sans', 'Computer Modern Sans Serif', 'Lucida Grande', 'Verdana', 'Geneva', 'Lucid', 'Arial', 'Helvetica', 'Avant Garde', sans-serif; text-anchor: end" x="50.6" y="200.091419" transform="rotate(-0 50.6 200.091419)">3000</text>
     </g>
    </g>
    <g id="ytick_5">
     <g id="line2d_11">
      <g>
       <use xlink:href="#m4ec8f0085e" x="57.6" y="163.215908" style="stroke: #000000; stroke-width: 0.8"/>
      </g>
     </g>
     <g id="text_12">
      <text style="font: 10px 'DejaVu Sans', 'Bitstream Vera Sans', 'Computer Modern Sans Serif', 'Lucida Grande', 'Verdana', 'Geneva', 'Lucid', 'Arial', 'Helvetica', 'Avant Garde', sans-serif; text-anchor: end" x="50.6" y="167.015127" transform="rotate(-0 50.6 167.015127)">4000</text>
     </g>
    </g>
    <g id="ytick_6">
     <g id="line2d_12">
      <g>
       <use xlink:href="#m4ec8f0085e" x="57.6" y="130.139616" style="stroke: #000000; stroke-width: 0.8"/>
      </g>
     </g>
     <g id="text_13">
      <text style="font: 10px 'DejaVu Sans', 'Bitstream Vera Sans', 'Computer Modern Sans Serif', 'Lucida Grande', 'Verdana', 'Geneva', 'Lucid', 'Arial', 'Helvetica', 'Avant Garde', sans-serif; text-anchor: end" x="50.6" y="133.938835" transform="rotate(-0 50.6 133.938835)">5000</text>
     </g>
    </g>
    <g id="ytick_7">
     <g id="line2d_13">
      <g>
       <use xlink:href="#m4ec8f0085e" x="57.6" y="97.063324" style="stroke: #000000; stroke-width: 0.8"/>
      </g>
     </g>
     <g id="text_14">
      <text style="font: 10px 'DejaVu Sans', 'Bitstream Vera Sans', 'Computer Modern Sans Serif', 'Lucida Grande', 'Verdana', 'Geneva', 'Lucid', 'Arial', 'Helvetica', 'Avant Garde', sans-serif; text-anchor: end" x="50.6" y="100.862543" transform="rotate(-0 50.6 100.862543)">6000</text>
     </g>
    </g>
    <g id="ytick_8">
     <g id="line2d_14">
      <g>
       <use xlink:href="#m4ec8f0085e" x="57.6" y="63.987032" style="stroke: #000000; stroke-width: 0.8"/>
      </g>
     </g>
     <g id="text_15">
      <text style="font: 10px 'DejaVu Sans', 'Bitstream Vera Sans', 'Computer Modern Sans Serif', 'Lucida Grande', 'Verdana', 'Geneva', 'Lucid', 'Arial', 'Helvetica', 'Avant Garde', sans-serif; text-anchor: end" x="50.6" y="67.786251" transform="rotate(-0 50.6 67.786251)">7000</text>
     </g>
    </g>
    <g id="text_16">
     <text style="font: 10px 'DejaVu Sans', 'Bitstream Vera Sans', 'Computer Modern Sans Serif', 'Lucida Grande', 'Verdana', 'Geneva', 'Lucid', 'Arial', 'Helvetica', 'Avant Garde', sans-serif; text-anchor: middle" x="19.070312" y="174.528" transform="rotate(-90 19.070312 174.528)">Synchronizations</text>
    </g>
   </g>
   <g id="line2d_15">
    <path d="M 73.832727 295.488 
L 74.222469 294.85955 
L 74.872038 294.198025 
L 76.690831 292.676515 
L 77.600227 291.882684 
L 79.938675 289.964259 
L 80.718158 289.302733 
L 99.945398 274.749165 
L 100.465053 274.385326 
L 112.806862 265.090888 
L 113.326518 264.727048 
L 124.629017 255.961831 
L 125.278586 255.43261 
L 128.006775 253.216499 
L 128.656344 252.687278 
L 129.305913 252.290363 
L 129.955482 251.761142 
L 132.813585 249.445801 
L 133.463154 248.916581 
L 133.982809 248.552742 
L 146.71436 238.696007 
L 147.493843 238.034481 
L 169.449272 221.132495 
L 169.968927 220.73558 
L 182.44065 211.077303 
L 183.090219 210.548082 
L 185.038926 209.191954 
L 185.688495 208.761962 
L 197.900391 199.566753 
L 198.290132 199.269066 
L 201.797804 196.722192 
L 202.187546 196.424505 
L 219.725906 183.160912 
L 220.375475 182.73092 
L 227.650647 177.306409 
L 228.300216 176.876417 
L 239.602715 168.37581 
L 240.382198 167.879665 
L 247.137715 162.852069 
L 247.917197 162.355925 
L 250.905214 160.205966 
L 251.554783 159.775974 
L 255.322283 157.030642 
L 256.101766 156.567573 
L 256.621421 156.137582 
L 257.011162 155.872971 
L 257.920559 155.07914 
L 262.987196 151.341519 
L 263.506851 151.010756 
L 263.896593 150.71307 
L 264.416248 150.349231 
L 268.573489 147.041601 
L 269.352972 146.380075 
L 270.911937 145.321634 
L 271.431592 144.957795 
L 274.679437 142.609378 
L 275.329006 142.179386 
L 276.758057 141.220174 
L 277.277713 140.856335 
L 286.761419 133.744932 
L 287.281074 133.381093 
L 290.399005 131.131905 
L 291.048574 130.701913 
L 294.426332 128.254267 
L 295.595556 127.559665 
L 298.193832 125.707393 
L 298.843401 125.277401 
L 300.402366 124.21896 
L 300.922021 123.855121 
L 301.441676 123.458205 
L 310.1459 116.942176 
L 310.795469 116.512184 
L 312.22452 115.552971 
L 312.874089 115.122979 
L 313.9134 114.461454 
L 314.303141 114.196843 
L 315.082624 113.535317 
L 315.602279 113.171478 
L 317.680899 111.716121 
L 318.590296 111.153824 
L 319.75952 110.39307 
L 320.279175 110.062307 
L 321.188571 109.268476 
L 327.164605 104.836253 
L 327.684261 104.472413 
L 328.853485 103.678582 
L 329.243226 103.480125 
L 331.45176 101.925539 
L 331.971415 101.594776 
L 332.750898 100.93325 
L 337.297881 97.327934 
L 337.817536 96.897943 
L 338.467105 96.467951 
L 338.98676 96.037959 
L 339.636329 95.607967 
L 340.675639 94.946441 
L 341.325208 94.51645 
L 344.443139 92.267262 
L 344.962794 91.903422 
L 346.651673 90.745752 
L 347.690983 90.117303 
L 349.249949 89.058861 
L 350.029431 88.562717 
L 351.978138 87.206589 
L 352.627707 86.776597 
L 353.926845 85.916614 
L 354.576414 85.486622 
L 355.875552 84.626638 
L 356.395207 84.262799 
L 357.564431 83.502044 
L 358.084086 83.138205 
L 361.721672 80.492102 
L 362.111413 80.194415 
L 367.437878 76.258336 
L 368.217361 75.762192 
L 372.114775 72.917631 
L 372.894257 72.421486 
L 375.492533 70.569214 
L 375.752361 70.370756 
L 376.401929 69.841536 
L 377.181412 69.345391 
L 377.960895 68.882323 
L 378.740378 68.386179 
L 383.28736 65.045473 
L 383.677101 64.747787 
L 386.145463 62.994743 
L 386.924946 62.498599 
L 387.704429 62.035531 
L 388.613825 61.473234 
L 390.952273 59.819419 
L 391.86167 59.257122 
L 395.759083 56.412561 
L 396.148825 56.214103 
L 396.66848 55.850264 
L 397.188135 55.453349 
L 397.577876 55.155662 
L 398.487273 54.593365 
L 398.487273 54.593365 
" clip-path="url(#p2b06fc5f29)" style="fill: none; stroke: #1f77b4; stroke-width: 1.5; stroke-linecap: square"/>
   </g>
   <g id="line2d_16">
    <path d="M 73.832727 295.488 
L 74.222469 294.85955 
L 75.781434 293.536499 
L 76.560917 292.874973 
L 76.950658 292.577286 
L 78.249796 291.452692 
L 79.029279 290.791167 
L 79.41902 290.526556 
L 79.938675 290.129641 
L 85.26514 285.928952 
L 85.654882 285.631265 
L 86.044623 285.333578 
L 101.894105 273.09535 
L 102.803501 272.301519 
L 112.936776 264.429362 
L 113.456431 264.032446 
L 114.106 263.635531 
L 114.885483 262.974005 
L 115.535052 262.544013 
L 129.825568 251.496532 
L 130.475137 250.967311 
L 139.049447 244.2859 
L 139.958843 243.492069 
L 140.348585 243.194382 
L 155.808325 231.253841 
L 156.32798 230.856925 
L 161.784359 226.557007 
L 162.433928 226.027787 
L 177.763754 214.451084 
L 178.153496 214.153398 
L 184.519271 209.423488 
L 184.779099 209.291183 
L 195.691856 201.088263 
L 196.341425 200.658271 
L 203.876425 195.035301 
L 204.266166 194.737614 
L 213.360131 187.659288 
L 214.139614 186.997762 
L 221.804527 181.275564 
L 222.194268 180.977877 
L 226.741251 177.637171 
L 227.39082 177.20718 
L 228.949785 176.148738 
L 229.46944 175.784899 
L 233.366854 172.940338 
L 233.886509 172.576499 
L 240.12237 167.681208 
L 240.771939 167.151987 
L 244.539439 164.406655 
L 245.189008 163.976663 
L 245.708663 163.546671 
L 246.488146 163.050527 
L 249.606077 160.801339 
L 249.995818 160.503652 
L 261.558145 151.804587 
L 262.337627 151.308443 
L 265.065817 149.356942 
L 265.585472 148.993103 
L 267.92392 147.339288 
L 268.703403 146.843144 
L 276.628144 140.922487 
L 277.277713 140.492495 
L 284.033229 135.200289 
L 284.682798 134.671068 
L 285.852022 133.910313 
L 286.371677 133.546474 
L 292.477625 129.015022 
L 293.257108 128.518878 
L 295.985297 126.302766 
L 296.375039 126.00508 
L 297.024608 125.575088 
L 299.752797 123.623587 
L 300.53228 123.127442 
L 302.480987 121.771314 
L 303.000642 121.407475 
L 304.559607 120.349034 
L 305.209176 119.919042 
L 307.937365 117.967541 
L 308.457021 117.636778 
L 309.10659 117.107557 
L 315.602279 112.278418 
L 315.99202 111.980732 
L 322.617623 107.052364 
L 323.137278 106.688525 
L 324.56633 105.729313 
L 325.60564 105.100863 
L 331.062019 101.065555 
L 331.841502 100.569411 
L 334.699605 98.518681 
L 335.21926 98.154842 
L 336.128657 97.592545 
L 337.038053 97.030248 
L 339.506415 95.277204 
L 340.155984 94.880289 
L 340.805553 94.351068 
L 341.325208 93.987229 
L 347.171328 89.654235 
L 348.080725 89.091938 
L 348.860207 88.62887 
L 349.63969 88.132725 
L 354.316586 84.692791 
L 354.836241 84.328952 
L 358.993482 81.285933 
L 359.513138 80.922094 
L 361.331931 79.665194 
L 362.111413 79.16905 
L 364.319948 77.614464 
L 364.839603 77.250625 
L 366.398568 76.192184 
L 367.178051 75.696039 
L 371.465206 72.553792 
L 372.244688 72.057647 
L 373.803654 70.999206 
L 374.71305 70.436909 
L 378.090809 67.989263 
L 378.870291 67.493119 
L 383.027532 64.4501 
L 383.417274 64.18549 
L 383.936929 63.788574 
L 385.365981 62.829362 
L 385.885636 62.465523 
L 390.952273 58.727902 
L 391.601842 58.29791 
L 393.290721 57.14024 
L 394.200118 56.577943 
L 394.589859 56.280256 
L 394.979601 56.015646 
L 395.499256 55.61873 
L 396.66848 54.857975 
L 397.318049 54.427984 
L 398.487273 53.568 
L 398.487273 53.568 
" clip-path="url(#p2b06fc5f29)" style="fill: none; stroke: #ff7f0e; stroke-width: 1.5; stroke-linecap: square"/>
   </g>
   <g id="patch_3">
    <path d="M 57.6 307.584 
L 57.6 41.472 
" style="fill: none; stroke: #000000; stroke-width: 0.8; stroke-linejoin: miter; stroke-linecap: square"/>
   </g>
   <g id="patch_4">
    <path d="M 414.72 307.584 
L 414.72 41.472 
" style="fill: none; stroke: #000000; stroke-width: 0.8; stroke-linejoin: miter; stroke-linecap: square"/>
   </g>
   <g id="patch_5">
    <path d="M 57.6 307.584 
L 414.72 307.584 
" style="fill: none; stroke: #000000; stroke-width: 0.8; stroke-linejoin: miter; stroke-linecap: square"/>
   </g>
   <g id="patch_6">
    <path d="M 57.6 41.472 
L 414.72 41.472 
" style="fill: none; stroke: #000000; stroke-width: 0.8; stroke-linejoin: miter; stroke-linecap: square"/>
   </g>
   <g id="text_17">
    <text style="font: 12px 'DejaVu Sans', 'Bitstream Vera Sans', 'Computer Modern Sans Serif', 'Lucida Grande', 'Verdana', 'Geneva', 'Lucid', 'Arial', 'Helvetica', 'Avant Garde', sans-serif; text-anchor: middle" x="236.16" y="35.472" transform="rotate(-0 236.16 35.472)">Synchronizations per Batch Count</text>
   </g>
   <g id="legend_1">
    <g id="patch_7">
     <path d="M 64.6 78.82825 
L 150.975 78.82825 
Q 152.975 78.82825 152.975 76.82825 
L 152.975 48.472 
Q 152.975 46.472 150.975 46.472 
L 64.6 46.472 
Q 62.6 46.472 62.6 48.472 
L 62.6 76.82825 
Q 62.6 78.82825 64.6 78.82825 
z
" style="fill: #ffffff; opacity: 0.8; stroke: #cccccc; stroke-linejoin: miter"/>
    </g>
    <g id="line2d_17">
     <path d="M 66.6 54.570437 
L 76.6 54.570437 
L 86.6 54.570437 
" style="fill: none; stroke: #1f77b4; stroke-width: 1.5; stroke-linecap: square"/>
    </g>
    <g id="text_18">
     <text style="font: 10px 'DejaVu Sans', 'Bitstream Vera Sans', 'Computer Modern Sans Serif', 'Lucida Grande', 'Verdana', 'Geneva', 'Lucid', 'Arial', 'Helvetica', 'Avant Garde', sans-serif; text-anchor: start" x="94.6" y="58.070437" transform="rotate(-0 94.6 58.070437)">Naive FDA</text>
    </g>
    <g id="line2d_18">
     <path d="M 66.6 69.248562 
L 76.6 69.248562 
L 86.6 69.248562 
" style="fill: none; stroke: #ff7f0e; stroke-width: 1.5; stroke-linecap: square"/>
    </g>
    <g id="text_19">
     <text style="font: 10px 'DejaVu Sans', 'Bitstream Vera Sans', 'Computer Modern Sans Serif', 'Lucida Grande', 'Verdana', 'Geneva', 'Lucid', 'Arial', 'Helvetica', 'Avant Garde', sans-serif; text-anchor: start" x="94.6" y="72.748562" transform="rotate(-0 94.6 72.748562)">Linear FDA</text>
    </g>
   </g>
  </g>
 </g>
 <defs>
  <clipPath id="p2b06fc5f29">
   <rect x="57.6" y="41.472" width="357.12" height="266.112"/>
  </clipPath>
 </defs>
</svg>
