<?xml version="1.0" encoding="utf-8" standalone="no"?>
<!DOCTYPE svg PUBLIC "-//W3C//DTD SVG 1.1//EN"
  "http://www.w3.org/Graphics/SVG/1.1/DTD/svg11.dtd">
<svg xmlns:xlink="http://www.w3.org/1999/xlink" width="460.8pt" height="345.6pt" viewBox="0 0 460.8 345.6" xmlns="http://www.w3.org/2000/svg" version="1.1">
 <metadata>
  <rdf:RDF xmlns:dc="http://purl.org/dc/elements/1.1/" xmlns:cc="http://creativecommons.org/ns#" xmlns:rdf="http://www.w3.org/1999/02/22-rdf-syntax-ns#">
   <cc:Work>
    <dc:type rdf:resource="http://purl.org/dc/dcmitype/StillImage"/>
    <dc:date>2023-10-13T11:01:43.744979</dc:date>
    <dc:format>image/svg+xml</dc:format>
    <dc:creator>
     <cc:Agent>
      <dc:title>Matplotlib v3.7.1, https://matplotlib.org/</dc:title>
     </cc:Agent>
    </dc:creator>
   </cc:Work>
  </rdf:RDF>
 </metadata>
 <defs>
  <style type="text/css">*{stroke-linejoin: round; stroke-linecap: butt}</style>
 </defs>
 <g id="figure_1">
  <g id="patch_1">
   <path d="M 0 345.6 
L 460.8 345.6 
L 460.8 0 
L 0 0 
z
" style="fill: #ffffff"/>
  </g>
  <g id="axes_1">
   <g id="patch_2">
    <path d="M 57.6 307.584 
L 414.72 307.584 
L 414.72 41.472 
L 57.6 41.472 
z
" style="fill: #ffffff"/>
   </g>
   <g id="PolyCollection_1">
    <defs>
     <path id="m7f3a4f9070" d="M 73.832727 -290.170425 
L 73.832727 -287.725394 
L 109.905455 -290.614985 
L 145.978182 -291.142896 
L 182.050909 -290.642774 
L 218.123636 -291.115107 
L 254.196364 -291.198458 
L 290.269091 -291.36516 
L 326.341818 -291.670791 
L 362.414545 -291.031756 
L 398.487273 -291.531878 
L 398.487273 -292.032 
L 398.487273 -292.032 
L 362.414545 -292.004211 
L 326.341818 -291.92086 
L 290.269091 -291.948633 
L 254.196364 -291.893071 
L 218.123636 -291.559651 
L 182.050909 -291.837509 
L 145.978182 -291.615229 
L 109.905455 -291.031756 
L 73.832727 -290.170425 
z
" style="stroke: #9dcae1; stroke-opacity: 0.2"/>
    </defs>
    <g clip-path="url(#p4bad4dd743)">
     <use xlink:href="#m7f3a4f9070" x="0" y="345.6" style="fill: #9dcae1; fill-opacity: 0.2; stroke: #9dcae1; stroke-opacity: 0.2"/>
    </g>
   </g>
   <g id="PolyCollection_2">
    <defs>
     <path id="m1e16ab1b8d" d="M 73.832727 -288.114376 
L 73.832727 -285.724906 
L 109.905455 -289.559163 
L 145.978182 -289.698092 
L 182.050909 -290.670547 
L 218.123636 -291.059529 
L 254.196364 -289.3369 
L 290.269091 -291.226247 
L 326.341818 -291.4763 
L 362.414545 -291.198458 
L 398.487273 -291.531878 
L 398.487273 -292.004211 
L 398.487273 -292.004211 
L 362.414545 -291.92086 
L 326.341818 -291.837509 
L 290.269091 -291.754142 
L 254.196364 -291.670791 
L 218.123636 -291.4763 
L 182.050909 -291.531878 
L 145.978182 -291.392949 
L 109.905455 -290.781687 
L 73.832727 -288.114376 
z
" style="stroke: #6aaed6; stroke-opacity: 0.2"/>
    </defs>
    <g clip-path="url(#p4bad4dd743)">
     <use xlink:href="#m1e16ab1b8d" x="0" y="345.6" style="fill: #6aaed6; fill-opacity: 0.2; stroke: #6aaed6; stroke-opacity: 0.2"/>
    </g>
   </g>
   <g id="PolyCollection_3">
    <defs>
     <path id="m1ecc1261b6" d="M 73.832727 -286.39173 
L 73.832727 -285.447064 
L 109.905455 -285.919397 
L 145.978182 -289.698092 
L 182.050909 -290.170425 
L 218.123636 -288.614498 
L 254.196364 -291.031756 
L 290.269091 -291.420738 
L 326.341818 -291.031756 
L 362.414545 -291.142896 
L 398.487273 -290.976178 
L 398.487273 -291.80972 
L 398.487273 -291.80972 
L 362.414545 -291.69858 
L 326.341818 -291.893071 
L 290.269091 -291.670791 
L 254.196364 -291.4763 
L 218.123636 -291.420738 
L 182.050909 -291.337387 
L 145.978182 -290.781687 
L 109.905455 -290.198214 
L 73.832727 -286.39173 
z
" style="stroke: #4191c6; stroke-opacity: 0.2"/>
    </defs>
    <g clip-path="url(#p4bad4dd743)">
     <use xlink:href="#m1ecc1261b6" x="0" y="345.6" style="fill: #4191c6; fill-opacity: 0.2; stroke: #4191c6; stroke-opacity: 0.2"/>
    </g>
   </g>
   <g id="PolyCollection_4">
    <defs>
     <path id="m720c844e6d" d="M 73.832727 -285.391486 
L 73.832727 -281.446089 
L 109.905455 -287.280834 
L 145.978182 -287.253061 
L 182.050909 -289.948161 
L 218.123636 -290.142652 
L 254.196364 -290.420494 
L 290.269091 -283.724418 
L 326.341818 -290.281565 
L 362.414545 -289.42025 
L 398.487273 -290.170425 
L 398.487273 -291.80972 
L 398.487273 -291.80972 
L 362.414545 -291.643018 
L 326.341818 -291.4763 
L 290.269091 -291.4763 
L 254.196364 -291.392949 
L 218.123636 -291.198458 
L 182.050909 -291.115107 
L 145.978182 -290.476056 
L 109.905455 -289.031269 
L 73.832727 -285.391486 
z
" style="stroke: #2070b4; stroke-opacity: 0.2"/>
    </defs>
    <g clip-path="url(#p4bad4dd743)">
     <use xlink:href="#m720c844e6d" x="0" y="345.6" style="fill: #2070b4; fill-opacity: 0.2; stroke: #2070b4; stroke-opacity: 0.2"/>
    </g>
   </g>
   <g id="PolyCollection_5">
    <defs>
     <path id="mf80a987670" d="M 73.832727 -289.364672 
L 73.832727 -288.225516 
L 109.905455 -290.198214 
L 145.978182 -290.531634 
L 182.050909 -291.142896 
L 218.123636 -291.031756 
L 254.196364 -290.920616 
L 290.269091 -291.142896 
L 326.341818 -290.531634 
L 362.414545 -290.781687 
L 398.487273 -291.031756 
L 398.487273 -291.643018 
L 398.487273 -291.643018 
L 362.414545 -291.865282 
L 326.341818 -291.948633 
L 290.269091 -291.670791 
L 254.196364 -291.643018 
L 218.123636 -291.615229 
L 182.050909 -291.531878 
L 145.978182 -291.170669 
L 109.905455 -290.614985 
L 73.832727 -289.364672 
z
" style="stroke: #fc9272; stroke-opacity: 0.2"/>
    </defs>
    <g clip-path="url(#p4bad4dd743)">
     <use xlink:href="#mf80a987670" x="0" y="345.6" style="fill: #fc9272; fill-opacity: 0.2; stroke: #fc9272; stroke-opacity: 0.2"/>
    </g>
   </g>
   <g id="PolyCollection_6">
    <defs>
     <path id="md548679ac6" d="M 73.832727 -285.141433 
L 73.832727 -238.463394 
L 109.905455 -276.194801 
L 145.978182 -282.640824 
L 182.050909 -285.836046 
L 218.123636 -288.225516 
L 254.196364 -289.114619 
L 290.269091 -289.30911 
L 326.341818 -289.809232 
L 362.414545 -290.309354 
L 398.487273 -290.031512 
L 398.487273 -291.531878 
L 398.487273 -291.531878 
L 362.414545 -291.69858 
L 326.341818 -291.115107 
L 290.269091 -291.198458 
L 254.196364 -290.976178 
L 218.123636 -290.809476 
L 182.050909 -290.559407 
L 145.978182 -290.309354 
L 109.905455 -289.225759 
L 73.832727 -285.141433 
z
" style="stroke: #fb694a; stroke-opacity: 0.2"/>
    </defs>
    <g clip-path="url(#p4bad4dd743)">
     <use xlink:href="#md548679ac6" x="0" y="345.6" style="fill: #fb694a; fill-opacity: 0.2; stroke: #fb694a; stroke-opacity: 0.2"/>
    </g>
   </g>
   <g id="PolyCollection_7">
    <defs>
     <path id="m14f58f6af1" d="M 73.832727 -264.441944 
L 73.832727 -50.112 
L 109.905455 -275.250135 
L 145.978182 -286.113888 
L 182.050909 -287.558675 
L 218.123636 -289.281321 
L 254.196364 -289.725881 
L 290.269091 -289.948161 
L 326.341818 -290.059285 
L 362.414545 -290.476056 
L 398.487273 -290.337143 
L 398.487273 -291.142896 
L 398.487273 -291.142896 
L 362.414545 -291.198458 
L 326.341818 -290.920616 
L 290.269091 -290.587196 
L 254.196364 -290.448283 
L 218.123636 -289.948161 
L 182.050909 -289.698092 
L 145.978182 -287.614254 
L 109.905455 -284.141189 
L 73.832727 -264.441944 
z
" style="stroke: #ee3a2c; stroke-opacity: 0.2"/>
    </defs>
    <g clip-path="url(#p4bad4dd743)">
     <use xlink:href="#m14f58f6af1" x="0" y="345.6" style="fill: #ee3a2c; fill-opacity: 0.2; stroke: #ee3a2c; stroke-opacity: 0.2"/>
    </g>
   </g>
   <g id="PolyCollection_8">
    <defs>
     <path id="m1c883587a6" d="M 73.832727 -216.541397 
L 73.832727 -92.177792 
L 109.905455 -231.600616 
L 145.978182 -279.445601 
L 182.050909 -284.946942 
L 218.123636 -285.780468 
L 254.196364 -287.197483 
L 290.269091 -288.503357 
L 326.341818 -288.364428 
L 362.414545 -288.558919 
L 398.487273 -289.892583 
L 398.487273 -290.670547 
L 398.487273 -290.670547 
L 362.414545 -290.226003 
L 326.341818 -289.892583 
L 290.269091 -290.198214 
L 254.196364 -289.64253 
L 218.123636 -288.892339 
L 182.050909 -287.919885 
L 145.978182 -285.780468 
L 109.905455 -277.917446 
L 73.832727 -216.541397 
z
" style="stroke: #ca181d; stroke-opacity: 0.2"/>
    </defs>
    <g clip-path="url(#p4bad4dd743)">
     <use xlink:href="#m1c883587a6" x="0" y="345.6" style="fill: #ca181d; fill-opacity: 0.2; stroke: #ca181d; stroke-opacity: 0.2"/>
    </g>
   </g>
   <g id="matplotlib.axis_1">
    <g id="xtick_1">
     <g id="line2d_1">
      <defs>
       <path id="m0875637962" d="M 0 0 
L 0 3.5 
" style="stroke: #000000; stroke-width: 0.8"/>
      </defs>
      <g>
       <use xlink:href="#m0875637962" x="109.905455" y="307.584" style="stroke: #000000; stroke-width: 0.8"/>
      </g>
     </g>
     <g id="text_1">
      <!-- 2 -->
      <g transform="translate(106.724205 322.182437) scale(0.1 -0.1)">
       <defs>
        <path id="DejaVuSans-32" d="M 1228 531 
L 3431 531 
L 3431 0 
L 469 0 
L 469 531 
Q 828 903 1448 1529 
Q 2069 2156 2228 2338 
Q 2531 2678 2651 2914 
Q 2772 3150 2772 3378 
Q 2772 3750 2511 3984 
Q 2250 4219 1831 4219 
Q 1534 4219 1204 4116 
Q 875 4013 500 3803 
L 500 4441 
Q 881 4594 1212 4672 
Q 1544 4750 1819 4750 
Q 2544 4750 2975 4387 
Q 3406 4025 3406 3419 
Q 3406 3131 3298 2873 
Q 3191 2616 2906 2266 
Q 2828 2175 2409 1742 
Q 1991 1309 1228 531 
z
" transform="scale(0.015625)"/>
       </defs>
       <use xlink:href="#DejaVuSans-32"/>
      </g>
     </g>
    </g>
    <g id="xtick_2">
     <g id="line2d_2">
      <g>
       <use xlink:href="#m0875637962" x="182.050909" y="307.584" style="stroke: #000000; stroke-width: 0.8"/>
      </g>
     </g>
     <g id="text_2">
      <!-- 4 -->
      <g transform="translate(178.869659 322.182437) scale(0.1 -0.1)">
       <defs>
        <path id="DejaVuSans-34" d="M 2419 4116 
L 825 1625 
L 2419 1625 
L 2419 4116 
z
M 2253 4666 
L 3047 4666 
L 3047 1625 
L 3713 1625 
L 3713 1100 
L 3047 1100 
L 3047 0 
L 2419 0 
L 2419 1100 
L 313 1100 
L 313 1709 
L 2253 4666 
z
" transform="scale(0.015625)"/>
       </defs>
       <use xlink:href="#DejaVuSans-34"/>
      </g>
     </g>
    </g>
    <g id="xtick_3">
     <g id="line2d_3">
      <g>
       <use xlink:href="#m0875637962" x="254.196364" y="307.584" style="stroke: #000000; stroke-width: 0.8"/>
      </g>
     </g>
     <g id="text_3">
      <!-- 6 -->
      <g transform="translate(251.015114 322.182437) scale(0.1 -0.1)">
       <defs>
        <path id="DejaVuSans-36" d="M 2113 2584 
Q 1688 2584 1439 2293 
Q 1191 2003 1191 1497 
Q 1191 994 1439 701 
Q 1688 409 2113 409 
Q 2538 409 2786 701 
Q 3034 994 3034 1497 
Q 3034 2003 2786 2293 
Q 2538 2584 2113 2584 
z
M 3366 4563 
L 3366 3988 
Q 3128 4100 2886 4159 
Q 2644 4219 2406 4219 
Q 1781 4219 1451 3797 
Q 1122 3375 1075 2522 
Q 1259 2794 1537 2939 
Q 1816 3084 2150 3084 
Q 2853 3084 3261 2657 
Q 3669 2231 3669 1497 
Q 3669 778 3244 343 
Q 2819 -91 2113 -91 
Q 1303 -91 875 529 
Q 447 1150 447 2328 
Q 447 3434 972 4092 
Q 1497 4750 2381 4750 
Q 2619 4750 2861 4703 
Q 3103 4656 3366 4563 
z
" transform="scale(0.015625)"/>
       </defs>
       <use xlink:href="#DejaVuSans-36"/>
      </g>
     </g>
    </g>
    <g id="xtick_4">
     <g id="line2d_4">
      <g>
       <use xlink:href="#m0875637962" x="326.341818" y="307.584" style="stroke: #000000; stroke-width: 0.8"/>
      </g>
     </g>
     <g id="text_4">
      <!-- 8 -->
      <g transform="translate(323.160568 322.182437) scale(0.1 -0.1)">
       <defs>
        <path id="DejaVuSans-38" d="M 2034 2216 
Q 1584 2216 1326 1975 
Q 1069 1734 1069 1313 
Q 1069 891 1326 650 
Q 1584 409 2034 409 
Q 2484 409 2743 651 
Q 3003 894 3003 1313 
Q 3003 1734 2745 1975 
Q 2488 2216 2034 2216 
z
M 1403 2484 
Q 997 2584 770 2862 
Q 544 3141 544 3541 
Q 544 4100 942 4425 
Q 1341 4750 2034 4750 
Q 2731 4750 3128 4425 
Q 3525 4100 3525 3541 
Q 3525 3141 3298 2862 
Q 3072 2584 2669 2484 
Q 3125 2378 3379 2068 
Q 3634 1759 3634 1313 
Q 3634 634 3220 271 
Q 2806 -91 2034 -91 
Q 1263 -91 848 271 
Q 434 634 434 1313 
Q 434 1759 690 2068 
Q 947 2378 1403 2484 
z
M 1172 3481 
Q 1172 3119 1398 2916 
Q 1625 2713 2034 2713 
Q 2441 2713 2670 2916 
Q 2900 3119 2900 3481 
Q 2900 3844 2670 4047 
Q 2441 4250 2034 4250 
Q 1625 4250 1398 4047 
Q 1172 3844 1172 3481 
z
" transform="scale(0.015625)"/>
       </defs>
       <use xlink:href="#DejaVuSans-38"/>
      </g>
     </g>
    </g>
    <g id="xtick_5">
     <g id="line2d_5">
      <g>
       <use xlink:href="#m0875637962" x="398.487273" y="307.584" style="stroke: #000000; stroke-width: 0.8"/>
      </g>
     </g>
     <g id="text_5">
      <!-- 10 -->
      <g transform="translate(392.124773 322.182437) scale(0.1 -0.1)">
       <defs>
        <path id="DejaVuSans-31" d="M 794 531 
L 1825 531 
L 1825 4091 
L 703 3866 
L 703 4441 
L 1819 4666 
L 2450 4666 
L 2450 531 
L 3481 531 
L 3481 0 
L 794 0 
L 794 531 
z
" transform="scale(0.015625)"/>
        <path id="DejaVuSans-30" d="M 2034 4250 
Q 1547 4250 1301 3770 
Q 1056 3291 1056 2328 
Q 1056 1369 1301 889 
Q 1547 409 2034 409 
Q 2525 409 2770 889 
Q 3016 1369 3016 2328 
Q 3016 3291 2770 3770 
Q 2525 4250 2034 4250 
z
M 2034 4750 
Q 2819 4750 3233 4129 
Q 3647 3509 3647 2328 
Q 3647 1150 3233 529 
Q 2819 -91 2034 -91 
Q 1250 -91 836 529 
Q 422 1150 422 2328 
Q 422 3509 836 4129 
Q 1250 4750 2034 4750 
z
" transform="scale(0.015625)"/>
       </defs>
       <use xlink:href="#DejaVuSans-31"/>
       <use xlink:href="#DejaVuSans-30" x="63.623047"/>
      </g>
     </g>
    </g>
    <g id="text_6">
     <!-- Epoch -->
     <g transform="translate(220.849063 335.860562) scale(0.1 -0.1)">
      <defs>
       <path id="DejaVuSans-45" d="M 628 4666 
L 3578 4666 
L 3578 4134 
L 1259 4134 
L 1259 2753 
L 3481 2753 
L 3481 2222 
L 1259 2222 
L 1259 531 
L 3634 531 
L 3634 0 
L 628 0 
L 628 4666 
z
" transform="scale(0.015625)"/>
       <path id="DejaVuSans-70" d="M 1159 525 
L 1159 -1331 
L 581 -1331 
L 581 3500 
L 1159 3500 
L 1159 2969 
Q 1341 3281 1617 3432 
Q 1894 3584 2278 3584 
Q 2916 3584 3314 3078 
Q 3713 2572 3713 1747 
Q 3713 922 3314 415 
Q 2916 -91 2278 -91 
Q 1894 -91 1617 61 
Q 1341 213 1159 525 
z
M 3116 1747 
Q 3116 2381 2855 2742 
Q 2594 3103 2138 3103 
Q 1681 3103 1420 2742 
Q 1159 2381 1159 1747 
Q 1159 1113 1420 752 
Q 1681 391 2138 391 
Q 2594 391 2855 752 
Q 3116 1113 3116 1747 
z
" transform="scale(0.015625)"/>
       <path id="DejaVuSans-6f" d="M 1959 3097 
Q 1497 3097 1228 2736 
Q 959 2375 959 1747 
Q 959 1119 1226 758 
Q 1494 397 1959 397 
Q 2419 397 2687 759 
Q 2956 1122 2956 1747 
Q 2956 2369 2687 2733 
Q 2419 3097 1959 3097 
z
M 1959 3584 
Q 2709 3584 3137 3096 
Q 3566 2609 3566 1747 
Q 3566 888 3137 398 
Q 2709 -91 1959 -91 
Q 1206 -91 779 398 
Q 353 888 353 1747 
Q 353 2609 779 3096 
Q 1206 3584 1959 3584 
z
" transform="scale(0.015625)"/>
       <path id="DejaVuSans-63" d="M 3122 3366 
L 3122 2828 
Q 2878 2963 2633 3030 
Q 2388 3097 2138 3097 
Q 1578 3097 1268 2742 
Q 959 2388 959 1747 
Q 959 1106 1268 751 
Q 1578 397 2138 397 
Q 2388 397 2633 464 
Q 2878 531 3122 666 
L 3122 134 
Q 2881 22 2623 -34 
Q 2366 -91 2075 -91 
Q 1284 -91 818 406 
Q 353 903 353 1747 
Q 353 2603 823 3093 
Q 1294 3584 2113 3584 
Q 2378 3584 2631 3529 
Q 2884 3475 3122 3366 
z
" transform="scale(0.015625)"/>
       <path id="DejaVuSans-68" d="M 3513 2113 
L 3513 0 
L 2938 0 
L 2938 2094 
Q 2938 2591 2744 2837 
Q 2550 3084 2163 3084 
Q 1697 3084 1428 2787 
Q 1159 2491 1159 1978 
L 1159 0 
L 581 0 
L 581 4863 
L 1159 4863 
L 1159 2956 
Q 1366 3272 1645 3428 
Q 1925 3584 2291 3584 
Q 2894 3584 3203 3211 
Q 3513 2838 3513 2113 
z
" transform="scale(0.015625)"/>
      </defs>
      <use xlink:href="#DejaVuSans-45"/>
      <use xlink:href="#DejaVuSans-70" x="63.183594"/>
      <use xlink:href="#DejaVuSans-6f" x="126.660156"/>
      <use xlink:href="#DejaVuSans-63" x="187.841797"/>
      <use xlink:href="#DejaVuSans-68" x="242.822266"/>
     </g>
    </g>
   </g>
   <g id="matplotlib.axis_2">
    <g id="ytick_1">
     <g id="line2d_6">
      <defs>
       <path id="m76cd45ec83" d="M 0 0 
L -3.5 0 
" style="stroke: #000000; stroke-width: 0.8"/>
      </defs>
      <g>
       <use xlink:href="#m76cd45ec83" x="57.6" y="274.482887" style="stroke: #000000; stroke-width: 0.8"/>
      </g>
     </g>
     <g id="text_7">
      <!-- 0.2 -->
      <g transform="translate(34.696875 278.282105) scale(0.1 -0.1)">
       <defs>
        <path id="DejaVuSans-2e" d="M 684 794 
L 1344 794 
L 1344 0 
L 684 0 
L 684 794 
z
" transform="scale(0.015625)"/>
       </defs>
       <use xlink:href="#DejaVuSans-30"/>
       <use xlink:href="#DejaVuSans-2e" x="63.623047"/>
       <use xlink:href="#DejaVuSans-32" x="95.410156"/>
      </g>
     </g>
    </g>
    <g id="ytick_2">
     <g id="line2d_7">
      <g>
       <use xlink:href="#m76cd45ec83" x="57.6" y="218.913806" style="stroke: #000000; stroke-width: 0.8"/>
      </g>
     </g>
     <g id="text_8">
      <!-- 0.4 -->
      <g transform="translate(34.696875 222.713025) scale(0.1 -0.1)">
       <use xlink:href="#DejaVuSans-30"/>
       <use xlink:href="#DejaVuSans-2e" x="63.623047"/>
       <use xlink:href="#DejaVuSans-34" x="95.410156"/>
      </g>
     </g>
    </g>
    <g id="ytick_3">
     <g id="line2d_8">
      <g>
       <use xlink:href="#m76cd45ec83" x="57.6" y="163.344725" style="stroke: #000000; stroke-width: 0.8"/>
      </g>
     </g>
     <g id="text_9">
      <!-- 0.6 -->
      <g transform="translate(34.696875 167.143944) scale(0.1 -0.1)">
       <use xlink:href="#DejaVuSans-30"/>
       <use xlink:href="#DejaVuSans-2e" x="63.623047"/>
       <use xlink:href="#DejaVuSans-36" x="95.410156"/>
      </g>
     </g>
    </g>
    <g id="ytick_4">
     <g id="line2d_9">
      <g>
       <use xlink:href="#m76cd45ec83" x="57.6" y="107.775644" style="stroke: #000000; stroke-width: 0.8"/>
      </g>
     </g>
     <g id="text_10">
      <!-- 0.8 -->
      <g transform="translate(34.696875 111.574863) scale(0.1 -0.1)">
       <use xlink:href="#DejaVuSans-30"/>
       <use xlink:href="#DejaVuSans-2e" x="63.623047"/>
       <use xlink:href="#DejaVuSans-38" x="95.410156"/>
      </g>
     </g>
    </g>
    <g id="ytick_5">
     <g id="line2d_10">
      <g>
       <use xlink:href="#m76cd45ec83" x="57.6" y="52.206563" style="stroke: #000000; stroke-width: 0.8"/>
      </g>
     </g>
     <g id="text_11">
      <!-- 1.0 -->
      <g transform="translate(34.696875 56.005782) scale(0.1 -0.1)">
       <use xlink:href="#DejaVuSans-31"/>
       <use xlink:href="#DejaVuSans-2e" x="63.623047"/>
       <use xlink:href="#DejaVuSans-30" x="95.410156"/>
      </g>
     </g>
    </g>
    <g id="text_12">
     <!-- Accuracy -->
     <g transform="translate(28.617187 197.356125) rotate(-90) scale(0.1 -0.1)">
      <defs>
       <path id="DejaVuSans-41" d="M 2188 4044 
L 1331 1722 
L 3047 1722 
L 2188 4044 
z
M 1831 4666 
L 2547 4666 
L 4325 0 
L 3669 0 
L 3244 1197 
L 1141 1197 
L 716 0 
L 50 0 
L 1831 4666 
z
" transform="scale(0.015625)"/>
       <path id="DejaVuSans-75" d="M 544 1381 
L 544 3500 
L 1119 3500 
L 1119 1403 
Q 1119 906 1312 657 
Q 1506 409 1894 409 
Q 2359 409 2629 706 
Q 2900 1003 2900 1516 
L 2900 3500 
L 3475 3500 
L 3475 0 
L 2900 0 
L 2900 538 
Q 2691 219 2414 64 
Q 2138 -91 1772 -91 
Q 1169 -91 856 284 
Q 544 659 544 1381 
z
M 1991 3584 
L 1991 3584 
z
" transform="scale(0.015625)"/>
       <path id="DejaVuSans-72" d="M 2631 2963 
Q 2534 3019 2420 3045 
Q 2306 3072 2169 3072 
Q 1681 3072 1420 2755 
Q 1159 2438 1159 1844 
L 1159 0 
L 581 0 
L 581 3500 
L 1159 3500 
L 1159 2956 
Q 1341 3275 1631 3429 
Q 1922 3584 2338 3584 
Q 2397 3584 2469 3576 
Q 2541 3569 2628 3553 
L 2631 2963 
z
" transform="scale(0.015625)"/>
       <path id="DejaVuSans-61" d="M 2194 1759 
Q 1497 1759 1228 1600 
Q 959 1441 959 1056 
Q 959 750 1161 570 
Q 1363 391 1709 391 
Q 2188 391 2477 730 
Q 2766 1069 2766 1631 
L 2766 1759 
L 2194 1759 
z
M 3341 1997 
L 3341 0 
L 2766 0 
L 2766 531 
Q 2569 213 2275 61 
Q 1981 -91 1556 -91 
Q 1019 -91 701 211 
Q 384 513 384 1019 
Q 384 1609 779 1909 
Q 1175 2209 1959 2209 
L 2766 2209 
L 2766 2266 
Q 2766 2663 2505 2880 
Q 2244 3097 1772 3097 
Q 1472 3097 1187 3025 
Q 903 2953 641 2809 
L 641 3341 
Q 956 3463 1253 3523 
Q 1550 3584 1831 3584 
Q 2591 3584 2966 3190 
Q 3341 2797 3341 1997 
z
" transform="scale(0.015625)"/>
       <path id="DejaVuSans-79" d="M 2059 -325 
Q 1816 -950 1584 -1140 
Q 1353 -1331 966 -1331 
L 506 -1331 
L 506 -850 
L 844 -850 
Q 1081 -850 1212 -737 
Q 1344 -625 1503 -206 
L 1606 56 
L 191 3500 
L 800 3500 
L 1894 763 
L 2988 3500 
L 3597 3500 
L 2059 -325 
z
" transform="scale(0.015625)"/>
      </defs>
      <use xlink:href="#DejaVuSans-41"/>
      <use xlink:href="#DejaVuSans-63" x="66.658203"/>
      <use xlink:href="#DejaVuSans-63" x="121.638672"/>
      <use xlink:href="#DejaVuSans-75" x="176.619141"/>
      <use xlink:href="#DejaVuSans-72" x="239.998047"/>
      <use xlink:href="#DejaVuSans-61" x="281.111328"/>
      <use xlink:href="#DejaVuSans-63" x="342.390625"/>
      <use xlink:href="#DejaVuSans-79" x="397.371094"/>
     </g>
    </g>
   </g>
   <g id="line2d_11">
    <path d="M 73.832727 56.30756 
L 109.905455 54.751626 
L 145.978182 54.179262 
L 182.050909 54.27929 
L 218.123636 54.318188 
L 254.196364 54.107023 
L 290.269091 53.851413 
L 326.341818 53.840294 
L 362.414545 53.929203 
L 398.487273 53.762494 
" clip-path="url(#p4bad4dd743)" style="fill: none; stroke: #9dcae1; stroke-width: 1.5; stroke-linecap: square"/>
   </g>
   <g id="line2d_12">
    <path d="M 73.832727 58.185798 
L 109.905455 55.357333 
L 145.978182 54.623822 
L 182.050909 54.434882 
L 218.123636 54.290405 
L 254.196364 54.790527 
L 290.269091 54.090357 
L 326.341818 53.940318 
L 362.414545 53.923648 
L 398.487273 53.795838 
" clip-path="url(#p4bad4dd743)" style="fill: none; stroke: #6aaed6; stroke-width: 1.5; stroke-linecap: square"/>
   </g>
   <g id="line2d_13">
    <path d="M 73.832727 59.502782 
L 109.905455 56.841022 
L 145.978182 55.20174 
L 182.050909 54.779412 
L 218.123636 54.912776 
L 254.196364 54.29596 
L 290.269091 54.029227 
L 326.341818 54.184823 
L 362.414545 54.173707 
L 398.487273 54.118142 
" clip-path="url(#p4bad4dd743)" style="fill: none; stroke: #4191c6; stroke-width: 1.5; stroke-linecap: square"/>
   </g>
   <g id="line2d_14">
    <path d="M 73.832727 62.681331 
L 109.905455 57.141099 
L 145.978182 56.063058 
L 182.050909 55.201734 
L 218.123636 54.951674 
L 254.196364 54.584921 
L 290.269091 56.318675 
L 326.341818 54.607149 
L 362.414545 54.812749 
L 398.487273 54.468226 
" clip-path="url(#p4bad4dd743)" style="fill: none; stroke: #2070b4; stroke-width: 1.5; stroke-linecap: square"/>
   </g>
   <g id="line2d_15">
    <path d="M 73.832727 56.807682 
L 109.905455 55.201737 
L 145.978182 54.812752 
L 182.050909 54.290399 
L 218.123636 54.245949 
L 254.196364 54.162592 
L 290.269091 54.162595 
L 326.341818 54.045901 
L 362.414545 54.195939 
L 398.487273 54.134809 
" clip-path="url(#p4bad4dd743)" style="fill: none; stroke: #fc9272; stroke-width: 1.5; stroke-linecap: square"/>
   </g>
   <g id="line2d_16">
    <path d="M 73.832727 74.195251 
L 109.905455 59.63615 
L 145.978182 57.49674 
L 182.050909 56.279777 
L 218.123636 55.579603 
L 254.196364 55.040587 
L 290.269091 55.051699 
L 326.341818 55.018359 
L 362.414545 54.468226 
L 398.487273 54.618258 
" clip-path="url(#p4bad4dd743)" style="fill: none; stroke: #fb694a; stroke-width: 1.5; stroke-linecap: square"/>
   </g>
   <g id="line2d_17">
    <path d="M 73.832727 130.753461 
L 109.905455 64.665149 
L 145.978182 58.835955 
L 182.050909 57.118874 
L 218.123636 55.990817 
L 254.196364 55.601831 
L 290.269091 55.346218 
L 326.341818 55.107271 
L 362.414545 54.751629 
L 398.487273 54.673826 
" clip-path="url(#p4bad4dd743)" style="fill: none; stroke: #ee3a2c; stroke-width: 1.5; stroke-linecap: square"/>
   </g>
   <g id="line2d_18">
    <path d="M 73.832727 184.466535 
L 109.905455 84.803387 
L 145.978182 63.781606 
L 182.050909 59.402758 
L 218.123636 58.01909 
L 254.196364 57.102197 
L 290.269091 56.413142 
L 326.341818 56.196426 
L 362.414545 55.951918 
L 398.487273 55.268421 
" clip-path="url(#p4bad4dd743)" style="fill: none; stroke: #ca181d; stroke-width: 1.5; stroke-linecap: square"/>
   </g>
   <g id="patch_3">
    <path d="M 57.6 307.584 
L 57.6 41.472 
" style="fill: none; stroke: #000000; stroke-width: 0.8; stroke-linejoin: miter; stroke-linecap: square"/>
   </g>
   <g id="patch_4">
    <path d="M 414.72 307.584 
L 414.72 41.472 
" style="fill: none; stroke: #000000; stroke-width: 0.8; stroke-linejoin: miter; stroke-linecap: square"/>
   </g>
   <g id="patch_5">
    <path d="M 57.6 307.584 
L 414.72 307.584 
" style="fill: none; stroke: #000000; stroke-width: 0.8; stroke-linejoin: miter; stroke-linecap: square"/>
   </g>
   <g id="patch_6">
    <path d="M 57.6 41.472 
L 414.72 41.472 
" style="fill: none; stroke: #000000; stroke-width: 0.8; stroke-linejoin: miter; stroke-linecap: square"/>
   </g>
   <g id="text_13">
    <!-- Accuracy over Epochs -->
    <g transform="translate(170.072812 35.472) scale(0.12 -0.12)">
     <defs>
      <path id="DejaVuSans-20" transform="scale(0.015625)"/>
      <path id="DejaVuSans-76" d="M 191 3500 
L 800 3500 
L 1894 563 
L 2988 3500 
L 3597 3500 
L 2284 0 
L 1503 0 
L 191 3500 
z
" transform="scale(0.015625)"/>
      <path id="DejaVuSans-65" d="M 3597 1894 
L 3597 1613 
L 953 1613 
Q 991 1019 1311 708 
Q 1631 397 2203 397 
Q 2534 397 2845 478 
Q 3156 559 3463 722 
L 3463 178 
Q 3153 47 2828 -22 
Q 2503 -91 2169 -91 
Q 1331 -91 842 396 
Q 353 884 353 1716 
Q 353 2575 817 3079 
Q 1281 3584 2069 3584 
Q 2775 3584 3186 3129 
Q 3597 2675 3597 1894 
z
M 3022 2063 
Q 3016 2534 2758 2815 
Q 2500 3097 2075 3097 
Q 1594 3097 1305 2825 
Q 1016 2553 972 2059 
L 3022 2063 
z
" transform="scale(0.015625)"/>
      <path id="DejaVuSans-73" d="M 2834 3397 
L 2834 2853 
Q 2591 2978 2328 3040 
Q 2066 3103 1784 3103 
Q 1356 3103 1142 2972 
Q 928 2841 928 2578 
Q 928 2378 1081 2264 
Q 1234 2150 1697 2047 
L 1894 2003 
Q 2506 1872 2764 1633 
Q 3022 1394 3022 966 
Q 3022 478 2636 193 
Q 2250 -91 1575 -91 
Q 1294 -91 989 -36 
Q 684 19 347 128 
L 347 722 
Q 666 556 975 473 
Q 1284 391 1588 391 
Q 1994 391 2212 530 
Q 2431 669 2431 922 
Q 2431 1156 2273 1281 
Q 2116 1406 1581 1522 
L 1381 1569 
Q 847 1681 609 1914 
Q 372 2147 372 2553 
Q 372 3047 722 3315 
Q 1072 3584 1716 3584 
Q 2034 3584 2315 3537 
Q 2597 3491 2834 3397 
z
" transform="scale(0.015625)"/>
     </defs>
     <use xlink:href="#DejaVuSans-41"/>
     <use xlink:href="#DejaVuSans-63" x="66.658203"/>
     <use xlink:href="#DejaVuSans-63" x="121.638672"/>
     <use xlink:href="#DejaVuSans-75" x="176.619141"/>
     <use xlink:href="#DejaVuSans-72" x="239.998047"/>
     <use xlink:href="#DejaVuSans-61" x="281.111328"/>
     <use xlink:href="#DejaVuSans-63" x="342.390625"/>
     <use xlink:href="#DejaVuSans-79" x="397.371094"/>
     <use xlink:href="#DejaVuSans-20" x="456.550781"/>
     <use xlink:href="#DejaVuSans-6f" x="488.337891"/>
     <use xlink:href="#DejaVuSans-76" x="549.519531"/>
     <use xlink:href="#DejaVuSans-65" x="608.699219"/>
     <use xlink:href="#DejaVuSans-72" x="670.222656"/>
     <use xlink:href="#DejaVuSans-20" x="711.335938"/>
     <use xlink:href="#DejaVuSans-45" x="743.123047"/>
     <use xlink:href="#DejaVuSans-70" x="806.306641"/>
     <use xlink:href="#DejaVuSans-6f" x="869.783203"/>
     <use xlink:href="#DejaVuSans-63" x="930.964844"/>
     <use xlink:href="#DejaVuSans-68" x="985.945312"/>
     <use xlink:href="#DejaVuSans-73" x="1049.324219"/>
    </g>
   </g>
   <g id="legend_1">
    <g id="patch_7">
     <path d="M 240.902812 302.584 
L 407.72 302.584 
Q 409.72 302.584 409.72 300.584 
L 409.72 184.159 
Q 409.72 182.159 407.72 182.159 
L 240.902812 182.159 
Q 238.902812 182.159 238.902812 184.159 
L 238.902812 300.584 
Q 238.902812 302.584 240.902812 302.584 
z
" style="fill: #ffffff; opacity: 0.8; stroke: #cccccc; stroke-linejoin: miter"/>
    </g>
    <g id="line2d_19">
     <path d="M 242.902812 190.257437 
L 252.902812 190.257437 
L 262.902812 190.257437 
" style="fill: none; stroke: #9dcae1; stroke-width: 1.5; stroke-linecap: square"/>
    </g>
    <g id="text_14">
     <!-- Naive FDA 2 clients -->
     <g transform="translate(270.902812 193.757437) scale(0.1 -0.1)">
      <defs>
       <path id="DejaVuSans-4e" d="M 628 4666 
L 1478 4666 
L 3547 763 
L 3547 4666 
L 4159 4666 
L 4159 0 
L 3309 0 
L 1241 3903 
L 1241 0 
L 628 0 
L 628 4666 
z
" transform="scale(0.015625)"/>
       <path id="DejaVuSans-69" d="M 603 3500 
L 1178 3500 
L 1178 0 
L 603 0 
L 603 3500 
z
M 603 4863 
L 1178 4863 
L 1178 4134 
L 603 4134 
L 603 4863 
z
" transform="scale(0.015625)"/>
       <path id="DejaVuSans-46" d="M 628 4666 
L 3309 4666 
L 3309 4134 
L 1259 4134 
L 1259 2759 
L 3109 2759 
L 3109 2228 
L 1259 2228 
L 1259 0 
L 628 0 
L 628 4666 
z
" transform="scale(0.015625)"/>
       <path id="DejaVuSans-44" d="M 1259 4147 
L 1259 519 
L 2022 519 
Q 2988 519 3436 956 
Q 3884 1394 3884 2338 
Q 3884 3275 3436 3711 
Q 2988 4147 2022 4147 
L 1259 4147 
z
M 628 4666 
L 1925 4666 
Q 3281 4666 3915 4102 
Q 4550 3538 4550 2338 
Q 4550 1131 3912 565 
Q 3275 0 1925 0 
L 628 0 
L 628 4666 
z
" transform="scale(0.015625)"/>
       <path id="DejaVuSans-6c" d="M 603 4863 
L 1178 4863 
L 1178 0 
L 603 0 
L 603 4863 
z
" transform="scale(0.015625)"/>
       <path id="DejaVuSans-6e" d="M 3513 2113 
L 3513 0 
L 2938 0 
L 2938 2094 
Q 2938 2591 2744 2837 
Q 2550 3084 2163 3084 
Q 1697 3084 1428 2787 
Q 1159 2491 1159 1978 
L 1159 0 
L 581 0 
L 581 3500 
L 1159 3500 
L 1159 2956 
Q 1366 3272 1645 3428 
Q 1925 3584 2291 3584 
Q 2894 3584 3203 3211 
Q 3513 2838 3513 2113 
z
" transform="scale(0.015625)"/>
       <path id="DejaVuSans-74" d="M 1172 4494 
L 1172 3500 
L 2356 3500 
L 2356 3053 
L 1172 3053 
L 1172 1153 
Q 1172 725 1289 603 
Q 1406 481 1766 481 
L 2356 481 
L 2356 0 
L 1766 0 
Q 1100 0 847 248 
Q 594 497 594 1153 
L 594 3053 
L 172 3053 
L 172 3500 
L 594 3500 
L 594 4494 
L 1172 4494 
z
" transform="scale(0.015625)"/>
      </defs>
      <use xlink:href="#DejaVuSans-4e"/>
      <use xlink:href="#DejaVuSans-61" x="74.804688"/>
      <use xlink:href="#DejaVuSans-69" x="136.083984"/>
      <use xlink:href="#DejaVuSans-76" x="163.867188"/>
      <use xlink:href="#DejaVuSans-65" x="223.046875"/>
      <use xlink:href="#DejaVuSans-20" x="284.570312"/>
      <use xlink:href="#DejaVuSans-46" x="316.357422"/>
      <use xlink:href="#DejaVuSans-44" x="373.876953"/>
      <use xlink:href="#DejaVuSans-41" x="449.128906"/>
      <use xlink:href="#DejaVuSans-20" x="517.537109"/>
      <use xlink:href="#DejaVuSans-32" x="549.324219"/>
      <use xlink:href="#DejaVuSans-20" x="612.947266"/>
      <use xlink:href="#DejaVuSans-63" x="644.734375"/>
      <use xlink:href="#DejaVuSans-6c" x="699.714844"/>
      <use xlink:href="#DejaVuSans-69" x="727.498047"/>
      <use xlink:href="#DejaVuSans-65" x="755.28125"/>
      <use xlink:href="#DejaVuSans-6e" x="816.804688"/>
      <use xlink:href="#DejaVuSans-74" x="880.183594"/>
      <use xlink:href="#DejaVuSans-73" x="919.392578"/>
     </g>
    </g>
    <g id="line2d_20">
     <path d="M 242.902812 204.935563 
L 252.902812 204.935563 
L 262.902812 204.935563 
" style="fill: none; stroke: #6aaed6; stroke-width: 1.5; stroke-linecap: square"/>
    </g>
    <g id="text_15">
     <!-- Naive FDA 4 clients -->
     <g transform="translate(270.902812 208.435563) scale(0.1 -0.1)">
      <use xlink:href="#DejaVuSans-4e"/>
      <use xlink:href="#DejaVuSans-61" x="74.804688"/>
      <use xlink:href="#DejaVuSans-69" x="136.083984"/>
      <use xlink:href="#DejaVuSans-76" x="163.867188"/>
      <use xlink:href="#DejaVuSans-65" x="223.046875"/>
      <use xlink:href="#DejaVuSans-20" x="284.570312"/>
      <use xlink:href="#DejaVuSans-46" x="316.357422"/>
      <use xlink:href="#DejaVuSans-44" x="373.876953"/>
      <use xlink:href="#DejaVuSans-41" x="449.128906"/>
      <use xlink:href="#DejaVuSans-20" x="517.537109"/>
      <use xlink:href="#DejaVuSans-34" x="549.324219"/>
      <use xlink:href="#DejaVuSans-20" x="612.947266"/>
      <use xlink:href="#DejaVuSans-63" x="644.734375"/>
      <use xlink:href="#DejaVuSans-6c" x="699.714844"/>
      <use xlink:href="#DejaVuSans-69" x="727.498047"/>
      <use xlink:href="#DejaVuSans-65" x="755.28125"/>
      <use xlink:href="#DejaVuSans-6e" x="816.804688"/>
      <use xlink:href="#DejaVuSans-74" x="880.183594"/>
      <use xlink:href="#DejaVuSans-73" x="919.392578"/>
     </g>
    </g>
    <g id="line2d_21">
     <path d="M 242.902812 219.613687 
L 252.902812 219.613687 
L 262.902812 219.613687 
" style="fill: none; stroke: #4191c6; stroke-width: 1.5; stroke-linecap: square"/>
    </g>
    <g id="text_16">
     <!-- Naive FDA 6 clients -->
     <g transform="translate(270.902812 223.113687) scale(0.1 -0.1)">
      <use xlink:href="#DejaVuSans-4e"/>
      <use xlink:href="#DejaVuSans-61" x="74.804688"/>
      <use xlink:href="#DejaVuSans-69" x="136.083984"/>
      <use xlink:href="#DejaVuSans-76" x="163.867188"/>
      <use xlink:href="#DejaVuSans-65" x="223.046875"/>
      <use xlink:href="#DejaVuSans-20" x="284.570312"/>
      <use xlink:href="#DejaVuSans-46" x="316.357422"/>
      <use xlink:href="#DejaVuSans-44" x="373.876953"/>
      <use xlink:href="#DejaVuSans-41" x="449.128906"/>
      <use xlink:href="#DejaVuSans-20" x="517.537109"/>
      <use xlink:href="#DejaVuSans-36" x="549.324219"/>
      <use xlink:href="#DejaVuSans-20" x="612.947266"/>
      <use xlink:href="#DejaVuSans-63" x="644.734375"/>
      <use xlink:href="#DejaVuSans-6c" x="699.714844"/>
      <use xlink:href="#DejaVuSans-69" x="727.498047"/>
      <use xlink:href="#DejaVuSans-65" x="755.28125"/>
      <use xlink:href="#DejaVuSans-6e" x="816.804688"/>
      <use xlink:href="#DejaVuSans-74" x="880.183594"/>
      <use xlink:href="#DejaVuSans-73" x="919.392578"/>
     </g>
    </g>
    <g id="line2d_22">
     <path d="M 242.902812 234.291812 
L 252.902812 234.291812 
L 262.902812 234.291812 
" style="fill: none; stroke: #2070b4; stroke-width: 1.5; stroke-linecap: square"/>
    </g>
    <g id="text_17">
     <!-- Naive FDA 8 clients -->
     <g transform="translate(270.902812 237.791812) scale(0.1 -0.1)">
      <use xlink:href="#DejaVuSans-4e"/>
      <use xlink:href="#DejaVuSans-61" x="74.804688"/>
      <use xlink:href="#DejaVuSans-69" x="136.083984"/>
      <use xlink:href="#DejaVuSans-76" x="163.867188"/>
      <use xlink:href="#DejaVuSans-65" x="223.046875"/>
      <use xlink:href="#DejaVuSans-20" x="284.570312"/>
      <use xlink:href="#DejaVuSans-46" x="316.357422"/>
      <use xlink:href="#DejaVuSans-44" x="373.876953"/>
      <use xlink:href="#DejaVuSans-41" x="449.128906"/>
      <use xlink:href="#DejaVuSans-20" x="517.537109"/>
      <use xlink:href="#DejaVuSans-38" x="549.324219"/>
      <use xlink:href="#DejaVuSans-20" x="612.947266"/>
      <use xlink:href="#DejaVuSans-63" x="644.734375"/>
      <use xlink:href="#DejaVuSans-6c" x="699.714844"/>
      <use xlink:href="#DejaVuSans-69" x="727.498047"/>
      <use xlink:href="#DejaVuSans-65" x="755.28125"/>
      <use xlink:href="#DejaVuSans-6e" x="816.804688"/>
      <use xlink:href="#DejaVuSans-74" x="880.183594"/>
      <use xlink:href="#DejaVuSans-73" x="919.392578"/>
     </g>
    </g>
    <g id="line2d_23">
     <path d="M 242.902812 248.969937 
L 252.902812 248.969937 
L 262.902812 248.969937 
" style="fill: none; stroke: #fc9272; stroke-width: 1.5; stroke-linecap: square"/>
    </g>
    <g id="text_18">
     <!-- Synchronous SGD 2 clients -->
     <g transform="translate(270.902812 252.469937) scale(0.1 -0.1)">
      <defs>
       <path id="DejaVuSans-53" d="M 3425 4513 
L 3425 3897 
Q 3066 4069 2747 4153 
Q 2428 4238 2131 4238 
Q 1616 4238 1336 4038 
Q 1056 3838 1056 3469 
Q 1056 3159 1242 3001 
Q 1428 2844 1947 2747 
L 2328 2669 
Q 3034 2534 3370 2195 
Q 3706 1856 3706 1288 
Q 3706 609 3251 259 
Q 2797 -91 1919 -91 
Q 1588 -91 1214 -16 
Q 841 59 441 206 
L 441 856 
Q 825 641 1194 531 
Q 1563 422 1919 422 
Q 2459 422 2753 634 
Q 3047 847 3047 1241 
Q 3047 1584 2836 1778 
Q 2625 1972 2144 2069 
L 1759 2144 
Q 1053 2284 737 2584 
Q 422 2884 422 3419 
Q 422 4038 858 4394 
Q 1294 4750 2059 4750 
Q 2388 4750 2728 4690 
Q 3069 4631 3425 4513 
z
" transform="scale(0.015625)"/>
       <path id="DejaVuSans-47" d="M 3809 666 
L 3809 1919 
L 2778 1919 
L 2778 2438 
L 4434 2438 
L 4434 434 
Q 4069 175 3628 42 
Q 3188 -91 2688 -91 
Q 1594 -91 976 548 
Q 359 1188 359 2328 
Q 359 3472 976 4111 
Q 1594 4750 2688 4750 
Q 3144 4750 3555 4637 
Q 3966 4525 4313 4306 
L 4313 3634 
Q 3963 3931 3569 4081 
Q 3175 4231 2741 4231 
Q 1884 4231 1454 3753 
Q 1025 3275 1025 2328 
Q 1025 1384 1454 906 
Q 1884 428 2741 428 
Q 3075 428 3337 486 
Q 3600 544 3809 666 
z
" transform="scale(0.015625)"/>
      </defs>
      <use xlink:href="#DejaVuSans-53"/>
      <use xlink:href="#DejaVuSans-79" x="63.476562"/>
      <use xlink:href="#DejaVuSans-6e" x="122.65625"/>
      <use xlink:href="#DejaVuSans-63" x="186.035156"/>
      <use xlink:href="#DejaVuSans-68" x="241.015625"/>
      <use xlink:href="#DejaVuSans-72" x="304.394531"/>
      <use xlink:href="#DejaVuSans-6f" x="343.257812"/>
      <use xlink:href="#DejaVuSans-6e" x="404.439453"/>
      <use xlink:href="#DejaVuSans-6f" x="467.818359"/>
      <use xlink:href="#DejaVuSans-75" x="529"/>
      <use xlink:href="#DejaVuSans-73" x="592.378906"/>
      <use xlink:href="#DejaVuSans-20" x="644.478516"/>
      <use xlink:href="#DejaVuSans-53" x="676.265625"/>
      <use xlink:href="#DejaVuSans-47" x="739.742188"/>
      <use xlink:href="#DejaVuSans-44" x="817.232422"/>
      <use xlink:href="#DejaVuSans-20" x="894.234375"/>
      <use xlink:href="#DejaVuSans-32" x="926.021484"/>
      <use xlink:href="#DejaVuSans-20" x="989.644531"/>
      <use xlink:href="#DejaVuSans-63" x="1021.431641"/>
      <use xlink:href="#DejaVuSans-6c" x="1076.412109"/>
      <use xlink:href="#DejaVuSans-69" x="1104.195312"/>
      <use xlink:href="#DejaVuSans-65" x="1131.978516"/>
      <use xlink:href="#DejaVuSans-6e" x="1193.501953"/>
      <use xlink:href="#DejaVuSans-74" x="1256.880859"/>
      <use xlink:href="#DejaVuSans-73" x="1296.089844"/>
     </g>
    </g>
    <g id="line2d_24">
     <path d="M 242.902812 263.648062 
L 252.902812 263.648062 
L 262.902812 263.648062 
" style="fill: none; stroke: #fb694a; stroke-width: 1.5; stroke-linecap: square"/>
    </g>
    <g id="text_19">
     <!-- Synchronous SGD 4 clients -->
     <g transform="translate(270.902812 267.148062) scale(0.1 -0.1)">
      <use xlink:href="#DejaVuSans-53"/>
      <use xlink:href="#DejaVuSans-79" x="63.476562"/>
      <use xlink:href="#DejaVuSans-6e" x="122.65625"/>
      <use xlink:href="#DejaVuSans-63" x="186.035156"/>
      <use xlink:href="#DejaVuSans-68" x="241.015625"/>
      <use xlink:href="#DejaVuSans-72" x="304.394531"/>
      <use xlink:href="#DejaVuSans-6f" x="343.257812"/>
      <use xlink:href="#DejaVuSans-6e" x="404.439453"/>
      <use xlink:href="#DejaVuSans-6f" x="467.818359"/>
      <use xlink:href="#DejaVuSans-75" x="529"/>
      <use xlink:href="#DejaVuSans-73" x="592.378906"/>
      <use xlink:href="#DejaVuSans-20" x="644.478516"/>
      <use xlink:href="#DejaVuSans-53" x="676.265625"/>
      <use xlink:href="#DejaVuSans-47" x="739.742188"/>
      <use xlink:href="#DejaVuSans-44" x="817.232422"/>
      <use xlink:href="#DejaVuSans-20" x="894.234375"/>
      <use xlink:href="#DejaVuSans-34" x="926.021484"/>
      <use xlink:href="#DejaVuSans-20" x="989.644531"/>
      <use xlink:href="#DejaVuSans-63" x="1021.431641"/>
      <use xlink:href="#DejaVuSans-6c" x="1076.412109"/>
      <use xlink:href="#DejaVuSans-69" x="1104.195312"/>
      <use xlink:href="#DejaVuSans-65" x="1131.978516"/>
      <use xlink:href="#DejaVuSans-6e" x="1193.501953"/>
      <use xlink:href="#DejaVuSans-74" x="1256.880859"/>
      <use xlink:href="#DejaVuSans-73" x="1296.089844"/>
     </g>
    </g>
    <g id="line2d_25">
     <path d="M 242.902812 278.326187 
L 252.902812 278.326187 
L 262.902812 278.326187 
" style="fill: none; stroke: #ee3a2c; stroke-width: 1.5; stroke-linecap: square"/>
    </g>
    <g id="text_20">
     <!-- Synchronous SGD 6 clients -->
     <g transform="translate(270.902812 281.826187) scale(0.1 -0.1)">
      <use xlink:href="#DejaVuSans-53"/>
      <use xlink:href="#DejaVuSans-79" x="63.476562"/>
      <use xlink:href="#DejaVuSans-6e" x="122.65625"/>
      <use xlink:href="#DejaVuSans-63" x="186.035156"/>
      <use xlink:href="#DejaVuSans-68" x="241.015625"/>
      <use xlink:href="#DejaVuSans-72" x="304.394531"/>
      <use xlink:href="#DejaVuSans-6f" x="343.257812"/>
      <use xlink:href="#DejaVuSans-6e" x="404.439453"/>
      <use xlink:href="#DejaVuSans-6f" x="467.818359"/>
      <use xlink:href="#DejaVuSans-75" x="529"/>
      <use xlink:href="#DejaVuSans-73" x="592.378906"/>
      <use xlink:href="#DejaVuSans-20" x="644.478516"/>
      <use xlink:href="#DejaVuSans-53" x="676.265625"/>
      <use xlink:href="#DejaVuSans-47" x="739.742188"/>
      <use xlink:href="#DejaVuSans-44" x="817.232422"/>
      <use xlink:href="#DejaVuSans-20" x="894.234375"/>
      <use xlink:href="#DejaVuSans-36" x="926.021484"/>
      <use xlink:href="#DejaVuSans-20" x="989.644531"/>
      <use xlink:href="#DejaVuSans-63" x="1021.431641"/>
      <use xlink:href="#DejaVuSans-6c" x="1076.412109"/>
      <use xlink:href="#DejaVuSans-69" x="1104.195312"/>
      <use xlink:href="#DejaVuSans-65" x="1131.978516"/>
      <use xlink:href="#DejaVuSans-6e" x="1193.501953"/>
      <use xlink:href="#DejaVuSans-74" x="1256.880859"/>
      <use xlink:href="#DejaVuSans-73" x="1296.089844"/>
     </g>
    </g>
    <g id="line2d_26">
     <path d="M 242.902812 293.004312 
L 252.902812 293.004312 
L 262.902812 293.004312 
" style="fill: none; stroke: #ca181d; stroke-width: 1.5; stroke-linecap: square"/>
    </g>
    <g id="text_21">
     <!-- Synchronous SGD 8 clients -->
     <g transform="translate(270.902812 296.504312) scale(0.1 -0.1)">
      <use xlink:href="#DejaVuSans-53"/>
      <use xlink:href="#DejaVuSans-79" x="63.476562"/>
      <use xlink:href="#DejaVuSans-6e" x="122.65625"/>
      <use xlink:href="#DejaVuSans-63" x="186.035156"/>
      <use xlink:href="#DejaVuSans-68" x="241.015625"/>
      <use xlink:href="#DejaVuSans-72" x="304.394531"/>
      <use xlink:href="#DejaVuSans-6f" x="343.257812"/>
      <use xlink:href="#DejaVuSans-6e" x="404.439453"/>
      <use xlink:href="#DejaVuSans-6f" x="467.818359"/>
      <use xlink:href="#DejaVuSans-75" x="529"/>
      <use xlink:href="#DejaVuSans-73" x="592.378906"/>
      <use xlink:href="#DejaVuSans-20" x="644.478516"/>
      <use xlink:href="#DejaVuSans-53" x="676.265625"/>
      <use xlink:href="#DejaVuSans-47" x="739.742188"/>
      <use xlink:href="#DejaVuSans-44" x="817.232422"/>
      <use xlink:href="#DejaVuSans-20" x="894.234375"/>
      <use xlink:href="#DejaVuSans-38" x="926.021484"/>
      <use xlink:href="#DejaVuSans-20" x="989.644531"/>
      <use xlink:href="#DejaVuSans-63" x="1021.431641"/>
      <use xlink:href="#DejaVuSans-6c" x="1076.412109"/>
      <use xlink:href="#DejaVuSans-69" x="1104.195312"/>
      <use xlink:href="#DejaVuSans-65" x="1131.978516"/>
      <use xlink:href="#DejaVuSans-6e" x="1193.501953"/>
      <use xlink:href="#DejaVuSans-74" x="1256.880859"/>
      <use xlink:href="#DejaVuSans-73" x="1296.089844"/>
     </g>
    </g>
   </g>
  </g>
 </g>
 <defs>
  <clipPath id="p4bad4dd743">
   <rect x="57.6" y="41.472" width="357.12" height="266.112"/>
  </clipPath>
 </defs>
</svg>
