<?xml version="1.0" encoding="utf-8" standalone="no"?>
<!DOCTYPE svg PUBLIC "-//W3C//DTD SVG 1.1//EN"
  "http://www.w3.org/Graphics/SVG/1.1/DTD/svg11.dtd">
<svg xmlns:xlink="http://www.w3.org/1999/xlink" width="460.8pt" height="345.6pt" viewBox="0 0 460.8 345.6" xmlns="http://www.w3.org/2000/svg" version="1.1">
 <metadata>
  <rdf:RDF xmlns:dc="http://purl.org/dc/elements/1.1/" xmlns:cc="http://creativecommons.org/ns#" xmlns:rdf="http://www.w3.org/1999/02/22-rdf-syntax-ns#">
   <cc:Work>
    <dc:type rdf:resource="http://purl.org/dc/dcmitype/StillImage"/>
    <dc:date>2023-10-12T15:39:06.277205</dc:date>
    <dc:format>image/svg+xml</dc:format>
    <dc:creator>
     <cc:Agent>
      <dc:title>Matplotlib v3.7.1, https://matplotlib.org/</dc:title>
     </cc:Agent>
    </dc:creator>
   </cc:Work>
  </rdf:RDF>
 </metadata>
 <defs>
  <style type="text/css">*{stroke-linejoin: round; stroke-linecap: butt}</style>
 </defs>
 <g id="figure_1">
  <g id="patch_1">
   <path d="M 0 345.6 
L 460.8 345.6 
L 460.8 0 
L 0 0 
z
" style="fill: #ffffff"/>
  </g>
  <g id="axes_1">
   <g id="patch_2">
    <path d="M 57.6 307.584 
L 414.72 307.584 
L 414.72 41.472 
L 57.6 41.472 
z
" style="fill: #ffffff"/>
   </g>
   <g id="PolyCollection_1">
    <defs>
     <path id="mf159a1126f" d="M 73.832727 -290.273466 
L 73.832727 -287.432771 
L 109.905455 -290.733401 
L 145.978182 -290.868663 
L 182.050909 -290.841621 
L 218.123636 -291.30154 
L 254.196364 -291.436802 
L 290.269091 -291.382701 
L 326.341818 -291.40976 
L 362.414545 -291.355642 
L 398.487273 -291.599139 
L 398.487273 -292.032 
L 398.487273 -292.032 
L 362.414545 -291.707358 
L 326.341818 -291.815578 
L 290.269091 -292.004957 
L 254.196364 -291.76146 
L 218.123636 -291.599139 
L 182.050909 -291.599139 
L 145.978182 -291.382701 
L 109.905455 -291.085102 
L 73.832727 -290.273466 
z
" style="stroke: #9dcae1; stroke-opacity: 0.2"/>
    </defs>
    <g clip-path="url(#p5620da1592)">
     <use xlink:href="#mf159a1126f" x="0" y="345.6" style="fill: #9dcae1; fill-opacity: 0.2; stroke: #9dcae1; stroke-opacity: 0.2"/>
    </g>
   </g>
   <g id="PolyCollection_2">
    <defs>
     <path id="m96056fa367" d="M 73.832727 -288.623151 
L 73.832727 -285.32252 
L 109.905455 -289.651225 
L 145.978182 -289.678284 
L 182.050909 -290.868663 
L 218.123636 -291.085102 
L 254.196364 -291.193321 
L 290.269091 -291.274481 
L 326.341818 -291.328599 
L 362.414545 -291.626198 
L 398.487273 -290.814562 
L 398.487273 -291.896738 
L 398.487273 -291.896738 
L 362.414545 -291.977898 
L 326.341818 -291.815578 
L 290.269091 -291.6803 
L 254.196364 -291.734401 
L 218.123636 -291.626198 
L 182.050909 -291.49092 
L 145.978182 -290.760444 
L 109.905455 -290.706343 
L 73.832727 -288.623151 
z
" style="stroke: #6aaed6; stroke-opacity: 0.2"/>
    </defs>
    <g clip-path="url(#p5620da1592)">
     <use xlink:href="#m96056fa367" x="0" y="345.6" style="fill: #6aaed6; fill-opacity: 0.2; stroke: #6aaed6; stroke-opacity: 0.2"/>
    </g>
   </g>
   <g id="PolyCollection_3">
    <defs>
     <path id="m6338e1f20c" d="M 73.832727 -286.891675 
L 73.832727 -284.592061 
L 109.905455 -289.353626 
L 145.978182 -289.840605 
L 182.050909 -291.031 
L 218.123636 -290.733401 
L 254.196364 -291.058043 
L 290.269091 -290.949824 
L 326.341818 -290.273466 
L 362.414545 -290.327583 
L 398.487273 -291.058043 
L 398.487273 -291.84262 
L 398.487273 -291.84262 
L 362.414545 -291.869679 
L 326.341818 -291.707358 
L 290.269091 -291.626198 
L 254.196364 -291.626198 
L 218.123636 -291.545022 
L 182.050909 -291.166262 
L 145.978182 -290.949824 
L 109.905455 -289.759444 
L 73.832727 -286.891675 
z
" style="stroke: #4191c6; stroke-opacity: 0.2"/>
    </defs>
    <g clip-path="url(#p5620da1592)">
     <use xlink:href="#m6338e1f20c" x="0" y="345.6" style="fill: #4191c6; fill-opacity: 0.2; stroke: #4191c6; stroke-opacity: 0.2"/>
    </g>
   </g>
   <g id="PolyCollection_4">
    <defs>
     <path id="mda518536e2" d="M 73.832727 -285.593076 
L 73.832727 -279.857554 
L 109.905455 -286.648194 
L 145.978182 -288.514947 
L 182.050909 -290.029984 
L 218.123636 -289.624166 
L 254.196364 -291.058043 
L 290.269091 -291.274481 
L 326.341818 -289.272466 
L 362.414545 -291.517979 
L 398.487273 -291.382701 
L 398.487273 -291.869679 
L 398.487273 -291.869679 
L 362.414545 -291.788519 
L 326.341818 -291.436802 
L 290.269091 -291.599139 
L 254.196364 -291.707358 
L 218.123636 -291.13922 
L 182.050909 -290.976883 
L 145.978182 -290.111145 
L 109.905455 -289.272466 
L 73.832727 -285.593076 
z
" style="stroke: #2070b4; stroke-opacity: 0.2"/>
    </defs>
    <g clip-path="url(#p5620da1592)">
     <use xlink:href="#mda518536e2" x="0" y="345.6" style="fill: #2070b4; fill-opacity: 0.2; stroke: #2070b4; stroke-opacity: 0.2"/>
    </g>
   </g>
   <g id="PolyCollection_5">
    <defs>
     <path id="m318926eb10" d="M 73.832727 -288.920749 
L 73.832727 -287.243392 
L 109.905455 -289.299509 
L 145.978182 -290.760444 
L 182.050909 -290.922781 
L 218.123636 -290.544022 
L 254.196364 -290.787503 
L 290.269091 -291.247423 
L 326.341818 -291.247423 
L 362.414545 -290.760444 
L 398.487273 -291.328599 
L 398.487273 -291.815578 
L 398.487273 -291.815578 
L 362.414545 -291.355642 
L 326.341818 -291.95084 
L 290.269091 -291.626198 
L 254.196364 -291.40976 
L 218.123636 -291.517979 
L 182.050909 -291.517979 
L 145.978182 -291.274481 
L 109.905455 -290.652241 
L 73.832727 -288.920749 
z
" style="stroke: #fc9272; stroke-opacity: 0.2"/>
    </defs>
    <g clip-path="url(#p5620da1592)">
     <use xlink:href="#m318926eb10" x="0" y="345.6" style="fill: #fc9272; fill-opacity: 0.2; stroke: #fc9272; stroke-opacity: 0.2"/>
    </g>
   </g>
   <g id="PolyCollection_6">
    <defs>
     <path id="m94ec9cc286" d="M 73.832727 -282.671205 
L 73.832727 -252.18094 
L 109.905455 -282.671205 
L 145.978182 -286.269435 
L 182.050909 -288.866648 
L 218.123636 -289.056027 
L 254.196364 -289.056027 
L 290.269091 -289.137188 
L 326.341818 -290.084086 
L 362.414545 -290.408744 
L 398.487273 -290.462861 
L 398.487273 -291.599139 
L 398.487273 -291.599139 
L 362.414545 -291.40976 
L 326.341818 -291.463861 
L 290.269091 -291.274481 
L 254.196364 -291.13922 
L 218.123636 -290.895722 
L 182.050909 -290.679284 
L 145.978182 -289.948824 
L 109.905455 -287.81153 
L 73.832727 -282.671205 
z
" style="stroke: #fb694a; stroke-opacity: 0.2"/>
    </defs>
    <g clip-path="url(#p5620da1592)">
     <use xlink:href="#m94ec9cc286" x="0" y="345.6" style="fill: #fb694a; fill-opacity: 0.2; stroke: #fb694a; stroke-opacity: 0.2"/>
    </g>
   </g>
   <g id="PolyCollection_7">
    <defs>
     <path id="m038b3481fa" d="M 73.832727 -257.862361 
L 73.832727 -174.426749 
L 109.905455 -272.471716 
L 145.978182 -284.673221 
L 182.050909 -288.325568 
L 218.123636 -288.73137 
L 254.196364 -288.19029 
L 290.269091 -289.894706 
L 326.341818 -290.273466 
L 362.414545 -290.544022 
L 398.487273 -290.462861 
L 398.487273 -291.274481 
L 398.487273 -291.274481 
L 362.414545 -290.922781 
L 326.341818 -291.085102 
L 290.269091 -290.895722 
L 254.196364 -290.435803 
L 218.123636 -290.057043 
L 182.050909 -289.137188 
L 145.978182 -288.19029 
L 109.905455 -282.725307 
L 73.832727 -257.862361 
z
" style="stroke: #ee3a2c; stroke-opacity: 0.2"/>
    </defs>
    <g clip-path="url(#p5620da1592)">
     <use xlink:href="#m038b3481fa" x="0" y="345.6" style="fill: #ee3a2c; fill-opacity: 0.2; stroke: #ee3a2c; stroke-opacity: 0.2"/>
    </g>
   </g>
   <g id="PolyCollection_8">
    <defs>
     <path id="mc51bef5cc0" d="M 73.832727 -219.796894 
L 73.832727 -50.112 
L 109.905455 -155.894515 
L 145.978182 -246.228995 
L 182.050909 -276.638084 
L 218.123636 -283.374606 
L 254.196364 -285.701296 
L 290.269091 -286.080055 
L 326.341818 -287.432771 
L 362.414545 -288.514947 
L 398.487273 -288.866648 
L 398.487273 -290.435803 
L 398.487273 -290.435803 
L 362.414545 -290.138204 
L 326.341818 -289.786487 
L 290.269091 -289.245407 
L 254.196364 -288.569049 
L 218.123636 -287.946792 
L 182.050909 -287.081055 
L 145.978182 -284.294462 
L 109.905455 -278.207239 
L 73.832727 -219.796894 
z
" style="stroke: #ca181d; stroke-opacity: 0.2"/>
    </defs>
    <g clip-path="url(#p5620da1592)">
     <use xlink:href="#mc51bef5cc0" x="0" y="345.6" style="fill: #ca181d; fill-opacity: 0.2; stroke: #ca181d; stroke-opacity: 0.2"/>
    </g>
   </g>
   <g id="matplotlib.axis_1">
    <g id="xtick_1">
     <g id="line2d_1">
      <defs>
       <path id="m636e1e5957" d="M 0 0 
L 0 3.5 
" style="stroke: #000000; stroke-width: 0.8"/>
      </defs>
      <g>
       <use xlink:href="#m636e1e5957" x="109.905455" y="307.584" style="stroke: #000000; stroke-width: 0.8"/>
      </g>
     </g>
     <g id="text_1">
      <!-- 2 -->
      <g transform="translate(106.724205 322.182437) scale(0.1 -0.1)">
       <defs>
        <path id="DejaVuSans-32" d="M 1228 531 
L 3431 531 
L 3431 0 
L 469 0 
L 469 531 
Q 828 903 1448 1529 
Q 2069 2156 2228 2338 
Q 2531 2678 2651 2914 
Q 2772 3150 2772 3378 
Q 2772 3750 2511 3984 
Q 2250 4219 1831 4219 
Q 1534 4219 1204 4116 
Q 875 4013 500 3803 
L 500 4441 
Q 881 4594 1212 4672 
Q 1544 4750 1819 4750 
Q 2544 4750 2975 4387 
Q 3406 4025 3406 3419 
Q 3406 3131 3298 2873 
Q 3191 2616 2906 2266 
Q 2828 2175 2409 1742 
Q 1991 1309 1228 531 
z
" transform="scale(0.015625)"/>
       </defs>
       <use xlink:href="#DejaVuSans-32"/>
      </g>
     </g>
    </g>
    <g id="xtick_2">
     <g id="line2d_2">
      <g>
       <use xlink:href="#m636e1e5957" x="182.050909" y="307.584" style="stroke: #000000; stroke-width: 0.8"/>
      </g>
     </g>
     <g id="text_2">
      <!-- 4 -->
      <g transform="translate(178.869659 322.182437) scale(0.1 -0.1)">
       <defs>
        <path id="DejaVuSans-34" d="M 2419 4116 
L 825 1625 
L 2419 1625 
L 2419 4116 
z
M 2253 4666 
L 3047 4666 
L 3047 1625 
L 3713 1625 
L 3713 1100 
L 3047 1100 
L 3047 0 
L 2419 0 
L 2419 1100 
L 313 1100 
L 313 1709 
L 2253 4666 
z
" transform="scale(0.015625)"/>
       </defs>
       <use xlink:href="#DejaVuSans-34"/>
      </g>
     </g>
    </g>
    <g id="xtick_3">
     <g id="line2d_3">
      <g>
       <use xlink:href="#m636e1e5957" x="254.196364" y="307.584" style="stroke: #000000; stroke-width: 0.8"/>
      </g>
     </g>
     <g id="text_3">
      <!-- 6 -->
      <g transform="translate(251.015114 322.182437) scale(0.1 -0.1)">
       <defs>
        <path id="DejaVuSans-36" d="M 2113 2584 
Q 1688 2584 1439 2293 
Q 1191 2003 1191 1497 
Q 1191 994 1439 701 
Q 1688 409 2113 409 
Q 2538 409 2786 701 
Q 3034 994 3034 1497 
Q 3034 2003 2786 2293 
Q 2538 2584 2113 2584 
z
M 3366 4563 
L 3366 3988 
Q 3128 4100 2886 4159 
Q 2644 4219 2406 4219 
Q 1781 4219 1451 3797 
Q 1122 3375 1075 2522 
Q 1259 2794 1537 2939 
Q 1816 3084 2150 3084 
Q 2853 3084 3261 2657 
Q 3669 2231 3669 1497 
Q 3669 778 3244 343 
Q 2819 -91 2113 -91 
Q 1303 -91 875 529 
Q 447 1150 447 2328 
Q 447 3434 972 4092 
Q 1497 4750 2381 4750 
Q 2619 4750 2861 4703 
Q 3103 4656 3366 4563 
z
" transform="scale(0.015625)"/>
       </defs>
       <use xlink:href="#DejaVuSans-36"/>
      </g>
     </g>
    </g>
    <g id="xtick_4">
     <g id="line2d_4">
      <g>
       <use xlink:href="#m636e1e5957" x="326.341818" y="307.584" style="stroke: #000000; stroke-width: 0.8"/>
      </g>
     </g>
     <g id="text_4">
      <!-- 8 -->
      <g transform="translate(323.160568 322.182437) scale(0.1 -0.1)">
       <defs>
        <path id="DejaVuSans-38" d="M 2034 2216 
Q 1584 2216 1326 1975 
Q 1069 1734 1069 1313 
Q 1069 891 1326 650 
Q 1584 409 2034 409 
Q 2484 409 2743 651 
Q 3003 894 3003 1313 
Q 3003 1734 2745 1975 
Q 2488 2216 2034 2216 
z
M 1403 2484 
Q 997 2584 770 2862 
Q 544 3141 544 3541 
Q 544 4100 942 4425 
Q 1341 4750 2034 4750 
Q 2731 4750 3128 4425 
Q 3525 4100 3525 3541 
Q 3525 3141 3298 2862 
Q 3072 2584 2669 2484 
Q 3125 2378 3379 2068 
Q 3634 1759 3634 1313 
Q 3634 634 3220 271 
Q 2806 -91 2034 -91 
Q 1263 -91 848 271 
Q 434 634 434 1313 
Q 434 1759 690 2068 
Q 947 2378 1403 2484 
z
M 1172 3481 
Q 1172 3119 1398 2916 
Q 1625 2713 2034 2713 
Q 2441 2713 2670 2916 
Q 2900 3119 2900 3481 
Q 2900 3844 2670 4047 
Q 2441 4250 2034 4250 
Q 1625 4250 1398 4047 
Q 1172 3844 1172 3481 
z
" transform="scale(0.015625)"/>
       </defs>
       <use xlink:href="#DejaVuSans-38"/>
      </g>
     </g>
    </g>
    <g id="xtick_5">
     <g id="line2d_5">
      <g>
       <use xlink:href="#m636e1e5957" x="398.487273" y="307.584" style="stroke: #000000; stroke-width: 0.8"/>
      </g>
     </g>
     <g id="text_5">
      <!-- 10 -->
      <g transform="translate(392.124773 322.182437) scale(0.1 -0.1)">
       <defs>
        <path id="DejaVuSans-31" d="M 794 531 
L 1825 531 
L 1825 4091 
L 703 3866 
L 703 4441 
L 1819 4666 
L 2450 4666 
L 2450 531 
L 3481 531 
L 3481 0 
L 794 0 
L 794 531 
z
" transform="scale(0.015625)"/>
        <path id="DejaVuSans-30" d="M 2034 4250 
Q 1547 4250 1301 3770 
Q 1056 3291 1056 2328 
Q 1056 1369 1301 889 
Q 1547 409 2034 409 
Q 2525 409 2770 889 
Q 3016 1369 3016 2328 
Q 3016 3291 2770 3770 
Q 2525 4250 2034 4250 
z
M 2034 4750 
Q 2819 4750 3233 4129 
Q 3647 3509 3647 2328 
Q 3647 1150 3233 529 
Q 2819 -91 2034 -91 
Q 1250 -91 836 529 
Q 422 1150 422 2328 
Q 422 3509 836 4129 
Q 1250 4750 2034 4750 
z
" transform="scale(0.015625)"/>
       </defs>
       <use xlink:href="#DejaVuSans-31"/>
       <use xlink:href="#DejaVuSans-30" x="63.623047"/>
      </g>
     </g>
    </g>
    <g id="text_6">
     <!-- Epoch -->
     <g transform="translate(220.849063 335.860562) scale(0.1 -0.1)">
      <defs>
       <path id="DejaVuSans-45" d="M 628 4666 
L 3578 4666 
L 3578 4134 
L 1259 4134 
L 1259 2753 
L 3481 2753 
L 3481 2222 
L 1259 2222 
L 1259 531 
L 3634 531 
L 3634 0 
L 628 0 
L 628 4666 
z
" transform="scale(0.015625)"/>
       <path id="DejaVuSans-70" d="M 1159 525 
L 1159 -1331 
L 581 -1331 
L 581 3500 
L 1159 3500 
L 1159 2969 
Q 1341 3281 1617 3432 
Q 1894 3584 2278 3584 
Q 2916 3584 3314 3078 
Q 3713 2572 3713 1747 
Q 3713 922 3314 415 
Q 2916 -91 2278 -91 
Q 1894 -91 1617 61 
Q 1341 213 1159 525 
z
M 3116 1747 
Q 3116 2381 2855 2742 
Q 2594 3103 2138 3103 
Q 1681 3103 1420 2742 
Q 1159 2381 1159 1747 
Q 1159 1113 1420 752 
Q 1681 391 2138 391 
Q 2594 391 2855 752 
Q 3116 1113 3116 1747 
z
" transform="scale(0.015625)"/>
       <path id="DejaVuSans-6f" d="M 1959 3097 
Q 1497 3097 1228 2736 
Q 959 2375 959 1747 
Q 959 1119 1226 758 
Q 1494 397 1959 397 
Q 2419 397 2687 759 
Q 2956 1122 2956 1747 
Q 2956 2369 2687 2733 
Q 2419 3097 1959 3097 
z
M 1959 3584 
Q 2709 3584 3137 3096 
Q 3566 2609 3566 1747 
Q 3566 888 3137 398 
Q 2709 -91 1959 -91 
Q 1206 -91 779 398 
Q 353 888 353 1747 
Q 353 2609 779 3096 
Q 1206 3584 1959 3584 
z
" transform="scale(0.015625)"/>
       <path id="DejaVuSans-63" d="M 3122 3366 
L 3122 2828 
Q 2878 2963 2633 3030 
Q 2388 3097 2138 3097 
Q 1578 3097 1268 2742 
Q 959 2388 959 1747 
Q 959 1106 1268 751 
Q 1578 397 2138 397 
Q 2388 397 2633 464 
Q 2878 531 3122 666 
L 3122 134 
Q 2881 22 2623 -34 
Q 2366 -91 2075 -91 
Q 1284 -91 818 406 
Q 353 903 353 1747 
Q 353 2603 823 3093 
Q 1294 3584 2113 3584 
Q 2378 3584 2631 3529 
Q 2884 3475 3122 3366 
z
" transform="scale(0.015625)"/>
       <path id="DejaVuSans-68" d="M 3513 2113 
L 3513 0 
L 2938 0 
L 2938 2094 
Q 2938 2591 2744 2837 
Q 2550 3084 2163 3084 
Q 1697 3084 1428 2787 
Q 1159 2491 1159 1978 
L 1159 0 
L 581 0 
L 581 4863 
L 1159 4863 
L 1159 2956 
Q 1366 3272 1645 3428 
Q 1925 3584 2291 3584 
Q 2894 3584 3203 3211 
Q 3513 2838 3513 2113 
z
" transform="scale(0.015625)"/>
      </defs>
      <use xlink:href="#DejaVuSans-45"/>
      <use xlink:href="#DejaVuSans-70" x="63.183594"/>
      <use xlink:href="#DejaVuSans-6f" x="126.660156"/>
      <use xlink:href="#DejaVuSans-63" x="187.841797"/>
      <use xlink:href="#DejaVuSans-68" x="242.822266"/>
     </g>
    </g>
   </g>
   <g id="matplotlib.axis_2">
    <g id="ytick_1">
     <g id="line2d_6">
      <defs>
       <path id="mbfe11ccc94" d="M 0 0 
L -3.5 0 
" style="stroke: #000000; stroke-width: 0.8"/>
      </defs>
      <g>
       <use xlink:href="#mbfe11ccc94" x="57.6" y="268.704193" style="stroke: #000000; stroke-width: 0.8"/>
      </g>
     </g>
     <g id="text_7">
      <!-- 0.2 -->
      <g transform="translate(34.696875 272.503412) scale(0.1 -0.1)">
       <defs>
        <path id="DejaVuSans-2e" d="M 684 794 
L 1344 794 
L 1344 0 
L 684 0 
L 684 794 
z
" transform="scale(0.015625)"/>
       </defs>
       <use xlink:href="#DejaVuSans-30"/>
       <use xlink:href="#DejaVuSans-2e" x="63.623047"/>
       <use xlink:href="#DejaVuSans-32" x="95.410156"/>
      </g>
     </g>
    </g>
    <g id="ytick_2">
     <g id="line2d_7">
      <g>
       <use xlink:href="#mbfe11ccc94" x="57.6" y="214.595491" style="stroke: #000000; stroke-width: 0.8"/>
      </g>
     </g>
     <g id="text_8">
      <!-- 0.4 -->
      <g transform="translate(34.696875 218.39471) scale(0.1 -0.1)">
       <use xlink:href="#DejaVuSans-30"/>
       <use xlink:href="#DejaVuSans-2e" x="63.623047"/>
       <use xlink:href="#DejaVuSans-34" x="95.410156"/>
      </g>
     </g>
    </g>
    <g id="ytick_3">
     <g id="line2d_8">
      <g>
       <use xlink:href="#mbfe11ccc94" x="57.6" y="160.486789" style="stroke: #000000; stroke-width: 0.8"/>
      </g>
     </g>
     <g id="text_9">
      <!-- 0.6 -->
      <g transform="translate(34.696875 164.286008) scale(0.1 -0.1)">
       <use xlink:href="#DejaVuSans-30"/>
       <use xlink:href="#DejaVuSans-2e" x="63.623047"/>
       <use xlink:href="#DejaVuSans-36" x="95.410156"/>
      </g>
     </g>
    </g>
    <g id="ytick_4">
     <g id="line2d_9">
      <g>
       <use xlink:href="#mbfe11ccc94" x="57.6" y="106.378087" style="stroke: #000000; stroke-width: 0.8"/>
      </g>
     </g>
     <g id="text_10">
      <!-- 0.8 -->
      <g transform="translate(34.696875 110.177306) scale(0.1 -0.1)">
       <use xlink:href="#DejaVuSans-30"/>
       <use xlink:href="#DejaVuSans-2e" x="63.623047"/>
       <use xlink:href="#DejaVuSans-38" x="95.410156"/>
      </g>
     </g>
    </g>
    <g id="ytick_5">
     <g id="line2d_10">
      <g>
       <use xlink:href="#mbfe11ccc94" x="57.6" y="52.269385" style="stroke: #000000; stroke-width: 0.8"/>
      </g>
     </g>
     <g id="text_11">
      <!-- 1.0 -->
      <g transform="translate(34.696875 56.068604) scale(0.1 -0.1)">
       <use xlink:href="#DejaVuSans-31"/>
       <use xlink:href="#DejaVuSans-2e" x="63.623047"/>
       <use xlink:href="#DejaVuSans-30" x="95.410156"/>
      </g>
     </g>
    </g>
    <g id="text_12">
     <!-- Accuracy -->
     <g transform="translate(28.617187 197.356125) rotate(-90) scale(0.1 -0.1)">
      <defs>
       <path id="DejaVuSans-41" d="M 2188 4044 
L 1331 1722 
L 3047 1722 
L 2188 4044 
z
M 1831 4666 
L 2547 4666 
L 4325 0 
L 3669 0 
L 3244 1197 
L 1141 1197 
L 716 0 
L 50 0 
L 1831 4666 
z
" transform="scale(0.015625)"/>
       <path id="DejaVuSans-75" d="M 544 1381 
L 544 3500 
L 1119 3500 
L 1119 1403 
Q 1119 906 1312 657 
Q 1506 409 1894 409 
Q 2359 409 2629 706 
Q 2900 1003 2900 1516 
L 2900 3500 
L 3475 3500 
L 3475 0 
L 2900 0 
L 2900 538 
Q 2691 219 2414 64 
Q 2138 -91 1772 -91 
Q 1169 -91 856 284 
Q 544 659 544 1381 
z
M 1991 3584 
L 1991 3584 
z
" transform="scale(0.015625)"/>
       <path id="DejaVuSans-72" d="M 2631 2963 
Q 2534 3019 2420 3045 
Q 2306 3072 2169 3072 
Q 1681 3072 1420 2755 
Q 1159 2438 1159 1844 
L 1159 0 
L 581 0 
L 581 3500 
L 1159 3500 
L 1159 2956 
Q 1341 3275 1631 3429 
Q 1922 3584 2338 3584 
Q 2397 3584 2469 3576 
Q 2541 3569 2628 3553 
L 2631 2963 
z
" transform="scale(0.015625)"/>
       <path id="DejaVuSans-61" d="M 2194 1759 
Q 1497 1759 1228 1600 
Q 959 1441 959 1056 
Q 959 750 1161 570 
Q 1363 391 1709 391 
Q 2188 391 2477 730 
Q 2766 1069 2766 1631 
L 2766 1759 
L 2194 1759 
z
M 3341 1997 
L 3341 0 
L 2766 0 
L 2766 531 
Q 2569 213 2275 61 
Q 1981 -91 1556 -91 
Q 1019 -91 701 211 
Q 384 513 384 1019 
Q 384 1609 779 1909 
Q 1175 2209 1959 2209 
L 2766 2209 
L 2766 2266 
Q 2766 2663 2505 2880 
Q 2244 3097 1772 3097 
Q 1472 3097 1187 3025 
Q 903 2953 641 2809 
L 641 3341 
Q 956 3463 1253 3523 
Q 1550 3584 1831 3584 
Q 2591 3584 2966 3190 
Q 3341 2797 3341 1997 
z
" transform="scale(0.015625)"/>
       <path id="DejaVuSans-79" d="M 2059 -325 
Q 1816 -950 1584 -1140 
Q 1353 -1331 966 -1331 
L 506 -1331 
L 506 -850 
L 844 -850 
Q 1081 -850 1212 -737 
Q 1344 -625 1503 -206 
L 1606 56 
L 191 3500 
L 800 3500 
L 1894 763 
L 2988 3500 
L 3597 3500 
L 2059 -325 
z
" transform="scale(0.015625)"/>
      </defs>
      <use xlink:href="#DejaVuSans-41"/>
      <use xlink:href="#DejaVuSans-63" x="66.658203"/>
      <use xlink:href="#DejaVuSans-63" x="121.638672"/>
      <use xlink:href="#DejaVuSans-75" x="176.619141"/>
      <use xlink:href="#DejaVuSans-72" x="239.998047"/>
      <use xlink:href="#DejaVuSans-61" x="281.111328"/>
      <use xlink:href="#DejaVuSans-63" x="342.390625"/>
      <use xlink:href="#DejaVuSans-79" x="397.371094"/>
     </g>
    </g>
   </g>
   <g id="line2d_11">
    <path d="M 73.832727 56.22473 
L 109.905455 54.70969 
L 145.978182 54.417502 
L 182.050909 54.293051 
L 218.123636 54.087436 
L 254.196364 54.022511 
L 290.269091 53.800661 
L 326.341818 53.968397 
L 362.414545 54.09826 
L 398.487273 53.838537 
" clip-path="url(#p5620da1592)" style="fill: none; stroke: #9dcae1; stroke-width: 1.5; stroke-linecap: square"/>
   </g>
   <g id="line2d_12">
    <path d="M 73.832727 58.259222 
L 109.905455 55.396871 
L 145.978182 55.142557 
L 182.050909 54.352571 
L 218.123636 54.184832 
L 254.196364 54.130724 
L 290.269091 54.15778 
L 326.341818 54.098257 
L 362.414545 53.871004 
L 398.487273 54.103668 
" clip-path="url(#p5620da1592)" style="fill: none; stroke: #6aaed6; stroke-width: 1.5; stroke-linecap: square"/>
   </g>
   <g id="line2d_13">
    <path d="M 73.832727 59.741799 
L 109.905455 56.089458 
L 145.978182 55.045161 
L 182.050909 54.493251 
L 218.123636 54.525718 
L 254.196364 54.217299 
L 290.269091 54.271407 
L 326.341818 54.347156 
L 362.414545 54.17942 
L 398.487273 53.990044 
" clip-path="url(#p5620da1592)" style="fill: none; stroke: #4191c6; stroke-width: 1.5; stroke-linecap: square"/>
   </g>
   <g id="line2d_14">
    <path d="M 73.832727 62.311959 
L 109.905455 57.090471 
L 145.978182 56.105694 
L 182.050909 55.061393 
L 218.123636 55.18043 
L 254.196364 54.325515 
L 290.269091 54.152368 
L 326.341818 54.828729 
L 362.414545 53.925109 
L 398.487273 53.990041 
" clip-path="url(#p5620da1592)" style="fill: none; stroke: #2070b4; stroke-width: 1.5; stroke-linecap: square"/>
   </g>
   <g id="line2d_15">
    <path d="M 73.832727 57.669433 
L 109.905455 55.369812 
L 145.978182 54.514898 
L 182.050909 54.43914 
L 218.123636 54.433731 
L 254.196364 54.43914 
L 290.269091 54.10908 
L 326.341818 54.000867 
L 362.414545 54.514901 
L 398.487273 53.995449 
" clip-path="url(#p5620da1592)" style="fill: none; stroke: #fc9272; stroke-width: 1.5; stroke-linecap: square"/>
   </g>
   <g id="line2d_16">
    <path d="M 73.832727 72.560149 
L 109.905455 59.433376 
L 145.978182 56.711708 
L 182.050909 55.591656 
L 218.123636 55.580836 
L 254.196364 54.936942 
L 290.269091 54.980236 
L 326.341818 54.552774 
L 362.414545 54.525718 
L 398.487273 54.482431 
" clip-path="url(#p5620da1592)" style="fill: none; stroke: #fb694a; stroke-width: 1.5; stroke-linecap: square"/>
   </g>
   <g id="line2d_17">
    <path d="M 73.832727 125.381063 
L 109.905455 65.948065 
L 145.978182 59.206124 
L 182.050909 56.960608 
L 218.123636 56.116514 
L 254.196364 56.062403 
L 290.269091 55.267008 
L 326.341818 54.936945 
L 362.414545 54.855781 
L 398.487273 54.785441 
" clip-path="url(#p5620da1592)" style="fill: none; stroke: #ee3a2c; stroke-width: 1.5; stroke-linecap: square"/>
   </g>
   <g id="line2d_18">
    <path d="M 73.832727 219.551848 
L 109.905455 122.345565 
L 145.978182 77.532738 
L 182.050909 62.798941 
L 218.123636 59.638994 
L 254.196364 58.226755 
L 290.269091 57.51793 
L 326.341818 56.630548 
L 362.414545 56.28425 
L 398.487273 55.824327 
" clip-path="url(#p5620da1592)" style="fill: none; stroke: #ca181d; stroke-width: 1.5; stroke-linecap: square"/>
   </g>
   <g id="patch_3">
    <path d="M 57.6 307.584 
L 57.6 41.472 
" style="fill: none; stroke: #000000; stroke-width: 0.8; stroke-linejoin: miter; stroke-linecap: square"/>
   </g>
   <g id="patch_4">
    <path d="M 414.72 307.584 
L 414.72 41.472 
" style="fill: none; stroke: #000000; stroke-width: 0.8; stroke-linejoin: miter; stroke-linecap: square"/>
   </g>
   <g id="patch_5">
    <path d="M 57.6 307.584 
L 414.72 307.584 
" style="fill: none; stroke: #000000; stroke-width: 0.8; stroke-linejoin: miter; stroke-linecap: square"/>
   </g>
   <g id="patch_6">
    <path d="M 57.6 41.472 
L 414.72 41.472 
" style="fill: none; stroke: #000000; stroke-width: 0.8; stroke-linejoin: miter; stroke-linecap: square"/>
   </g>
   <g id="text_13">
    <!-- Accuracy over Epochs -->
    <g transform="translate(170.072812 35.472) scale(0.12 -0.12)">
     <defs>
      <path id="DejaVuSans-20" transform="scale(0.015625)"/>
      <path id="DejaVuSans-76" d="M 191 3500 
L 800 3500 
L 1894 563 
L 2988 3500 
L 3597 3500 
L 2284 0 
L 1503 0 
L 191 3500 
z
" transform="scale(0.015625)"/>
      <path id="DejaVuSans-65" d="M 3597 1894 
L 3597 1613 
L 953 1613 
Q 991 1019 1311 708 
Q 1631 397 2203 397 
Q 2534 397 2845 478 
Q 3156 559 3463 722 
L 3463 178 
Q 3153 47 2828 -22 
Q 2503 -91 2169 -91 
Q 1331 -91 842 396 
Q 353 884 353 1716 
Q 353 2575 817 3079 
Q 1281 3584 2069 3584 
Q 2775 3584 3186 3129 
Q 3597 2675 3597 1894 
z
M 3022 2063 
Q 3016 2534 2758 2815 
Q 2500 3097 2075 3097 
Q 1594 3097 1305 2825 
Q 1016 2553 972 2059 
L 3022 2063 
z
" transform="scale(0.015625)"/>
      <path id="DejaVuSans-73" d="M 2834 3397 
L 2834 2853 
Q 2591 2978 2328 3040 
Q 2066 3103 1784 3103 
Q 1356 3103 1142 2972 
Q 928 2841 928 2578 
Q 928 2378 1081 2264 
Q 1234 2150 1697 2047 
L 1894 2003 
Q 2506 1872 2764 1633 
Q 3022 1394 3022 966 
Q 3022 478 2636 193 
Q 2250 -91 1575 -91 
Q 1294 -91 989 -36 
Q 684 19 347 128 
L 347 722 
Q 666 556 975 473 
Q 1284 391 1588 391 
Q 1994 391 2212 530 
Q 2431 669 2431 922 
Q 2431 1156 2273 1281 
Q 2116 1406 1581 1522 
L 1381 1569 
Q 847 1681 609 1914 
Q 372 2147 372 2553 
Q 372 3047 722 3315 
Q 1072 3584 1716 3584 
Q 2034 3584 2315 3537 
Q 2597 3491 2834 3397 
z
" transform="scale(0.015625)"/>
     </defs>
     <use xlink:href="#DejaVuSans-41"/>
     <use xlink:href="#DejaVuSans-63" x="66.658203"/>
     <use xlink:href="#DejaVuSans-63" x="121.638672"/>
     <use xlink:href="#DejaVuSans-75" x="176.619141"/>
     <use xlink:href="#DejaVuSans-72" x="239.998047"/>
     <use xlink:href="#DejaVuSans-61" x="281.111328"/>
     <use xlink:href="#DejaVuSans-63" x="342.390625"/>
     <use xlink:href="#DejaVuSans-79" x="397.371094"/>
     <use xlink:href="#DejaVuSans-20" x="456.550781"/>
     <use xlink:href="#DejaVuSans-6f" x="488.337891"/>
     <use xlink:href="#DejaVuSans-76" x="549.519531"/>
     <use xlink:href="#DejaVuSans-65" x="608.699219"/>
     <use xlink:href="#DejaVuSans-72" x="670.222656"/>
     <use xlink:href="#DejaVuSans-20" x="711.335938"/>
     <use xlink:href="#DejaVuSans-45" x="743.123047"/>
     <use xlink:href="#DejaVuSans-70" x="806.306641"/>
     <use xlink:href="#DejaVuSans-6f" x="869.783203"/>
     <use xlink:href="#DejaVuSans-63" x="930.964844"/>
     <use xlink:href="#DejaVuSans-68" x="985.945312"/>
     <use xlink:href="#DejaVuSans-73" x="1049.324219"/>
    </g>
   </g>
   <g id="legend_1">
    <g id="patch_7">
     <path d="M 240.902812 302.584 
L 407.72 302.584 
Q 409.72 302.584 409.72 300.584 
L 409.72 184.159 
Q 409.72 182.159 407.72 182.159 
L 240.902812 182.159 
Q 238.902812 182.159 238.902812 184.159 
L 238.902812 300.584 
Q 238.902812 302.584 240.902812 302.584 
z
" style="fill: #ffffff; opacity: 0.8; stroke: #cccccc; stroke-linejoin: miter"/>
    </g>
    <g id="line2d_19">
     <path d="M 242.902812 190.257437 
L 252.902812 190.257437 
L 262.902812 190.257437 
" style="fill: none; stroke: #9dcae1; stroke-width: 1.5; stroke-linecap: square"/>
    </g>
    <g id="text_14">
     <!-- Naive FDA 2 clients -->
     <g transform="translate(270.902812 193.757437) scale(0.1 -0.1)">
      <defs>
       <path id="DejaVuSans-4e" d="M 628 4666 
L 1478 4666 
L 3547 763 
L 3547 4666 
L 4159 4666 
L 4159 0 
L 3309 0 
L 1241 3903 
L 1241 0 
L 628 0 
L 628 4666 
z
" transform="scale(0.015625)"/>
       <path id="DejaVuSans-69" d="M 603 3500 
L 1178 3500 
L 1178 0 
L 603 0 
L 603 3500 
z
M 603 4863 
L 1178 4863 
L 1178 4134 
L 603 4134 
L 603 4863 
z
" transform="scale(0.015625)"/>
       <path id="DejaVuSans-46" d="M 628 4666 
L 3309 4666 
L 3309 4134 
L 1259 4134 
L 1259 2759 
L 3109 2759 
L 3109 2228 
L 1259 2228 
L 1259 0 
L 628 0 
L 628 4666 
z
" transform="scale(0.015625)"/>
       <path id="DejaVuSans-44" d="M 1259 4147 
L 1259 519 
L 2022 519 
Q 2988 519 3436 956 
Q 3884 1394 3884 2338 
Q 3884 3275 3436 3711 
Q 2988 4147 2022 4147 
L 1259 4147 
z
M 628 4666 
L 1925 4666 
Q 3281 4666 3915 4102 
Q 4550 3538 4550 2338 
Q 4550 1131 3912 565 
Q 3275 0 1925 0 
L 628 0 
L 628 4666 
z
" transform="scale(0.015625)"/>
       <path id="DejaVuSans-6c" d="M 603 4863 
L 1178 4863 
L 1178 0 
L 603 0 
L 603 4863 
z
" transform="scale(0.015625)"/>
       <path id="DejaVuSans-6e" d="M 3513 2113 
L 3513 0 
L 2938 0 
L 2938 2094 
Q 2938 2591 2744 2837 
Q 2550 3084 2163 3084 
Q 1697 3084 1428 2787 
Q 1159 2491 1159 1978 
L 1159 0 
L 581 0 
L 581 3500 
L 1159 3500 
L 1159 2956 
Q 1366 3272 1645 3428 
Q 1925 3584 2291 3584 
Q 2894 3584 3203 3211 
Q 3513 2838 3513 2113 
z
" transform="scale(0.015625)"/>
       <path id="DejaVuSans-74" d="M 1172 4494 
L 1172 3500 
L 2356 3500 
L 2356 3053 
L 1172 3053 
L 1172 1153 
Q 1172 725 1289 603 
Q 1406 481 1766 481 
L 2356 481 
L 2356 0 
L 1766 0 
Q 1100 0 847 248 
Q 594 497 594 1153 
L 594 3053 
L 172 3053 
L 172 3500 
L 594 3500 
L 594 4494 
L 1172 4494 
z
" transform="scale(0.015625)"/>
      </defs>
      <use xlink:href="#DejaVuSans-4e"/>
      <use xlink:href="#DejaVuSans-61" x="74.804688"/>
      <use xlink:href="#DejaVuSans-69" x="136.083984"/>
      <use xlink:href="#DejaVuSans-76" x="163.867188"/>
      <use xlink:href="#DejaVuSans-65" x="223.046875"/>
      <use xlink:href="#DejaVuSans-20" x="284.570312"/>
      <use xlink:href="#DejaVuSans-46" x="316.357422"/>
      <use xlink:href="#DejaVuSans-44" x="373.876953"/>
      <use xlink:href="#DejaVuSans-41" x="449.128906"/>
      <use xlink:href="#DejaVuSans-20" x="517.537109"/>
      <use xlink:href="#DejaVuSans-32" x="549.324219"/>
      <use xlink:href="#DejaVuSans-20" x="612.947266"/>
      <use xlink:href="#DejaVuSans-63" x="644.734375"/>
      <use xlink:href="#DejaVuSans-6c" x="699.714844"/>
      <use xlink:href="#DejaVuSans-69" x="727.498047"/>
      <use xlink:href="#DejaVuSans-65" x="755.28125"/>
      <use xlink:href="#DejaVuSans-6e" x="816.804688"/>
      <use xlink:href="#DejaVuSans-74" x="880.183594"/>
      <use xlink:href="#DejaVuSans-73" x="919.392578"/>
     </g>
    </g>
    <g id="line2d_20">
     <path d="M 242.902812 204.935563 
L 252.902812 204.935563 
L 262.902812 204.935563 
" style="fill: none; stroke: #6aaed6; stroke-width: 1.5; stroke-linecap: square"/>
    </g>
    <g id="text_15">
     <!-- Naive FDA 4 clients -->
     <g transform="translate(270.902812 208.435563) scale(0.1 -0.1)">
      <use xlink:href="#DejaVuSans-4e"/>
      <use xlink:href="#DejaVuSans-61" x="74.804688"/>
      <use xlink:href="#DejaVuSans-69" x="136.083984"/>
      <use xlink:href="#DejaVuSans-76" x="163.867188"/>
      <use xlink:href="#DejaVuSans-65" x="223.046875"/>
      <use xlink:href="#DejaVuSans-20" x="284.570312"/>
      <use xlink:href="#DejaVuSans-46" x="316.357422"/>
      <use xlink:href="#DejaVuSans-44" x="373.876953"/>
      <use xlink:href="#DejaVuSans-41" x="449.128906"/>
      <use xlink:href="#DejaVuSans-20" x="517.537109"/>
      <use xlink:href="#DejaVuSans-34" x="549.324219"/>
      <use xlink:href="#DejaVuSans-20" x="612.947266"/>
      <use xlink:href="#DejaVuSans-63" x="644.734375"/>
      <use xlink:href="#DejaVuSans-6c" x="699.714844"/>
      <use xlink:href="#DejaVuSans-69" x="727.498047"/>
      <use xlink:href="#DejaVuSans-65" x="755.28125"/>
      <use xlink:href="#DejaVuSans-6e" x="816.804688"/>
      <use xlink:href="#DejaVuSans-74" x="880.183594"/>
      <use xlink:href="#DejaVuSans-73" x="919.392578"/>
     </g>
    </g>
    <g id="line2d_21">
     <path d="M 242.902812 219.613687 
L 252.902812 219.613687 
L 262.902812 219.613687 
" style="fill: none; stroke: #4191c6; stroke-width: 1.5; stroke-linecap: square"/>
    </g>
    <g id="text_16">
     <!-- Naive FDA 6 clients -->
     <g transform="translate(270.902812 223.113687) scale(0.1 -0.1)">
      <use xlink:href="#DejaVuSans-4e"/>
      <use xlink:href="#DejaVuSans-61" x="74.804688"/>
      <use xlink:href="#DejaVuSans-69" x="136.083984"/>
      <use xlink:href="#DejaVuSans-76" x="163.867188"/>
      <use xlink:href="#DejaVuSans-65" x="223.046875"/>
      <use xlink:href="#DejaVuSans-20" x="284.570312"/>
      <use xlink:href="#DejaVuSans-46" x="316.357422"/>
      <use xlink:href="#DejaVuSans-44" x="373.876953"/>
      <use xlink:href="#DejaVuSans-41" x="449.128906"/>
      <use xlink:href="#DejaVuSans-20" x="517.537109"/>
      <use xlink:href="#DejaVuSans-36" x="549.324219"/>
      <use xlink:href="#DejaVuSans-20" x="612.947266"/>
      <use xlink:href="#DejaVuSans-63" x="644.734375"/>
      <use xlink:href="#DejaVuSans-6c" x="699.714844"/>
      <use xlink:href="#DejaVuSans-69" x="727.498047"/>
      <use xlink:href="#DejaVuSans-65" x="755.28125"/>
      <use xlink:href="#DejaVuSans-6e" x="816.804688"/>
      <use xlink:href="#DejaVuSans-74" x="880.183594"/>
      <use xlink:href="#DejaVuSans-73" x="919.392578"/>
     </g>
    </g>
    <g id="line2d_22">
     <path d="M 242.902812 234.291812 
L 252.902812 234.291812 
L 262.902812 234.291812 
" style="fill: none; stroke: #2070b4; stroke-width: 1.5; stroke-linecap: square"/>
    </g>
    <g id="text_17">
     <!-- Naive FDA 8 clients -->
     <g transform="translate(270.902812 237.791812) scale(0.1 -0.1)">
      <use xlink:href="#DejaVuSans-4e"/>
      <use xlink:href="#DejaVuSans-61" x="74.804688"/>
      <use xlink:href="#DejaVuSans-69" x="136.083984"/>
      <use xlink:href="#DejaVuSans-76" x="163.867188"/>
      <use xlink:href="#DejaVuSans-65" x="223.046875"/>
      <use xlink:href="#DejaVuSans-20" x="284.570312"/>
      <use xlink:href="#DejaVuSans-46" x="316.357422"/>
      <use xlink:href="#DejaVuSans-44" x="373.876953"/>
      <use xlink:href="#DejaVuSans-41" x="449.128906"/>
      <use xlink:href="#DejaVuSans-20" x="517.537109"/>
      <use xlink:href="#DejaVuSans-38" x="549.324219"/>
      <use xlink:href="#DejaVuSans-20" x="612.947266"/>
      <use xlink:href="#DejaVuSans-63" x="644.734375"/>
      <use xlink:href="#DejaVuSans-6c" x="699.714844"/>
      <use xlink:href="#DejaVuSans-69" x="727.498047"/>
      <use xlink:href="#DejaVuSans-65" x="755.28125"/>
      <use xlink:href="#DejaVuSans-6e" x="816.804688"/>
      <use xlink:href="#DejaVuSans-74" x="880.183594"/>
      <use xlink:href="#DejaVuSans-73" x="919.392578"/>
     </g>
    </g>
    <g id="line2d_23">
     <path d="M 242.902812 248.969937 
L 252.902812 248.969937 
L 262.902812 248.969937 
" style="fill: none; stroke: #fc9272; stroke-width: 1.5; stroke-linecap: square"/>
    </g>
    <g id="text_18">
     <!-- Synchronous SGD 2 clients -->
     <g transform="translate(270.902812 252.469937) scale(0.1 -0.1)">
      <defs>
       <path id="DejaVuSans-53" d="M 3425 4513 
L 3425 3897 
Q 3066 4069 2747 4153 
Q 2428 4238 2131 4238 
Q 1616 4238 1336 4038 
Q 1056 3838 1056 3469 
Q 1056 3159 1242 3001 
Q 1428 2844 1947 2747 
L 2328 2669 
Q 3034 2534 3370 2195 
Q 3706 1856 3706 1288 
Q 3706 609 3251 259 
Q 2797 -91 1919 -91 
Q 1588 -91 1214 -16 
Q 841 59 441 206 
L 441 856 
Q 825 641 1194 531 
Q 1563 422 1919 422 
Q 2459 422 2753 634 
Q 3047 847 3047 1241 
Q 3047 1584 2836 1778 
Q 2625 1972 2144 2069 
L 1759 2144 
Q 1053 2284 737 2584 
Q 422 2884 422 3419 
Q 422 4038 858 4394 
Q 1294 4750 2059 4750 
Q 2388 4750 2728 4690 
Q 3069 4631 3425 4513 
z
" transform="scale(0.015625)"/>
       <path id="DejaVuSans-47" d="M 3809 666 
L 3809 1919 
L 2778 1919 
L 2778 2438 
L 4434 2438 
L 4434 434 
Q 4069 175 3628 42 
Q 3188 -91 2688 -91 
Q 1594 -91 976 548 
Q 359 1188 359 2328 
Q 359 3472 976 4111 
Q 1594 4750 2688 4750 
Q 3144 4750 3555 4637 
Q 3966 4525 4313 4306 
L 4313 3634 
Q 3963 3931 3569 4081 
Q 3175 4231 2741 4231 
Q 1884 4231 1454 3753 
Q 1025 3275 1025 2328 
Q 1025 1384 1454 906 
Q 1884 428 2741 428 
Q 3075 428 3337 486 
Q 3600 544 3809 666 
z
" transform="scale(0.015625)"/>
      </defs>
      <use xlink:href="#DejaVuSans-53"/>
      <use xlink:href="#DejaVuSans-79" x="63.476562"/>
      <use xlink:href="#DejaVuSans-6e" x="122.65625"/>
      <use xlink:href="#DejaVuSans-63" x="186.035156"/>
      <use xlink:href="#DejaVuSans-68" x="241.015625"/>
      <use xlink:href="#DejaVuSans-72" x="304.394531"/>
      <use xlink:href="#DejaVuSans-6f" x="343.257812"/>
      <use xlink:href="#DejaVuSans-6e" x="404.439453"/>
      <use xlink:href="#DejaVuSans-6f" x="467.818359"/>
      <use xlink:href="#DejaVuSans-75" x="529"/>
      <use xlink:href="#DejaVuSans-73" x="592.378906"/>
      <use xlink:href="#DejaVuSans-20" x="644.478516"/>
      <use xlink:href="#DejaVuSans-53" x="676.265625"/>
      <use xlink:href="#DejaVuSans-47" x="739.742188"/>
      <use xlink:href="#DejaVuSans-44" x="817.232422"/>
      <use xlink:href="#DejaVuSans-20" x="894.234375"/>
      <use xlink:href="#DejaVuSans-32" x="926.021484"/>
      <use xlink:href="#DejaVuSans-20" x="989.644531"/>
      <use xlink:href="#DejaVuSans-63" x="1021.431641"/>
      <use xlink:href="#DejaVuSans-6c" x="1076.412109"/>
      <use xlink:href="#DejaVuSans-69" x="1104.195312"/>
      <use xlink:href="#DejaVuSans-65" x="1131.978516"/>
      <use xlink:href="#DejaVuSans-6e" x="1193.501953"/>
      <use xlink:href="#DejaVuSans-74" x="1256.880859"/>
      <use xlink:href="#DejaVuSans-73" x="1296.089844"/>
     </g>
    </g>
    <g id="line2d_24">
     <path d="M 242.902812 263.648062 
L 252.902812 263.648062 
L 262.902812 263.648062 
" style="fill: none; stroke: #fb694a; stroke-width: 1.5; stroke-linecap: square"/>
    </g>
    <g id="text_19">
     <!-- Synchronous SGD 4 clients -->
     <g transform="translate(270.902812 267.148062) scale(0.1 -0.1)">
      <use xlink:href="#DejaVuSans-53"/>
      <use xlink:href="#DejaVuSans-79" x="63.476562"/>
      <use xlink:href="#DejaVuSans-6e" x="122.65625"/>
      <use xlink:href="#DejaVuSans-63" x="186.035156"/>
      <use xlink:href="#DejaVuSans-68" x="241.015625"/>
      <use xlink:href="#DejaVuSans-72" x="304.394531"/>
      <use xlink:href="#DejaVuSans-6f" x="343.257812"/>
      <use xlink:href="#DejaVuSans-6e" x="404.439453"/>
      <use xlink:href="#DejaVuSans-6f" x="467.818359"/>
      <use xlink:href="#DejaVuSans-75" x="529"/>
      <use xlink:href="#DejaVuSans-73" x="592.378906"/>
      <use xlink:href="#DejaVuSans-20" x="644.478516"/>
      <use xlink:href="#DejaVuSans-53" x="676.265625"/>
      <use xlink:href="#DejaVuSans-47" x="739.742188"/>
      <use xlink:href="#DejaVuSans-44" x="817.232422"/>
      <use xlink:href="#DejaVuSans-20" x="894.234375"/>
      <use xlink:href="#DejaVuSans-34" x="926.021484"/>
      <use xlink:href="#DejaVuSans-20" x="989.644531"/>
      <use xlink:href="#DejaVuSans-63" x="1021.431641"/>
      <use xlink:href="#DejaVuSans-6c" x="1076.412109"/>
      <use xlink:href="#DejaVuSans-69" x="1104.195312"/>
      <use xlink:href="#DejaVuSans-65" x="1131.978516"/>
      <use xlink:href="#DejaVuSans-6e" x="1193.501953"/>
      <use xlink:href="#DejaVuSans-74" x="1256.880859"/>
      <use xlink:href="#DejaVuSans-73" x="1296.089844"/>
     </g>
    </g>
    <g id="line2d_25">
     <path d="M 242.902812 278.326187 
L 252.902812 278.326187 
L 262.902812 278.326187 
" style="fill: none; stroke: #ee3a2c; stroke-width: 1.5; stroke-linecap: square"/>
    </g>
    <g id="text_20">
     <!-- Synchronous SGD 6 clients -->
     <g transform="translate(270.902812 281.826187) scale(0.1 -0.1)">
      <use xlink:href="#DejaVuSans-53"/>
      <use xlink:href="#DejaVuSans-79" x="63.476562"/>
      <use xlink:href="#DejaVuSans-6e" x="122.65625"/>
      <use xlink:href="#DejaVuSans-63" x="186.035156"/>
      <use xlink:href="#DejaVuSans-68" x="241.015625"/>
      <use xlink:href="#DejaVuSans-72" x="304.394531"/>
      <use xlink:href="#DejaVuSans-6f" x="343.257812"/>
      <use xlink:href="#DejaVuSans-6e" x="404.439453"/>
      <use xlink:href="#DejaVuSans-6f" x="467.818359"/>
      <use xlink:href="#DejaVuSans-75" x="529"/>
      <use xlink:href="#DejaVuSans-73" x="592.378906"/>
      <use xlink:href="#DejaVuSans-20" x="644.478516"/>
      <use xlink:href="#DejaVuSans-53" x="676.265625"/>
      <use xlink:href="#DejaVuSans-47" x="739.742188"/>
      <use xlink:href="#DejaVuSans-44" x="817.232422"/>
      <use xlink:href="#DejaVuSans-20" x="894.234375"/>
      <use xlink:href="#DejaVuSans-36" x="926.021484"/>
      <use xlink:href="#DejaVuSans-20" x="989.644531"/>
      <use xlink:href="#DejaVuSans-63" x="1021.431641"/>
      <use xlink:href="#DejaVuSans-6c" x="1076.412109"/>
      <use xlink:href="#DejaVuSans-69" x="1104.195312"/>
      <use xlink:href="#DejaVuSans-65" x="1131.978516"/>
      <use xlink:href="#DejaVuSans-6e" x="1193.501953"/>
      <use xlink:href="#DejaVuSans-74" x="1256.880859"/>
      <use xlink:href="#DejaVuSans-73" x="1296.089844"/>
     </g>
    </g>
    <g id="line2d_26">
     <path d="M 242.902812 293.004312 
L 252.902812 293.004312 
L 262.902812 293.004312 
" style="fill: none; stroke: #ca181d; stroke-width: 1.5; stroke-linecap: square"/>
    </g>
    <g id="text_21">
     <!-- Synchronous SGD 8 clients -->
     <g transform="translate(270.902812 296.504312) scale(0.1 -0.1)">
      <use xlink:href="#DejaVuSans-53"/>
      <use xlink:href="#DejaVuSans-79" x="63.476562"/>
      <use xlink:href="#DejaVuSans-6e" x="122.65625"/>
      <use xlink:href="#DejaVuSans-63" x="186.035156"/>
      <use xlink:href="#DejaVuSans-68" x="241.015625"/>
      <use xlink:href="#DejaVuSans-72" x="304.394531"/>
      <use xlink:href="#DejaVuSans-6f" x="343.257812"/>
      <use xlink:href="#DejaVuSans-6e" x="404.439453"/>
      <use xlink:href="#DejaVuSans-6f" x="467.818359"/>
      <use xlink:href="#DejaVuSans-75" x="529"/>
      <use xlink:href="#DejaVuSans-73" x="592.378906"/>
      <use xlink:href="#DejaVuSans-20" x="644.478516"/>
      <use xlink:href="#DejaVuSans-53" x="676.265625"/>
      <use xlink:href="#DejaVuSans-47" x="739.742188"/>
      <use xlink:href="#DejaVuSans-44" x="817.232422"/>
      <use xlink:href="#DejaVuSans-20" x="894.234375"/>
      <use xlink:href="#DejaVuSans-38" x="926.021484"/>
      <use xlink:href="#DejaVuSans-20" x="989.644531"/>
      <use xlink:href="#DejaVuSans-63" x="1021.431641"/>
      <use xlink:href="#DejaVuSans-6c" x="1076.412109"/>
      <use xlink:href="#DejaVuSans-69" x="1104.195312"/>
      <use xlink:href="#DejaVuSans-65" x="1131.978516"/>
      <use xlink:href="#DejaVuSans-6e" x="1193.501953"/>
      <use xlink:href="#DejaVuSans-74" x="1256.880859"/>
      <use xlink:href="#DejaVuSans-73" x="1296.089844"/>
     </g>
    </g>
   </g>
  </g>
 </g>
 <defs>
  <clipPath id="p5620da1592">
   <rect x="57.6" y="41.472" width="357.12" height="266.112"/>
  </clipPath>
 </defs>
</svg>
